<svg id="Layer_1" data-name="Layer 1" xmlns="http://www.w3.org/2000/svg" viewBox="0 0 55.87 104.7"><defs><style>.cls-1,.cls-2{fill:#ddcce5;}.cls-2{stroke:#fff;}.cls-2,.cls-3,.cls-4,.cls-5,.cls-6{stroke-linecap:round;stroke-linejoin:round;stroke-width:0.5px;}.cls-3{fill:#793399;}.cls-3,.cls-4,.cls-5,.cls-6{stroke:#3e0443;}.cls-4,.cls-7{fill:#f30;}.cls-5{fill:#e6e6e7;}.cls-6{fill:none;}.cls-8{fill:#3e0443;}</style></defs><title>century-roots</title><rect class="cls-1" x="2.65" y="75.39" width="43.97" height="1.13"/><rect class="cls-2" x="2.54" y="53.78" width="1.13" height="44.35"/><rect class="cls-2" x="5.86" y="53.78" width="1.13" height="44.35"/><rect class="cls-2" x="9.17" y="53.78" width="1.13" height="44.35"/><rect class="cls-2" x="12.48" y="53.78" width="1.13" height="44.35"/><rect class="cls-1" x="15.79" y="53.78" width="1.13" height="44.35"/><rect class="cls-1" x="19.1" y="53.78" width="1.13" height="44.35"/><rect class="cls-1" x="22.42" y="53.78" width="1.13" height="44.35"/><rect class="cls-1" x="25.73" y="53.78" width="1.13" height="44.35"/><rect class="cls-1" x="29.04" y="53.78" width="1.13" height="44.35"/><rect class="cls-1" x="32.35" y="53.78" width="1.13" height="44.35"/><rect class="cls-2" x="35.66" y="53.78" width="1.13" height="44.35"/><rect class="cls-2" x="38.98" y="53.78" width="1.13" height="44.35"/><rect class="cls-2" x="42.29" y="53.78" width="1.13" height="44.35"/><rect class="cls-2" x="45.6" y="53.78" width="1.13" height="44.35"/><rect class="cls-3" x="2.67" y="75.39" width="10.67" height="1.13"/><rect class="cls-3" x="15.81" y="53.78" width="1.13" height="8.01"/><rect class="cls-3" x="19.12" y="53.78" width="1.13" height="8.01"/><rect class="cls-3" x="22.43" y="53.78" width="1.13" height="8.01"/><rect class="cls-3" x="25.75" y="53.78" width="1.13" height="8.01"/><rect class="cls-3" x="29.06" y="53.78" width="1.13" height="8.01"/><rect class="cls-3" x="32.37" y="53.78" width="1.13" height="8.01"/><rect class="cls-3" x="36.07" y="75.39" width="10.31" height="1.13"/><path class="cls-4" d="M32.28,3.05a.92.92,0,0,1,1.14-.31c.83.24,1.37,0,1.65-.41l.36,2.1c-.28.44-.82.64-1.65.4a.93.93,0,0,0-1.14.32"/><path class="cls-5" d="M20.28,34.81s.26,5.43.26,7,.3,5.83.3,6.44S20.38,52,20.38,52l2.43.24s.32-3.23.43-5,1.06-6.91,1.06-7.89a26.57,26.57,0,0,1,.22-2.65l.5,5.37c.17,2,.29,10.27.29,10.27h2.26s.18-4.37.18-6,.72-7.11.72-8.45V33.26l-.38-1.1"/><polyline class="cls-4" points="23.32 17.73 22.59 20.64 25.95 20.58 25.28 16.62"/><path class="cls-4" d="M26.37,15.81a1.66,1.66,0,0,0-3.27-.57l-.28,1.64a1.65,1.65,0,1,0,3.26.56Z"/><path class="cls-5" d="M24.21,20.16l1.44-1.7.49.78s1.31-.59,1.81-.88c-.08.05,2.06-2.7,2.06-2.7l2.12-5.95,1.8.56s-2.07,5.57-2.07,6.17-3.21,5.72-3.54,6.5.49,8.26.68,9.78c0,0-.78,1.25-3.37,1.76-.25.05-.53.05-.69-.44C24.3,32.09,24.21,20.16,24.21,20.16Z"/><path class="cls-5" d="M19.59,20.64c.27-.16,2.75-1.09,2.75-1.09l.57-1,1.3,1.8s.19,12,0,13.37-.79,1.38-1.53,1.38a16.32,16.32,0,0,1-2.76-.6l.6-7.09"/><path class="cls-5" d="M22.75,52a11.35,11.35,0,0,1,.14,1.68H18.4c-.37,0-.52-.6.14-.89a12.41,12.41,0,0,0,1.95-.8Z"/><path class="cls-5" d="M25.08,53.66s.12-1.27,1.15-1.27a1.4,1.4,0,0,1,1.48,1.27C27.71,53.71,25.08,53.66,25.08,53.66Z"/><path class="cls-5" d="M21.15,25.42s3.87.44,5.15,3.4c-1.23,1.41-5.4,2-4.82-.07A4,4,0,0,0,21.15,25.42Z"/><path class="cls-4" d="M22.54,28.29s1.64-.36,2-.13.32,1.91-.26,1.91A16.65,16.65,0,0,1,22,29.62"/><path class="cls-5" d="M20.84,23.48l-.54,3.27,2.44,1.06-.38,2.38A11.59,11.59,0,0,1,18,28c-.33-.61.34-3.51.64-4.52a13.36,13.36,0,0,1,.92-2.81"/><path class="cls-4" d="M32.45,9.81l1.23.38a4.39,4.39,0,0,0,.79-2.26c-.13-.89-1.8-.39-1.88.12S32.45,9.81,32.45,9.81Z"/><line class="cls-4" x1="33.24" y1="8.82" x2="32.13" y2="2.52"/><path class="cls-6" d="M21.28,26A4.74,4.74,0,0,0,17.75,25"/><path class="cls-6" d="M21.48,26.75a13.65,13.65,0,0,0-3.54,1.53"/><path class="cls-6" d="M21.4,26.45a4.88,4.88,0,0,0-3.81-.22"/><circle class="cls-7" cx="17.49" cy="24.57" r="0.72"/><path class="cls-8" d="M17.49,24.11a.47.47,0,1,1-.46.46.47.47,0,0,1,.46-.46m0-.5a1,1,0,1,0,1,1,1,1,0,0,0-1-1Z"/><circle class="cls-7" cx="17.68" cy="26.23" r="0.72"/><path class="cls-8" d="M17.68,25.76a.47.47,0,1,1-.46.47.47.47,0,0,1,.46-.47m0-.5a1,1,0,1,0,1,1,1,1,0,0,0-1-1Z"/><circle class="cls-7" cx="17.86" cy="27.74" r="0.72"/><path class="cls-8" d="M17.86,27.28a.47.47,0,1,1-.47.46.47.47,0,0,1,.47-.46m0-.5a1,1,0,1,0,1,1,1,1,0,0,0-1-1Z"/><circle class="cls-7" cx="16.39" cy="27.15" r="0.72"/><path class="cls-8" d="M16.39,26.68a.47.47,0,1,1-.46.47.47.47,0,0,1,.46-.47m0-.5a1,1,0,1,0,1,1,1,1,0,0,0-1-1Z"/><circle class="cls-7" cx="18.87" cy="25.32" r="0.72"/><path class="cls-8" d="M18.87,24.85a.47.47,0,0,1,0,.94.47.47,0,0,1,0-.94m0-.5a1,1,0,1,0,1,1,1,1,0,0,0-1-1Z"/><circle class="cls-7" cx="16.17" cy="25.51" r="0.72"/><path class="cls-8" d="M16.17,25a.47.47,0,0,1,.47.47.47.47,0,0,1-.94,0,.47.47,0,0,1,.47-.47m0-.5a1,1,0,1,0,1,1,1,1,0,0,0-1-1Z"/><path class="cls-6" d="M21,26.62A11.85,11.85,0,0,0,18,27"/><rect class="cls-3" x="2.56" y="53.78" width="1.13" height="44.35"/><rect class="cls-3" x="5.87" y="53.78" width="1.13" height="44.35"/><rect class="cls-3" x="9.19" y="53.78" width="1.13" height="44.35"/><rect class="cls-3" x="12.5" y="53.78" width="1.13" height="42.4"/><rect class="cls-3" x="35.68" y="53.78" width="1.13" height="42.4"/><rect class="cls-3" x="38.99" y="53.78" width="1.13" height="44.35"/><rect class="cls-3" x="42.31" y="53.78" width="1.13" height="44.35"/><rect class="cls-3" x="45.62" y="53.78" width="1.13" height="44.35"/><rect class="cls-3" x="1.75" y="53.68" width="45.76" height="2.49"/><rect class="cls-3" x="1.75" y="95.72" width="45.76" height="2.49"/><rect class="cls-3" x="3.71" y="60.66" width="41.89" height="1.13"/><polygon class="cls-3" points="36.87 61.43 35.74 61.03 35.74 95.7 36.87 96.09 36.87 61.43"/><polygon class="cls-3" points="40.18 62.6 39.05 62.2 39.05 96.87 40.18 97.26 40.18 62.6"/><polygon class="cls-3" points="43.49 63.77 42.36 63.37 42.36 98.03 43.49 98.43 43.49 63.77"/><polygon class="cls-3" points="46.8 64.93 45.67 64.53 45.67 99.2 46.8 99.6 46.8 64.93"/><polygon class="cls-3" points="50.12 66.1 48.99 65.7 48.99 100.37 50.12 100.77 50.12 66.1"/><polygon class="cls-3" points="53.43 67.27 52.3 66.87 52.3 101.54 53.43 101.94 53.43 67.27"/><polygon class="cls-3" points="53.4 68 35.8 61.79 35.8 60.66 53.4 66.87 53.4 68"/><polygon class="cls-3" points="53.4 101.93 35.8 95.72 35.8 94.59 53.4 100.8 53.4 101.93"/></svg>