<svg id="Layer_1" data-name="Layer 1" xmlns="http://www.w3.org/2000/svg" viewBox="0 0 263.14 111.57"><defs><style>.cls-1{fill:#ddcce5;}.cls-1,.cls-3,.cls-5{stroke:#c2a3d1;}.cls-1,.cls-11,.cls-2,.cls-3,.cls-5,.cls-7,.cls-8{stroke-linecap:round;stroke-linejoin:round;stroke-width:0.5px;}.cls-2{fill:#793399;}.cls-11,.cls-2,.cls-7,.cls-8{stroke:#3e0443;}.cls-3,.cls-6,.cls-8{fill:#e6e6e7;}.cls-4,.cls-7{fill:#f30;}.cls-5{fill:none;}.cls-11,.cls-9{fill:#fff;}.cls-10{fill:#3e0443;}</style></defs><title>community-activism</title><rect class="cls-1" x="209.36" y="52.34" width="29.22" height="4.26"/><rect class="cls-1" x="207.43" y="56.5" width="33.09" height="4.26"/><rect class="cls-1" x="205.49" y="60.66" width="36.96" height="4.26"/><rect class="cls-1" x="203.56" y="64.83" width="40.83" height="4.26"/><rect class="cls-1" x="201.62" y="68.99" width="44.7" height="4.26"/><rect class="cls-1" x="199.69" y="73.15" width="48.57" height="4.26"/><rect class="cls-1" x="120.06" y="52.34" width="29.22" height="4.26"/><rect class="cls-1" x="118.12" y="56.5" width="33.09" height="4.26"/><rect class="cls-1" x="116.19" y="60.66" width="36.96" height="4.26"/><rect class="cls-1" x="114.25" y="64.83" width="40.83" height="4.26"/><rect class="cls-1" x="112.32" y="68.99" width="44.7" height="4.26"/><rect class="cls-1" x="110.38" y="73.15" width="48.57" height="4.26"/><rect class="cls-1" x="33.27" y="52.34" width="29.22" height="4.26"/><rect class="cls-1" x="31.34" y="56.5" width="33.09" height="4.26"/><rect class="cls-1" x="29.4" y="60.66" width="36.96" height="4.26"/><rect class="cls-1" x="27.47" y="64.83" width="40.83" height="4.26"/><rect class="cls-1" x="25.53" y="68.99" width="44.7" height="4.26"/><rect class="cls-1" x="23.6" y="73.15" width="48.57" height="4.26"/><rect class="cls-1" x="22.66" y="12.87" width="50.39" height="28.64" transform="translate(20.67 75.05) rotate(-90)"/><rect class="cls-1" x="23.9" y="16.32" width="48.11" height="24.02" transform="translate(19.63 76.29) rotate(-90)"/><rect class="cls-1" x="40.04" y="5.9" width="5.59" height="7.88" transform="translate(33 52.67) rotate(-90)"/><rect class="cls-1" x="50.34" y="5.9" width="5.59" height="7.88" transform="translate(43.3 62.97) rotate(-90)"/><rect class="cls-1" x="34.36" y="19.21" width="16.95" height="7.88" transform="translate(19.68 65.99) rotate(-90)"/><rect class="cls-1" x="44.66" y="19.21" width="16.95" height="7.88" transform="translate(29.98 76.29) rotate(-90)"/><rect class="cls-1" x="34.36" y="38.09" width="16.95" height="7.88" transform="translate(0.81 84.87) rotate(-90)"/><rect class="cls-1" x="44.66" y="38.09" width="16.95" height="7.88" transform="translate(11.1 95.16) rotate(-90)"/><circle class="cls-1" cx="57.28" cy="29.1" r="1.47"/><rect class="cls-2" x="33.44" y="11.08" width="29" height="2.82" transform="translate(7.71 -16.42) rotate(21.1)"/><rect class="cls-2" x="33.44" y="29.1" width="29" height="2.82" transform="translate(14.2 -15.21) rotate(21.1)"/><rect class="cls-2" x="33.44" y="39.29" width="29" height="2.82" transform="translate(17.87 -14.53) rotate(21.1)"/><rect class="cls-2" x="33.44" y="14.28" width="29" height="2.82" transform="translate(-2.43 18.31) rotate(-21.1)"/><rect class="cls-2" x="33.44" y="35.95" width="29" height="2.82" transform="translate(-10.24 19.76) rotate(-21.1)"/><path class="cls-3" d="M42.37,30.13s4.41.23,7.93,0A18.47,18.47,0,0,0,55,29.51s-.22-1.39-.37-4.66,0-7.24,0-7.24l-12.26,0Z"/><polygon class="cls-4" points="44.69 20.46 44.69 20.46 44.67 24.15 46.17 24.15 46.19 20.47 44.69 20.46"/><polygon class="cls-4" points="44.26 23.08 44.26 23.08 44.24 27.21 52.68 27.24 52.7 23.11 48.34 19.94 44.26 23.08"/><polyline class="cls-5" points="52.84 23.03 48.39 20.04 44.21 22.99"/><polygon class="cls-6" points="48.85 24.73 47.86 24.73 47.65 21.48 49.09 21.48 48.85 24.73"/><circle class="cls-6" cx="48.33" cy="25.97" r="0.62"/><rect class="cls-1" x="198.62" y="12.87" width="50.39" height="28.64" transform="translate(196.63 251.01) rotate(-90)"/><rect class="cls-1" x="199.86" y="16.32" width="48.11" height="24.02" transform="translate(195.59 252.25) rotate(-90)"/><rect class="cls-1" x="216" y="5.9" width="5.59" height="7.88" transform="translate(208.96 228.63) rotate(-90)"/><rect class="cls-1" x="226.3" y="5.9" width="5.59" height="7.88" transform="translate(219.26 238.93) rotate(-90)"/><rect class="cls-1" x="210.32" y="19.21" width="16.95" height="7.88" transform="translate(195.64 241.95) rotate(-90)"/><rect class="cls-1" x="220.62" y="19.21" width="16.95" height="7.88" transform="translate(205.94 252.25) rotate(-90)"/><rect class="cls-1" x="210.32" y="38.09" width="16.95" height="7.88" transform="translate(176.77 260.83) rotate(-90)"/><rect class="cls-1" x="220.62" y="38.09" width="16.95" height="7.88" transform="translate(187.06 271.12) rotate(-90)"/><circle class="cls-1" cx="233.24" cy="29.1" r="1.47"/><rect class="cls-1" x="108.76" y="12.87" width="50.39" height="28.64" transform="translate(106.77 161.14) rotate(-90)"/><rect class="cls-1" x="110" y="16.32" width="48.11" height="24.02" transform="translate(105.73 162.38) rotate(-90)"/><rect class="cls-1" x="126.14" y="5.9" width="5.59" height="7.88" transform="translate(119.09 138.77) rotate(-90)"/><rect class="cls-1" x="136.43" y="5.9" width="5.59" height="7.88" transform="translate(129.39 149.06) rotate(-90)"/><rect class="cls-1" x="120.45" y="19.21" width="16.95" height="7.88" transform="translate(105.78 152.08) rotate(-90)"/><rect class="cls-1" x="130.75" y="19.21" width="16.95" height="7.88" transform="translate(116.07 162.38) rotate(-90)"/><rect class="cls-1" x="120.45" y="38.09" width="16.95" height="7.88" transform="translate(86.9 170.96) rotate(-90)"/><rect class="cls-1" x="130.75" y="38.09" width="16.95" height="7.88" transform="translate(97.2 181.26) rotate(-90)"/><circle class="cls-1" cx="143.37" cy="29.1" r="1.47"/><rect class="cls-2" x="209.39" y="13.26" width="29" height="2.82" transform="translate(438.05 -52.24) rotate(158.9)"/><rect class="cls-2" x="209.39" y="22.56" width="29" height="2.82" transform="translate(441.4 -34.27) rotate(158.9)"/><rect class="cls-2" x="228.33" y="81.49" width="29" height="2.82" transform="translate(499.22 72.82) rotate(158.9)"/><rect class="cls-2" x="231.67" y="76" width="29" height="2.82" transform="translate(471.06 203.97) rotate(-168.09)"/><rect class="cls-2" x="209.39" y="14.28" width="29" height="2.82" transform="translate(427.12 110.94) rotate(-158.9)"/><rect class="cls-2" x="209.39" y="31.27" width="29" height="2.82" transform="translate(421 143.79) rotate(-158.9)"/><polyline class="cls-7" points="246.34 21.34 246.99 23.57 244.79 24.38 244.65 21.55"/><path class="cls-2" d="M246.17,52.65a.3.3,0,0,1-.34.31H245c-.12,0-.24-.24-.36-.24s-.41.24-.51.24h-2.85c-.06,0-.28-.29-.28-.8s.43-.71,1.07-.71a5,5,0,0,0,1.34-.23,1.16,1.16,0,0,0,.78-1c0-.05-.17-.6-.16-.65h2.13s0,1.69,0,3.1"/><path class="cls-2" d="M251.86,51.58a.3.3,0,0,1-.23.4l-.8.25c-.11,0-.3-.16-.41-.12s-.33.35-.41.38l-2.72.85c-.06,0-.36-.19-.51-.67s.19-.81.8-1a5,5,0,0,0,1.22-.62,1.16,1.16,0,0,0,.43-1.2c0-.05-.34-.53-.35-.58l2-.64s.53,1.61,1,2.95"/><path class="cls-2" d="M243.32,33.14a21.42,21.42,0,0,0-.49,5.68c0,4.17,1.31,6.54.75,11.79l3.27.38-.21-9.92"/><path class="cls-2" d="M248,33s1.33,1.75.41,5.5a32.27,32.27,0,0,0,.8,5.2,65.3,65.3,0,0,0,2.47,6.12l-2.89.62s-3-5.83-4.1-8.32-1.46-8.45-1.46-8.45"/><path class="cls-8" d="M247.6,23.35c.41.24,1.59,1.11,1.59,3.75a26.9,26.9,0,0,1-1,6.07,5.29,5.29,0,0,1-2.52.45c-1.76,0-2.44-.68-2.44-.77-.62-1.41-.52-4.88-.52-4.88a6.08,6.08,0,0,1-1.86,1c-.5,0-1.46-1-1.46-1l.7-1.68.67.39s1.5-.8,1.95-1.08a9.28,9.28,0,0,0,1.93-2.2l.29.19,2.14-1.11Z"/><path class="cls-8" d="M246.19,25.24l-2,1.75-.64-.36-1.24,2.15a6.35,6.35,0,0,0,1.69.86,10.48,10.48,0,0,0,3.62-2.33"/><polyline class="cls-2" points="237.87 19.1 240.68 23.96 240.23 24.38 237.35 19.4"/><path class="cls-9" d="M236.53,21.43l-.08,0a.24.24,0,0,1-.17-.27c0-.07.25-1.91,1.21-2.56a9.91,9.91,0,0,1,1.1-.69l0-.08a.23.23,0,0,1,.09-.33l.48-.27a.24.24,0,0,1,.12,0h.07a.3.3,0,0,1,.15.12l.76,1.39a.25.25,0,0,1-.09.33l-.45.27a.28.28,0,0,1-.13,0,.25.25,0,0,1-.21-.12l-.13-.21a6.3,6.3,0,0,0-1,.61,7.18,7.18,0,0,0-1.45,1.7A.26.26,0,0,1,236.53,21.43Z"/><path class="cls-10" d="M239.24,17.43l.76,1.38-.45.26-.24-.39a4.54,4.54,0,0,0-1.26.72,7.13,7.13,0,0,0-1.52,1.78s.22-1.8,1.1-2.4a5.58,5.58,0,0,1,1.31-.77l-.17-.32.47-.26m0-.5A.54.54,0,0,0,239,17l-.47.27a.51.51,0,0,0-.25.52c-.29.17-.63.39-.92.59-1,.7-1.29,2.54-1.32,2.74a.5.5,0,0,0,.93.32,6.57,6.57,0,0,1,1.38-1.63c.33-.23.59-.39.77-.49l0,0a.47.47,0,0,0,.42.24.48.48,0,0,0,.26-.07l.45-.26a.5.5,0,0,0,.18-.67l-.76-1.39a.57.57,0,0,0-.31-.24Z"/><path class="cls-7" d="M243.32,26.73l-2.33-3s-.85-1.32-1.32-1.32a1.35,1.35,0,0,0,.56,2.52s1.11,2.76,2.34,3.55"/><path class="cls-7" d="M243.66,19.18A1.78,1.78,0,0,1,247,20.53c-.13.3-.36,1-.48,1.31a1.78,1.78,0,0,1-3.29-1.36C243.31,20.18,243.54,19.48,243.66,19.18Z"/><path class="cls-7" d="M240,26.52s-1.33-1.82-1.33-1.91c0-.58-.28-1.89-.67-1.89s-.45.66-.45,1.15.19,1.11.32,1.11.65,2.27,1.53,2.89"/><path class="cls-7" d="M166.59,76.43a18.45,18.45,0,0,1-.48,2.64,13,13,0,0,1-1.08,6c-.35,1.09-.67,2.3-.34,3a6.84,6.84,0,0,1-2.43-.38,3.18,3.18,0,0,0,1-1.93c.21-1,.47-6.4.59-7a4.18,4.18,0,0,1,0-1.37v-1.5"/><path class="cls-2" d="M162.18,87.78c-.63.45-2.11.49-2.17.85s0,.82.55.82h4.06s.32-2.54-.14-3l-1.34-.26A3.58,3.58,0,0,1,162.18,87.78Z"/><path class="cls-7" d="M167.59,75.13A34.78,34.78,0,0,1,168.65,79a13.76,13.76,0,0,0,.53,6c.3,1.12.56,2.34.19,3a7.07,7.07,0,0,0,2.45-.26,3.18,3.18,0,0,1-.88-2c-.16-1,.1-6.42,0-7,.16-.48-.93-1.36-.93-1.36l.07-1.5"/><path class="cls-2" d="M172,87.8c.63.45,2.1.49,2.16.85s0,.82-.54.82h-4.06s-.32-2.54.14-3l1.34-.26A3.58,3.58,0,0,0,172,87.8Z"/><polyline class="cls-7" points="168.81 63.47 166.56 63.72 166.28 60.08 166.6 58.22 168.52 58.43 168.55 60.08"/><path class="cls-7" d="M172.7,62.87l.91.72,4.06-.68A4.84,4.84,0,0,1,179,61.74c.63-.3,1.21,0,1.19.58s-.15,1.41-2.1,1.53a37.26,37.26,0,0,1-4.07,1.56c-.7.11-2.35-1.13-2.35-1.13"/><path class="cls-8" d="M164.51,69.69l-.38-5.45-1.28.09-1.23-2.16a15.3,15.3,0,0,1,2.14-1.56,11.36,11.36,0,0,1,2.29-.82l1.4,1.48,1.41-1.51s.84.15,2.2.55c.54.17,1.89,2.43,1.89,2.43l-1.4,1.91-1-.67-.35,8.13a7.33,7.33,0,0,1-3.67.74C164.22,72.7,164,72,164,72"/><path class="cls-7" d="M166.14,56.29a1.56,1.56,0,1,1,3.1.4l-.2,1.55a1.57,1.57,0,1,1-3.11-.4Z"/><polygon class="cls-8" points="165.78 65.41 165 59.95 165.27 59.91 166.05 65.37 165.78 65.41"/><rect class="cls-8" x="166.24" y="62.44" width="5.67" height="0.27" transform="translate(254.15 -96.37) rotate(97.85)"/><path class="cls-2" d="M164,68.79a23.52,23.52,0,0,0,1.44-5.3h3.63s-.18,3.42,1.43,5.08a54.06,54.06,0,0,1,.41,11.69h-2.65l-.83-5.09-1.3,5.09h-2.79L164,70Z"/><path class="cls-7" d="M167.87,56.21a1,1,0,0,0,1,.54c.36-.06.33-.26.33-.26s.43.12.48-.44a.73.73,0,0,0-.46-.75s0-.67-.85-.57a.78.78,0,0,0-1.15-.07c-.32-.12-1-.1-1.09.51-.33.15-.32.73-.14.81,0,.19.47.45.64.32a1.39,1.39,0,0,0,.27-.55A1.64,1.64,0,0,0,167.87,56.21Z"/><path class="cls-7" d="M154.43,57.9a14.46,14.46,0,0,0-3.51,1.86c-.15.26.73,1.71.73,1.71L155,60.16"/><polyline class="cls-7" points="141.99 86.43 141.88 88.03 140.14 88.2 140.14 86.2"/><polyline class="cls-7" points="148.77 86.43 148.87 88.03 150.61 88.2 150.61 86.2"/><path class="cls-2" d="M150.77,87.67s2.72.63,2.78.92,0,.66-.6.66h-4.49s-.35-1.09.15-1.5A3,3,0,0,0,150.77,87.67Z"/><path class="cls-2" d="M140,87.66s-2.65.87-2.68,1.17.09.65.65.6l4.48-.41s.25-1.12-.3-1.49A3,3,0,0,1,140,87.66Z"/><path class="cls-8" d="M142.09,66.69s-.68,4.93-1,7.39-.81,9-1.08,12.66l2.18.11s1.43-8,1.74-9.56,1.6-5.59,1.6-5.59c.21,1.61,1.07,4.33,1.7,8.17.35,2.19,1.4,7,1.4,7l2.16-.12A105.4,105.4,0,0,0,150,76.07c-.57-3.45-1.05-9.38-1.05-9.38Z"/><path class="cls-2" d="M131,89.24l-4.51.3c0-.43,0-.7.21-.91.64-.53,2.91-.6,3-1.32l1.47-.1s.12,1.29.14,1.75c0,.17-.14.26-.33.28"/><path class="cls-2" d="M135.76,89.24l4.52.3c0-.43,0-.7-.21-.91-.65-.53-2.91-.6-3-1.32l-1.47-.1s-.13,1.29-.14,1.75c0,.17.13.26.32.28"/><path class="cls-2" d="M136.22,68.39s-3.79.35-7.36.35a32.12,32.12,0,0,0-.55,4.32c-.19,4.14.82,14.89.82,14.89h2.33s.2-7,.35-8.64a42.46,42.46,0,0,1,1.09-5.06l1.9,5.06.44,8.39,2.38-.19s.06-6.5.11-7.9A38.55,38.55,0,0,0,136.22,68.39Z"/><polyline class="cls-7" points="130.23 56.11 129.66 58.75 132.83 58.93 132.27 54.52"/><path class="cls-7" d="M133.12,53.72a1.7,1.7,0,1,0-3.4-.2l-.09,1.71a1.7,1.7,0,0,0,3.4.19Z"/><polyline class="cls-7" points="144.35 53.86 143.79 56.49 146.95 56.68 146.39 52.27"/><path class="cls-7" d="M147.25,51a1.7,1.7,0,0,0-3.4-.19l-.1,1.7a1.7,1.7,0,0,0,3.4.2Z"/><path class="cls-8" d="M128.24,69.92s5.21,1.35,8.32-.44a4.12,4.12,0,0,0,.23-1.86,24.71,24.71,0,0,0-1.34-6.68s1.48,2,2.11,2a5.28,5.28,0,0,0,2.91-1l-1.6-1.53s-2.5-2.38-2.85-2.73-3.14-.46-3.14-.46l-1.53.88-1.61-.67A23.43,23.43,0,0,0,125,60.2a2.73,2.73,0,0,0-.25,3.68c.79.8,3.5-.69,3.5-.69s-.17,4.31-.17,5.11A9.74,9.74,0,0,0,128.24,69.92Z"/><path class="cls-7" d="M105.48,82s.14,4,0,4.74a3.53,3.53,0,0,1-1.78,1.88c-.55.19-.58.53.11.53s2.65,0,3.24-.62a9.52,9.52,0,0,0-.14-1.83c0-.64.92-3.11.52-5"/><path class="cls-2" d="M104.45,88s.13.31.69.31a16.44,16.44,0,0,0,2-.31.51.51,0,0,1,0,.59,8.47,8.47,0,0,1-2,.6c-1.17.19-2,.25-2-.18S104.45,88,104.45,88Z"/><path class="cls-7" d="M115.13,81.92s.27,4,.48,4.71a3.5,3.5,0,0,0,2,1.69c.57.14.64.47,0,.54s-2.64.24-3.29-.29a10.66,10.66,0,0,1,0-1.83c-.06-.64-1.22-3-1-4.88"/><polyline class="cls-7" points="109.77 55.45 109.13 59.73 112.19 59.73 111.69 54.42"/><path class="cls-2" d="M116.77,87.78s-.11.33-.66.38a15.93,15.93,0,0,1-2.07-.1.51.51,0,0,0,0,.59,8.52,8.52,0,0,0,2.1.39c1.19.07,2.06,0,2-.39S116.77,87.78,116.77,87.78Z"/><path class="cls-7" d="M112.37,53.56a1.7,1.7,0,1,0-3.4,0v1.7a1.71,1.71,0,1,0,3.41,0Z"/><path class="cls-8" d="M109.19,57.25l1.48,1.59,1.59-1.59a8.68,8.68,0,0,1,2.25,1c.41.42,3.37,2.62,3.37,2.62L117,62.36l-3.2-1.46,0,5.79h-6.15l-.56-5.75-2.93,3-1-1.79s2.58-3.5,3.73-4.17A5.6,5.6,0,0,1,109.19,57.25Z"/><path class="cls-2" d="M107.68,66.69s-1,4.93-1.31,7.39-1.25,9.15-1.5,12.76l2.42.4s1.34-8.44,1.62-9.95a55.75,55.75,0,0,1,1.81-5.59c.18,1.61,1.21,4.17,1.77,8,.32,2.2,1.32,7.38,1.32,7.38l2.34-.48s-.61-7.25-1.12-10.7-1.2-9.21-1.2-9.21Z"/><path class="cls-2" d="M95,86.75A3.81,3.81,0,0,1,95.31,88a15.45,15.45,0,0,1-4.79,1.26c-.46-.53.37-1.09,1.06-1.49a4.6,4.6,0,0,0,1.23-1.13Z"/><polyline class="cls-8" points="95.8 55.36 97.34 54.97 99.83 55.19 98.41 62.88 95.96 63.14"/><path class="cls-2" d="M100.19,86.65a5.24,5.24,0,0,0-.2,1.22,15.56,15.56,0,0,0,4.79,1.25c.46-.53-.37-1.09-1.06-1.48a4.93,4.93,0,0,1-1.23-1.14Z"/><path class="cls-2" d="M93.68,68.53V77.1a69.07,69.07,0,0,1-.9,9.64l2.21.15s1-4.34,1.43-6.92,1.89-7.21,1.89-7.21.89,3.9,1.18,6.38.79,7.75.79,7.75l2.43,0s-.44-17.55-.84-19.4"/><polyline class="cls-7" points="96.92 53.7 96.76 55 97.82 55.97 99.17 55.14 98.91 52.59"/><path class="cls-7" d="M99.6,51.38a1.71,1.71,0,0,0-3.41,0v1.71a1.71,1.71,0,1,0,3.41,0Z"/><path class="cls-8" d="M97.83,56l-.47.53s.1.29.29.36c0,0-.39,2.41-.39,2.41L97,61.66l1.58.1-.17-2.68-.5-2.25a.67.67,0,0,0,.28-.39Z"/><path class="cls-2" d="M93.09,56.22,96.5,55l1,6.5L99.44,55l3.26,1.54-1.25,7.52s.83,4,1.25,7.83c-.21-.21-4.27,1.06-4.77-2.67-.45,2.37-3.41,3.08-4.77,3.08l.41-9.42-.41-1.75"/><line class="cls-2" x1="97.54" y1="61.47" x2="97.93" y2="69.23"/><path class="cls-2" d="M93.09,56.22c-.53.18-3.13,5.42-3.13,5.9a2.6,2.6,0,0,0,.71,1.72A34.25,34.25,0,0,0,93.93,66L95,63.54l-2.21-1.66.68-1.19"/><path class="cls-2" d="M102.43,56.42a3.72,3.72,0,0,1,1.75,2.08,19.09,19.09,0,0,1,.53,5.45c-.23.78-2.72,2-4.8,2.67a9,9,0,0,1-1-1.84l3.74-2.15-1-2.06"/><path class="cls-7" d="M94.86,63.85s2.19-.54,2.19.32a1.58,1.58,0,0,1-2.83,1.12Z"/><path class="cls-7" d="M99.06,65s-1.93,0-1.93.72.32,1.8,1.27,1.8,1.28-1.2,1.28-1.2Z"/><path class="cls-7" d="M101.83,61.78c-.87.18-1.11,2-.52,2.13s1-.41,1.24-1.07S102.44,61.65,101.83,61.78Z"/><path class="cls-7" d="M120.7,77a9.55,9.55,0,0,0-.68,2,11.8,11.8,0,0,1-1.19,6c-.39,1.09-.74,2.3-.37,3a8.3,8.3,0,0,1-2.69-.38,3.11,3.11,0,0,0,1.08-1.93c.23-1,.51-6.4.66-7a3.66,3.66,0,0,1,0-1.37v-1.5"/><path class="cls-2" d="M115.78,87.69s-2.43.58-2.5.94,0,.82.6.82h4.49s.35-1.34-.15-1.85C117.81,88.07,115.78,87.69,115.78,87.69Z"/><path class="cls-7" d="M122.53,77a8.92,8.92,0,0,1,.69,2,13.49,13.49,0,0,0,.52,6c.39,1.09.74,2.3.38,3a6.78,6.78,0,0,0,2.41-.34c-.59-.52-.7-.87-.81-2s.15-6.4,0-7a3.66,3.66,0,0,0,0-1.37v-1.5"/><path class="cls-2" d="M126.53,87.69s2.43.58,2.5.94,0,.82-.6.82h-4.49s-.35-1.34.15-1.85C124.5,88.07,126.53,87.69,126.53,87.69Z"/><polyline class="cls-7" points="119.97 55.04 119.56 57.7 122.72 57.7 121.91 53.33"/><path class="cls-7" d="M122.72,52.48a1.71,1.71,0,0,0-3.41,0v1.71a1.71,1.71,0,0,0,3.41,0Z"/><path class="cls-8" d="M117.88,69.48c-.49.84-.65,6.06-.55,7.09,0-.07,3.7.85,3.7.85l.66-3.35.61,3.31,4-.59s-.36-5.06-1.27-7.24"/><path class="cls-2" d="M119.5,56.67a2.59,2.59,0,0,0,1.67.71,2.15,2.15,0,0,0,1.58-.93A13,13,0,0,1,126,58a8.53,8.53,0,0,1,1.15,2.31L125,61.56l-.46-.64s.53,8.24.53,8.58c-1.15.7-6.65.5-7.25-.32.2-3.07.49-8.2.49-8.2l-.3,1-2.43-.7A16.67,16.67,0,0,1,116.86,58C117.41,57.25,119.5,56.67,119.5,56.67Z"/><path class="cls-7" d="M125.19,61.45a12.75,12.75,0,0,0,1.33,1.71c-1.39-.09-3.28.58-3.93.58-.67-.42-2.19-.43-2.39.4s1.65,2.15,2.41.82c2.1.4,5.25.09,5.8-.56s-1.08-3.69-1.58-4Z"/><path class="cls-7" d="M115.9,61.37c-.5,1-1,3-.66,3.6.47.71,3.24,1.25,5.38,1.1.6,1.4,2.6.31,2.49-.54s-1.62-1-2.32-.67c-.65-.08-2.37-1-3.76-1a10.12,10.12,0,0,0,.84-1.88Z"/><path class="cls-7" d="M117.77,62.73c-.59.35-1,2-.29,2s1.88-1.48,1.72-2S118.36,62.39,117.77,62.73Z"/><path class="cls-8" d="M125.88,62.42l3,3.34s-1.22,1.66-1.32,1.57a10.45,10.45,0,0,1-2.45-2.67,3.51,3.51,0,0,1-.38-1.33l0-.73"/><path class="cls-8" d="M145.42,56.15a1.3,1.3,0,0,1-1.37-1.39,10,10,0,0,0-3.28,1.51,11.18,11.18,0,0,0-2.64,3.06l2.74,1.59.84-.63s-.22,7.51-.48,8.54c3,.74,7,1.49,8.26,0,0,0,0-8.58,0-8.58l.24.52,2.75-.69s-1.58-3.1-2-3.78a2.84,2.84,0,0,0-1.81-1.14c-.62-.15-1.92-.4-1.92-.4A1.36,1.36,0,0,1,145.42,56.15Z"/><path class="cls-7" d="M152.13,60.33s.51,2.3-.45,2.88a19.51,19.51,0,0,1-3.88,1.23,2.9,2.9,0,0,1-1.22.28,1.1,1.1,0,0,1,0-2.2c.5-.11,1.12.61,1.12.61.55-.65,2.76-1.17,2.76-1.17l-.18-1.22Z"/><path class="cls-7" d="M138.21,59.38a6.33,6.33,0,0,0-.89,1.54,1.37,1.37,0,0,0,1.05,1.21A25.59,25.59,0,0,0,142,62a12.42,12.42,0,0,0,2.08.35c.68,0,.42-1.83,0-2a2.54,2.54,0,0,0-1.93.5,19.33,19.33,0,0,0-2.58-.7Z"/><path class="cls-7" d="M139.12,59.53c-.52.52.24,1.81.84,1.81s1.48-.32,1.23-1.43S139.27,59.38,139.12,59.53Z"/><path class="cls-7" d="M111.45,52.85c-.07.47-.79-.15-1,0s.28.44-.12.67-.88-.08-1.06.16,0,.83-.47.92-1-.59-1-.59.93-.22.81-.82.08-.76.51-.76.11-.81.6-.81.55.49.91.28,1-.66,1.17-.47a4.51,4.51,0,0,1,.42,1.19S111.53,52.39,111.45,52.85Z"/><path class="cls-7" d="M127.94,66.94s0,2,1.44,1.31c1.63-.76-.3-2.26-.69-2.26C128.81,66,127.94,66.94,127.94,66.94Z"/><path class="cls-7" d="M148.82,61.44c-.22.83,1.22,3.27,2.76,4.76-.65,1.38,1.5,2.14,2.06,1.5s-.33-1.88-1-2.19a36.44,36.44,0,0,0-2-3.74C150.79,60.48,149,60.79,148.82,61.44Z"/><path class="cls-7" d="M122.9,52.18s.09,1-.1,1-.35-.93-.45-1.06c-.5-.63-2.39-.52-2.8-.1a5.6,5.6,0,0,0-.4,1c-.41-2.24.57-2.69,1.78-2.7A1.77,1.77,0,0,1,122.9,52.18Z"/><path class="cls-7" d="M156.52,77a10.22,10.22,0,0,0-.62,2,12.87,12.87,0,0,1-1.07,6c-.36,1.09-.67,2.3-.34,3a6.82,6.82,0,0,1-2.43-.38,3.12,3.12,0,0,0,1-1.93c.21-1,.47-6.4.6-7a4.18,4.18,0,0,1,0-1.37v-1.5"/><path class="cls-8" d="M152.07,87.69s-2.2.58-2.26.94,0,.82.54.82h4.06s.32-1.34-.14-1.85C153.91,88.07,152.07,87.69,152.07,87.69Z"/><path class="cls-7" d="M158.35,77a10,10,0,0,1,.61,2,15.27,15.27,0,0,0,.46,6c.35,1.09.67,2.3.34,3a5.44,5.44,0,0,0,2.15-.34c-.53-.52-.62-.87-.72-2s.14-6.4,0-7a4.18,4.18,0,0,0,0-1.37v-1.5"/><polyline class="cls-7" points="155.66 56.04 155.2 61.47 158.71 61.47 157.81 54.33"/><path class="cls-7" d="M158.65,54.1a1.7,1.7,0,1,0-3.36-.54L155,55.24a1.7,1.7,0,1,0,3.36.55Z"/><path class="cls-2" d="M154.29,67.49a53,53,0,0,0-1.14,10.08,8.91,8.91,0,0,0,4.34.49,11.24,11.24,0,0,0,4.58-1.27s-1.28-8-2.18-10.14"/><path class="cls-2" d="M155.31,57.67s.71,2.38,1.67,2.38,1.59-2.6,1.59-2.6l.76.19L160,61a38.77,38.77,0,0,1,0,6.17c-1.15.7-5.08.9-5.68.08a26.67,26.67,0,0,0-.14-5.26l.34-4.18Z"/><path class="cls-7" d="M161.42,58.71a2.22,2.22,0,0,0-2.09-1.07l.7,3.43a27.19,27.19,0,0,0,2.41,3.13,27.48,27.48,0,0,0-3.81,1.11c-.71-.32-2.23-.12-2.32.72s1.93,1.91,2.51.49c2.14.11,5.24-.76,5.42-1.59C164.53,63.6,161.75,59.39,161.42,58.71Z"/><path class="cls-7" d="M156.91,52.05a5.76,5.76,0,0,1-1.54,2.28s.67,2.54-1.22,3c.29-.58-.71-1.15-.74-2.83s1.51-3.34,2.75-3.24c.7-.68,2.38-.09,2.76.85s1.93,2.72,1.1,3.53a1.26,1.26,0,0,0,.1,2.12s.36,1.18-.7,1.29a2.1,2.1,0,0,1,.63,2.44,1.77,1.77,0,0,1-1.83,1.23s.66-2,.18-2.84a2.68,2.68,0,0,1-.4-2.54,2.88,2.88,0,0,0,.13-2.51C157.74,54.38,159.18,52.47,156.91,52.05Z"/><path class="cls-7" d="M161.52,64.87c.68.22,3,2.94,2.93,2.91,1.75.88,1.78,1.67,1.4,2.06a.92.92,0,0,1-1.21.15,2,2,0,0,1-1-1.54,28.16,28.16,0,0,1-3.16-2c-.37-.43-.64-.86-.11-2.22a2.1,2.1,0,0,1,1.17-1s.66.79.89,1Z"/><path class="cls-8" d="M161.91,87.69s2.87.58,2.94.94,0,.82-.6.82h-4.5s-.35-1.34.16-1.85C160.32,88.07,161.91,87.69,161.91,87.69Z"/><path class="cls-7" d="M129.44,54.29c-.6.13-.69-1.14-.09-1.29-.2-.19,0-.68.34-.74.05-.75.76-.45.79-.48,0-.42.68-.64,1.12-.32.18-.25,1-.21,1,.26a.64.64,0,0,1,.54.89c.33,0,.54.61.22.77,0,0,.23.51,0,.62s-.68-.26-.81-.55c-.15,0-.4-.23-.51-.41,0,0-.92.1-1-.24,0,.16-.6.09-.76.25a1.56,1.56,0,0,0-.2.7l-.66.54"/><path class="cls-7" d="M96.19,50.83a6.62,6.62,0,0,0,3.55.9A1.88,1.88,0,0,0,98,49.54C96.6,49.54,95.9,50.54,96.19,50.83Z"/><rect class="cls-7" x="13.41" y="77.85" width="2.35" height="3.38"/><path class="cls-2" d="M18.38,108.77a5.72,5.72,0,0,0,2.2.77c.79.07.62,1.08.62,1.08H16.65c-.34-.59.11-1.85.11-1.85"/><path class="cls-7" d="M21.9,72.61V71.52s-1.23-1-.82-2,2.13-.16,2.05.84S23,71.46,23,71.46L23,72.88"/><path class="cls-2" d="M16.53,90.93s.83-.17,1.07-.59a57,57,0,0,0,.6-5.75l.87-3.16a45.36,45.36,0,0,0,3.22-4.1c.66-1.13.87-4.67.87-4.67l-1.41-.26s-1.1,3.81-1.37,4.28A10.82,10.82,0,0,1,16.53,79a2.09,2.09,0,0,0-1,.13l-1.09,1.09-1.15-1.33s-1.75.55-2.68.82S9.52,81.52,9,82.46a26.88,26.88,0,0,0-1.69,5.46c0,.55.22,4,.22,4l1.63.28s.49-3.66.49-4.48a32.39,32.39,0,0,1,1-4.2S10,90,11.47,90.34"/><path class="cls-7" d="M13.41,75.56a1.58,1.58,0,0,1,3.1.64l-.32,1.55a1.58,1.58,0,1,1-3.1-.64Z"/><path class="cls-8" d="M11.64,109.49s-.43-7.59-.43-10.21-.29-6.32,0-8.94H17.6a52.26,52.26,0,0,1,1,7.25c0,2.4.49,11.18.49,11.18l-2.54-.15L15,95.49s-.92,8.6-.92,10v3.66"/><path class="cls-2" d="M11.5,110.42S11.15,109,12.81,109,14,110.42,14,110.42Z"/><polygon class="cls-2" points="19.64 95.3 20.07 95.14 19.46 94.9 19.79 94.27 2.61 93.48 2.5 94.63 19.83 95.43 19.64 95.3"/><path class="cls-7" d="M9.13,92.24c1,1.74,0,2.45-.93,2.45S7.5,92,7.5,92Z"/><polygon class="cls-2" points="13.84 56.29 13.39 56.18 13.76 56.72 13.15 57.06 27.02 67.22 27.75 66.32 13.75 56.07 13.84 56.29"/><rect class="cls-11" x="21.13" y="60.07" width="12.26" height="12.55" transform="translate(-42.38 49.15) rotate(-53.79)"/><polygon class="cls-4" points="30.36 63.37 30.36 63.37 27.01 60.96 22.08 67.81 25.43 70.22 30.54 68.52 30.36 63.37"/><polyline class="cls-5" points="25.42 70.39 30.44 68.5 30.46 63.38"/><polygon class="cls-6" points="26.46 66.31 27.04 65.52 29.8 67.26 28.95 68.42 26.46 66.31"/><circle class="cls-6" cx="25.77" cy="65.17" r="0.62"/></svg>