<svg id="Layer_1" data-name="Layer 1" xmlns="http://www.w3.org/2000/svg" xmlns:xlink="http://www.w3.org/1999/xlink" viewBox="0 0 194 122"><defs><style>.cls-1,.cls-14,.cls-2{fill:#ddcce5;}.cls-1,.cls-19,.cls-4{stroke:#c2a3d1;}.cls-1,.cls-10,.cls-11,.cls-12,.cls-13,.cls-14,.cls-15,.cls-16,.cls-17,.cls-18,.cls-19,.cls-4,.cls-8,.cls-9{stroke-linecap:round;stroke-linejoin:round;}.cls-1,.cls-10,.cls-11,.cls-13,.cls-19,.cls-4,.cls-8,.cls-9{stroke-width:0.5px;}.cls-3{clip-path:url(#clip-path);}.cls-4{fill:none;}.cls-5{clip-path:url(#clip-path-2);}.cls-6{clip-path:url(#clip-path-3);}.cls-7{clip-path:url(#clip-path-4);}.cls-17,.cls-19,.cls-8{fill:#f30;}.cls-10,.cls-11,.cls-12,.cls-13,.cls-14,.cls-15,.cls-16,.cls-17,.cls-18,.cls-8,.cls-9{stroke:#3e0443;}.cls-15,.cls-16,.cls-18,.cls-9{fill:#793399;}.cls-10{fill:#e6e6e7;}.cls-11,.cls-12{fill:#fff;}.cls-12{stroke-width:0.49px;}.cls-13{fill:#e6e7e8;}.cls-14{stroke-width:0.53px;}.cls-15{stroke-width:0.53px;}.cls-16{stroke-width:0.52px;}.cls-17{stroke-width:0.56px;}.cls-18{stroke-width:1.5px;}</style><clipPath id="clip-path"><rect class="cls-1" x="4.59" y="16.04" width="44.72" height="22.33" transform="translate(-0.25 54.15) rotate(-90)"/></clipPath><clipPath id="clip-path-2"><rect class="cls-1" x="37.5" y="82.78" width="44.72" height="22.33" transform="translate(-34.08 153.81) rotate(-90)"/></clipPath><clipPath id="clip-path-3"><rect class="cls-1" x="114.11" y="82.78" width="44.72" height="22.33" transform="translate(42.52 230.42) rotate(-90)"/></clipPath><clipPath id="clip-path-4"><rect class="cls-1" x="156.16" y="16.38" width="44.72" height="22.33" transform="translate(150.97 206.07) rotate(-90)"/></clipPath></defs><title>district-canvasing</title><rect class="cls-1" x="69.07" y="12.78" width="46.62" height="26.5" transform="translate(66.35 118.42) rotate(-90)"/><rect class="cls-1" x="70.21" y="15.98" width="44.52" height="22.22" transform="translate(65.38 119.56) rotate(-90)"/><rect class="cls-1" x="85.15" y="6.34" width="5.17" height="7.29" transform="translate(77.75 97.72) rotate(-90)"/><rect class="cls-1" x="94.67" y="6.34" width="5.17" height="7.29" transform="translate(87.28 107.24) rotate(-90)"/><rect class="cls-1" x="79.89" y="18.66" width="15.69" height="7.29" transform="translate(65.43 110.04) rotate(-90)"/><rect class="cls-1" x="89.42" y="18.66" width="15.69" height="7.29" transform="translate(74.96 119.56) rotate(-90)"/><rect class="cls-1" x="79.89" y="36.12" width="15.69" height="7.29" transform="translate(47.96 127.5) rotate(-90)"/><rect class="cls-1" x="89.42" y="36.12" width="15.69" height="7.29" transform="translate(57.49 137.03) rotate(-90)"/><circle class="cls-1" cx="101.1" cy="27.81" r="1.36"/><rect class="cls-1" x="3.44" y="12.83" width="46.84" height="26.62" transform="translate(0.71 53) rotate(-90)"/><rect class="cls-2" x="4.59" y="16.04" width="44.72" height="22.33" transform="translate(-0.25 54.15) rotate(-90)"/><g class="cls-3"><rect class="cls-1" x="7.61" y="-8.66" width="36.96" height="68.08"/><polygon class="cls-1" points="24.41 0.68 24.41 45.4 15.79 49.34 15.79 4.62 24.41 0.68"/><polygon class="cls-1" points="19.67 5.42 19.67 10.61 16.84 11.91 16.84 6.71 19.67 5.42"/><polygon class="cls-1" points="23.37 3.73 23.37 8.93 20.54 10.22 20.54 5.02 23.37 3.73"/><polygon class="cls-1" points="19.67 12.51 19.67 28.27 16.84 29.57 16.84 13.81 19.67 12.51"/><polygon class="cls-1" points="23.37 10.83 23.37 26.59 20.54 27.88 20.54 12.12 23.37 10.83"/><polygon class="cls-1" points="19.67 30.06 19.67 45.82 16.84 47.11 16.84 31.35 19.67 30.06"/><polygon class="cls-1" points="23.37 28.37 23.37 44.13 20.54 45.43 20.54 29.67 23.37 28.37"/></g><rect class="cls-4" x="4.59" y="16.04" width="44.72" height="22.33" transform="translate(-0.25 54.15) rotate(-90)"/><rect class="cls-1" x="36.35" y="79.58" width="46.84" height="26.62" transform="translate(-33.12 152.66) rotate(-90)"/><rect class="cls-2" x="37.5" y="82.78" width="44.72" height="22.33" transform="translate(-34.08 153.81) rotate(-90)"/><g class="cls-5"><rect class="cls-1" x="40.52" y="58.08" width="36.96" height="68.08"/><polygon class="cls-1" points="57.32 67.42 57.32 112.15 48.7 116.08 48.7 71.36 57.32 67.42"/><polygon class="cls-1" points="52.59 72.16 52.59 77.36 49.76 78.65 49.76 73.45 52.59 72.16"/><polygon class="cls-1" points="56.28 70.47 56.28 75.67 53.45 76.96 53.45 71.77 56.28 70.47"/><polygon class="cls-1" points="52.59 79.26 52.59 95.02 49.76 96.31 49.76 80.55 52.59 79.26"/><polygon class="cls-1" points="56.28 77.57 56.28 93.33 53.45 94.62 53.45 78.86 56.28 77.57"/><polygon class="cls-1" points="52.59 96.81 52.59 112.56 49.76 113.86 49.76 98.1 52.59 96.81"/><polygon class="cls-1" points="56.28 95.12 56.28 110.88 53.45 112.17 53.45 96.41 56.28 95.12"/></g><rect class="cls-4" x="37.5" y="82.78" width="44.72" height="22.33" transform="translate(-34.08 153.81) rotate(-90)"/><rect class="cls-1" x="112.96" y="79.58" width="46.84" height="26.62" transform="translate(43.49 229.27) rotate(-90)"/><rect class="cls-2" x="114.11" y="82.78" width="44.72" height="22.33" transform="translate(42.52 230.42) rotate(-90)"/><g class="cls-6"><rect class="cls-1" x="117.13" y="58.08" width="36.96" height="68.08"/><polygon class="cls-1" points="133.93 67.42 133.93 112.15 125.31 116.08 125.31 71.36 133.93 67.42"/><polygon class="cls-1" points="129.19 72.16 129.19 77.36 126.36 78.65 126.36 73.45 129.19 72.16"/><polygon class="cls-1" points="132.89 70.47 132.89 75.67 130.06 76.96 130.06 71.77 132.89 70.47"/><polygon class="cls-1" points="129.19 79.26 129.19 95.02 126.36 96.31 126.36 80.55 129.19 79.26"/><polygon class="cls-1" points="132.89 77.57 132.89 93.33 130.06 94.62 130.06 78.86 132.89 77.57"/><polygon class="cls-1" points="129.19 96.81 129.19 112.56 126.36 113.86 126.36 98.1 129.19 96.81"/><polygon class="cls-1" points="132.89 95.12 132.89 110.88 130.06 112.17 130.06 96.41 132.89 95.12"/></g><rect class="cls-4" x="114.11" y="82.78" width="44.72" height="22.33" transform="translate(42.52 230.42) rotate(-90)"/><rect class="cls-1" x="155" y="13.18" width="46.84" height="26.62" transform="translate(151.94 204.92) rotate(-90)"/><rect class="cls-2" x="156.16" y="16.38" width="44.72" height="22.33" transform="translate(150.97 206.07) rotate(-90)"/><g class="cls-7"><rect class="cls-1" x="159.18" y="-8.32" width="36.96" height="68.08"/><polygon class="cls-1" points="175.97 1.02 175.97 45.75 167.35 49.69 167.35 4.96 175.97 1.02"/><polygon class="cls-1" points="171.24 5.76 171.24 10.96 168.41 12.25 168.41 7.05 171.24 5.76"/><polygon class="cls-1" points="174.94 4.08 174.94 9.27 172.11 10.56 172.11 5.37 174.94 4.08"/><polygon class="cls-1" points="171.24 12.86 171.24 28.62 168.41 29.91 168.41 14.15 171.24 12.86"/><polygon class="cls-1" points="174.94 11.17 174.94 26.93 172.11 28.22 172.11 12.46 174.94 11.17"/><polygon class="cls-1" points="171.24 30.41 171.24 46.17 168.41 47.46 168.41 31.7 171.24 30.41"/><polygon class="cls-1" points="174.94 28.72 174.94 44.48 172.11 45.77 172.11 30.01 174.94 28.72"/></g><rect class="cls-4" x="156.16" y="16.38" width="44.72" height="22.33" transform="translate(150.97 206.07) rotate(-90)"/><polyline class="cls-8" points="55.48 87.08 54.76 89.52 55.71 90.7 57.74 90.7 57.36 86.98"/><path class="cls-9" d="M54.44,119.78a23.84,23.84,0,0,1-4.43.1c-.28-.16-.13-.61.12-.81.65-.53,2.92-.6,3-1.32l1.47-.11s.2,1.21.22,1.68A.47.47,0,0,1,54.44,119.78Z"/><path class="cls-9" d="M57.69,120a25.58,25.58,0,0,0,4.42.1c.28-.16.13-.61-.12-.82-.64-.53-2.91-.6-3-1.31l-1.47-.11s-.21,1.21-.22,1.68A.47.47,0,0,0,57.69,120Z"/><path class="cls-8" d="M58.16,85a1.64,1.64,0,0,0-3.26-.26l-.13,1.64a1.64,1.64,0,1,0,3.26.26Z"/><path class="cls-9" d="M52.69,100.51s-.51,6.43-.51,8.62.51,8.68.51,8.68l2.15.19s1.29-9.81,1.55-12.71c.34,3.15,1,3.88,1,12.71h2.29s.34-7.76.34-11.1a44.81,44.81,0,0,0-.75-7.22"/><path class="cls-10" d="M54.87,88.3s-1.95.64-2.33.86a2.49,2.49,0,0,0-.93,1.49c-.18.68-.64,2.26-.64,2.26l1.72.7L53,93.1l-.31,7.25a9.29,9.29,0,0,0,3.48,0l3.52-.63.3-6.81,1.38-.8s-.72-2.78-1.51-3-2.27-.63-2.27-.63l-1.29,1.29Z"/><path class="cls-8" d="M51.21,93a2.43,2.43,0,0,0-.59.94,35.82,35.82,0,0,0-3.89-.82c-.51-.51-2.48-.66-2.48.07a1.47,1.47,0,0,0,2.23.86A16.59,16.59,0,0,0,51,95.78c.84,0,1.72-2.17,1.72-2.17Z"/><circle class="cls-11" cx="62.32" cy="89.78" r="1.15"/><path class="cls-11" d="M59.92,90.13s.45-2.13.9-2.13-.1,2.36-.1,2.36"/><path class="cls-12" d="M59.14,89.85s.28-2.16.71-2.19.06,2.37.06,2.37"/><path class="cls-11" d="M60.76,90.69s.45-2.13.9-2.13-.1,2.36-.1,2.36"/><path class="cls-11" d="M59.43,89.63s.45-.7-.07-.7a.88.88,0,0,0-.75.37s-.8-.71-.94-.32a1.14,1.14,0,0,0,.1.82s-1.31-.08-1.31.22.76.29.76.29,0,.9.27.9"/><circle class="cls-11" cx="59.24" cy="90.89" r="1.15"/><path class="cls-10" d="M57.36,90.93v8.13a12.92,12.92,0,0,0,4.65,1,4.88,4.88,0,0,0,2.27-1.11s.11-7-.93-8.24C63.45,90.8,57.36,90.93,57.36,90.93Z"/><path class="cls-8" d="M64.32,94.09c-.54-.54-2.28-.09-2.37.7a1.09,1.09,0,0,0,1.73.91C64.56,95.2,64.57,94.34,64.32,94.09Z"/><path class="cls-8" d="M38.75,106a11.23,11.23,0,0,0-.5,2.27,9.1,9.1,0,0,0-.79,3.83c0,1.69.13,4.81-.18,5.34s-3,1.16-3,1.74,1.44,1,2.23.58,2.4-.81,2.4-1.61a9.47,9.47,0,0,1,0-2.27c.18-1.11,1.78-4.76,1-6.45l.87-1.52"/><path class="cls-13" d="M34.89,118.39c-1.3.75-.83,1.44-.83,1.44a6,6,0,0,0,3.19-.21c1.82-.58,2.15-.81,1.82-1.83-.11.1-1.44.6-2.13-.09A10.8,10.8,0,0,0,34.89,118.39Z"/><path class="cls-8" d="M42.49,108.13a2.14,2.14,0,0,0,.67,2.22c0,.14,1.56,5.05,1.56,6.43s-1.56,2.39-1.56,2.94,1.14.74,1.56.32,2-1.61,2-2.34-.51-1.24-.69-2.66.41-3.91-.87-5.51a4.15,4.15,0,0,0-.25-1.4"/><path class="cls-8" d="M44.6,93.42H42.49s-.44-2.14-.44-2.24a15.47,15.47,0,0,1-2.58,1.69l-.91-1.62,1.15-1s1.88-1.88,2.55-1.88a3.9,3.9,0,0,1,1.54.5l.66-1.15,3.39.3L48,92"/><path class="cls-8" d="M42.81,86.62A1.65,1.65,0,0,1,46,85.81c.07.29.3,1.24.38,1.53a1.65,1.65,0,0,1-3.19.82C43.12,87.87,42.89,86.92,42.81,86.62Z"/><path class="cls-8" d="M46.8,86.13A1.85,1.85,0,0,1,49,87.74c.19,1.28-.56,2,.6,2.67-1.23.71-3.46.19-3.23-3"/><path class="cls-8" d="M42.68,85.27a3.48,3.48,0,0,0,3.7,2.07.94.94,0,0,0,.77-.36s.53-2.68-1.42-3.19S42.68,85.27,42.68,85.27Z"/><path class="cls-9" d="M42.68,88.45s-.44,3.85.81,4,4.26-1.8,4.26-1.8-1.82,2.07-2,2.38,2.14,1,2.14,1a11.92,11.92,0,0,1-1.46,3.82c0-.07,2.49,2.88,3.85,9.87-1.43,1.43-8.8,2.25-12-.51C37.87,104,41.45,95.6,41.45,95.6s-1.2-2.65.42-4.27A8.47,8.47,0,0,1,42.68,88.45Z"/><path class="cls-13" d="M39.8,94.12s-1.69.7-1.58.6A2.17,2.17,0,0,1,36,92.5a3.48,3.48,0,0,1,.35-1.81l2-1.15s3.18,3.16,3.18,4.62a4.14,4.14,0,0,1-1.15,2.6l-2-1.82"/><path class="cls-8" d="M36.44,93.13l1-.42.39.08h.09s1.39-1.62,1.62-1.62,1.17.41.6,1-2.05,1.94-2.94,1.94S36.44,93.13,36.44,93.13Z"/><polyline class="cls-13" points="39.95 96.43 41.44 99.18 42.76 98.5 42.28 96 40.41 93.71"/><path class="cls-8" d="M41.66,99.26a5.1,5.1,0,0,1,.53,1.37c0,.37,1.6.74,2,.74s.68-.83-.11-1.05a2.16,2.16,0,0,1-1.38-1.78"/><path class="cls-8" d="M47.75,90.69a1.1,1.1,0,0,1,.74,1.19,4,4,0,0,1-1.21,2.93,29.07,29.07,0,0,1-3.41,2.7c-.47.27-.68,0-1.11-.28a21.84,21.84,0,0,1-3.24-3.47c-1.73-.34-1.63-1.48-1.12-2s1.44,0,2,1.33a11.66,11.66,0,0,0,3.45,2.19,8.74,8.74,0,0,1,2.32-2.49Z"/><path class="cls-8" d="M38.07,94.85c-.19.66.92,2.31,1.73,2.31s.3-2-.23-2A6.63,6.63,0,0,1,38.07,94.85Z"/><path class="cls-13" d="M46.58,116.87s-1.1,1.3-2.12.92A8,8,0,0,0,43,119.86c-.17.64,1,.88,1.8.41s2-1.49,2-2.3A2.29,2.29,0,0,0,46.58,116.87Z"/><path class="cls-8" d="M35.86,88.82a1.41,1.41,0,1,1,2.73-.69c.07.24.14.55.2.8a1.41,1.41,0,1,1-2.73.7Z"/><path class="cls-8" d="M177.73,44.33s.42,5.24.42,7.06a13.64,13.64,0,0,0,.28,1.38c0,.38-2.44.69-3.41.91s-1.21-.35-.63-.61,2-.75,2.27-1.59-1.78-7.69-1.78-7.69"/><path class="cls-9" d="M178.38,52.17a.9.9,0,0,1,.29.84c0,.12-4.43.85-4.43.85s-.53-.76.09-1,2.12-1,2.12-1Z"/><path class="cls-8" d="M181,45.35s-.35,2.66-.35,4.18c0,1.73.31,3,.22,3.6s-1,.09-2.17.09-1.1-1-.45-1.21.71-.9.71-2.34-.7-4.58-.7-4.9"/><path class="cls-9" d="M180.82,52.53a.87.87,0,0,1,.06.88c0,.11-4.29-.29-4.29-.29s-.32-.87.34-.95a7,7,0,0,0,1.66-.56Z"/><polyline class="cls-8" points="177.75 23.54 177.84 26.49 180.2 25.43 178.97 21.87"/><path class="cls-8" d="M175.7,22a1.74,1.74,0,1,1,3-1.77l.89,1.5a1.74,1.74,0,0,1-3,1.77Z"/><path class="cls-8" d="M175.37,20.5a.72.72,0,0,1-.39-.31c-.14-.24-.21-1.2.58-1.38s.68-.74,1.51-.74,1.52.06,1.9.72,1.07.44,1.56,1S181,21.3,182,21.54s.9,1.5.32,1.66-.47,1-1.17,1a2.14,2.14,0,0,1-1.72-1.24c-.41-.69-1-.51-1.11-1.27a1.12,1.12,0,0,0-1.05-1.09c-.42,0-.53-.63-.9-.47S175.92,20.58,175.37,20.5Z"/><path class="cls-9" d="M179.28,27.14l.38,2.42A8.5,8.5,0,0,1,182,30c.25-1.25,1-3.51,0-4.85s-1.87-1.36-2.37-1.05a8.69,8.69,0,0,0-1.38,1.52l-.4-1a20,20,0,0,0-1.45,3c-.41,1.25-.32,5-.32,6.69s-1.63,6.67-1.84,9.77c0,.27,3.57,1.2,7.57.84a31.56,31.56,0,0,0-.25-10.43,21.57,21.57,0,0,1-.26-2.24"/><polygon class="cls-14" points="177.73 29.1 175.63 30.65 170.1 26.21 172.31 24.36 177.73 29.1"/><path class="cls-8" d="M180,29.58v.36a21.8,21.8,0,0,0-2.87-2.38s-.78-1.35-1.6-1.35-1.1.45-.65,1.22a2.87,2.87,0,0,0,1.75,1,22.76,22.76,0,0,0,2.73,3.25c.95.75,1.5.87,2.07.46s.29-2.27.29-2.27A6.53,6.53,0,0,0,180,29.58Z"/><path class="cls-10" d="M130.08,118.07a.84.84,0,0,0,0,.9h5.86c.69-.69-1.49-1.62-2.34-1.79s-1.12-.26-1.12-.26"/><path class="cls-10" d="M135.94,116.92a22.64,22.64,0,0,1,2.53.67c.72.29,1.26.89,1,1.38h-6.15a4.19,4.19,0,0,1,0-1.62"/><path class="cls-10" d="M137.4,99.94s-1.71,6.61-2.61,9.81c-1,3.62-1.92,6.91-1.92,6.91l-3.06,1.41,1.36-13.59"/><path class="cls-10" d="M135.25,103.74a37.76,37.76,0,0,1,.28,4.42c0,2.32.41,8.63.41,8.63l-2.79,1.28s-1.52-8.07-2.26-10.83-1.08-4.8-1.08-4.8a8.37,8.37,0,0,1-.8-4l4.86-4.64,3.53,5.72"/><path class="cls-8" d="M142.78,95.88a3.22,3.22,0,0,1,2,2.05c0,.55-1.35,1.07-2,.38a2.88,2.88,0,0,1-.8-1.52"/><path class="cls-9" d="M134.85,87.14l1.78,1c1.15.66,3.65,5,3.65,5l2.6,2.6-1.18,1.34s-2-1.53-2.6-2.15l-1.22-1.22"/><path class="cls-9" d="M137.4,91.05s1.36,5.09,0,8.89c0,.18-3.63-2.09-5.72-2.09s-2.67.62-2.67.62V95.13l.51-5.13,4.78-3.55"/><path class="cls-8" d="M132,98.05a2.59,2.59,0,0,1,1.29.75c-.09-.09-.48,1.58-1.69,1.74a2.38,2.38,0,0,1-.56-1.34"/><path class="cls-8" d="M132.06,84.27a1.89,1.89,0,0,1,3.73-.55c.05.34.16,1.23.21,1.57a1.89,1.89,0,1,1-3.73.55C132.22,85.5,132.11,84.61,132.06,84.27Z"/><path class="cls-8" d="M134.1,82.94a1.55,1.55,0,0,1-.77,1.28c-.78.45-1.17.32-1.17.32s.58,2-.73,2.84a18.5,18.5,0,0,1-1.78,1.11c-.35-.47-.11-1.65.2-2.39a7.12,7.12,0,0,1,1.11-2c-.28-2.19,2.4-3,3.5-2.44s1.1,1.3,1.1,1.3A3.17,3.17,0,0,1,134.1,82.94Z"/><path class="cls-9" d="M130.76,92,129,94.45a23.34,23.34,0,0,0,3,3.42l-1,1.45a22.12,22.12,0,0,1-4.08-2.83c-1.36-1.36-.91-2.6-.17-4.53s1.47-3.68,2.89-4.36a27.47,27.47,0,0,1,2.81-1.15,2.07,2.07,0,0,0,1.45,1,1.72,1.72,0,0,0,1-.15"/><path class="cls-8" d="M150.09,85.15c0-.32.11-2.16.13-2.47.07-1,1.09-1.11,2-1a1.76,1.76,0,0,1,1.39,2c0,.32-.1,1.41-.12,1.72a2.05,2.05,0,0,1-.09.43l.27,1.37-2.13,1.07-.17-1.32A1.72,1.72,0,0,1,150.09,85.15Z"/><path class="cls-9" d="M154.47,116.57a3.06,3.06,0,0,1,.12,2.37h-4.75s-.12-1.08.61-1.26a18.31,18.31,0,0,0,2.05-.76"/><polyline class="cls-9" points="152.46 102.11 152.06 116.56 155.09 116.82"/><path class="cls-9" d="M157.1,116.57a3.06,3.06,0,0,1,.12,2.37h-4.76s-.11-1.08.61-1.26a18.31,18.31,0,0,0,2.05-.76"/><path class="cls-9" d="M155.94,96.24l1.21,1.18a5.44,5.44,0,0,1,.31,4c-.27,1.16,0,15.35,0,15.35h-2.78a96.94,96.94,0,0,0-1.18-9.84c-.66-2.88-1.66-8.35-1.66-8.35"/><path class="cls-10" d="M151.07,88.47l.06-.52,2.57-1.69.44,1.16h0a3,3,0,0,1,1,1.36,33.47,33.47,0,0,1,2.18,9l-5.26,1.33C151.33,98.33,149.94,89.6,151.07,88.47Z"/><polyline class="cls-9" points="150.96 88.97 152.29 96.39 151.55 97.56 150.57 96.65 150.83 88.92"/><path class="cls-10" d="M154,91.18a10.64,10.64,0,0,1-2.62,3.21,30.87,30.87,0,0,1-5.13,3.2l-1-1.61a52.42,52.42,0,0,0,4.45-3.43c.27-.38,1-2.37,2-3.28"/><path class="cls-9" d="M150.61,88.67c-.09.47,0,.56.18.6s.31-.12.39-.49S150.7,88.19,150.61,88.67Z"/><path class="cls-8" d="M152.19,82.62a5.4,5.4,0,0,1-1.7,0c-.75-.16-.78-1.48,1-1.48s3,.52,2.73,2.64c-.2,1.9-.72,1.9-.72,1.9a10.19,10.19,0,0,0-.44-2.22Z"/><path class="cls-8" d="M146.22,97.41c-2.62,1.62-3,.16-2.59-.71.24-.47,1.91-.59,1.91-.59Z"/><path class="cls-9" d="M86.85,22.32s6-3.65,6.37-4.05a13,13,0,0,1,1.15,1.18,19.64,19.64,0,0,1-4.51,5.05"/><path class="cls-8" d="M93.59,18.39a4.11,4.11,0,0,0,.5-1.28.94.94,0,0,1,1.66-.48c.51.7-1.67,2.43-1.67,2.43"/><polyline class="cls-8" points="90.51 20.53 90.13 23.29 88.39 22.93 88.39 19.72"/><path class="cls-8" d="M90.93,18.15a1.77,1.77,0,0,0-3.48.7c.06.32.15,1,.22,1.37a1.77,1.77,0,1,0,3.48-.7C91.09,19.2,91,18.47,90.93,18.15Z"/><path class="cls-9" d="M88.28,46.73a15,15,0,0,0-.22,2.52,34.92,34.92,0,0,0,3.58,0c.68,0,1.26,0,1.26,0S93,48.11,92.1,48a2,2,0,0,1-1.73-.93"/><path class="cls-9" d="M85.62,51.07a7.07,7.07,0,0,0-.28,2.16c0,.12,3.76,0,4.63,0s1.63-.06,1.63-.06a1.34,1.34,0,0,0-1.1-1.29c-1.08-.17-1.69-.05-2.18-.81"/><path class="cls-9" d="M87.6,20.93l3,1.78-.25.73a3.76,3.76,0,0,1,.86,2c.34,1.65.73,6.16,0,7H86s-.3-5.13-.36-6.73,0-3.12,1.52-4Z"/><path class="cls-10" d="M90.84,36.11l-2,8.38-.33,6.58H85.34C85.34,49,87,36.71,87,36.77c-1.22-1.11-1-4.31-1-4.31h5.28v1.46s2.72,4.47,3,4.94.1,1-.44,2.23L91.2,47.3l-2.43-.53.09-1.93L91.2,40l-.79-.67"/><path class="cls-8" d="M89.39,35.38s-.26.77,0,.84a3.2,3.2,0,0,0,1.24.15c.4-.07.5-1,0-1.68"/><path class="cls-9" d="M86.7,24.5s-.43,4.17-.43,4.8,2.91,6,2.91,6l1.45-.57a17.52,17.52,0,0,1-1.43-4.9,16.64,16.64,0,0,1,1-4.41"/><path class="cls-8" d="M88.59,17.21a11.74,11.74,0,0,0,1.88.2c.47,0,.46,1,.46,1a2.18,2.18,0,0,0-.28-2c-.54-.71-2.33-.72-2.61.18-.72-.12-1.4,1.25-.7,2A2.87,2.87,0,0,0,88.59,17.21Z"/><path class="cls-15" d="M22.81,53.36c-.59.91-2.5.77-2.93,1.18s-.3.85,1.2.93a16.28,16.28,0,0,0,4.09-.18,7,7,0,0,0,0-1.36"/><path class="cls-8" d="M25.46,22a8.1,8.1,0,0,0,1,1.81A23,23,0,0,0,24.83,26l-1.27-.59-.1-2.89"/><polyline class="cls-8" points="7.09 22.75 6.7 25.13 8.54 26.45 9.04 26.16 9.32 23.23"/><path class="cls-8" d="M12.36,44.48l-.09.89A2.31,2.31,0,0,1,11.9,47s-.05,3.59-.08,4.78a5.81,5.81,0,0,0,.64,2.45V55l-1.41.5-.64-.44a10.76,10.76,0,0,0-.33-3.46A7.86,7.86,0,0,1,10,46.89l-.19-2.4"/><path class="cls-9" d="M10.18,54.59a3.55,3.55,0,0,0,0,1.64s4,.45,5.53-.29c.24-.83-1.66-.92-2.13-1.15a12.88,12.88,0,0,1-1.36-.9s-.06,1-.62,1A4.48,4.48,0,0,1,10.18,54.59Z"/><path class="cls-8" d="M6,43.91a8.14,8.14,0,0,0,.15,2.32A12.4,12.4,0,0,0,6,48.81c0,2,.39,3.36.42,5.95,0-.14-.33.52-.11.74a7.5,7.5,0,0,0,1.5,0c.19-.19,0-1,0-1a42.38,42.38,0,0,0,.69-5.79c0-2.11,0-2.34,0-2.34a10.41,10.41,0,0,0,0-2.19"/><path class="cls-9" d="M6.22,56.36C5.78,56.4,6,55,7.11,55s1.44,1.37,1,1.37S6.66,56.31,6.22,56.36Z"/><path class="cls-10" d="M5.6,39.37a33.76,33.76,0,0,0,.23,5.32,10.8,10.8,0,0,0,2.7.1l.77-4.14.42,4.19h2.73A47.19,47.19,0,0,0,13,38.92"/><path class="cls-8" d="M17.35,32.38s-1.12-.66-1.32-.54-.82,1.25-.53,1.54a2.39,2.39,0,0,0,1.85.15Z"/><path class="cls-8" d="M13.87,31.35a3.89,3.89,0,0,1,2.3.19c.68.51.58,2.23,0,2.15a13,13,0,0,1-2.62-.85"/><path class="cls-16" d="M26.55,54.66c-.56.91-2.3.78-2.71,1.18s-.28.86,1.15.93a14.82,14.82,0,0,0,3.9-.18,7,7,0,0,0,0-1.36"/><path class="cls-10" d="M25.8,46.76l-.58,7.57-2.63-.9a13.44,13.44,0,0,0,.24-2c.1-1.46-1.07-7.4-1-10.81s.26-5.09.26-5.09l4.85-1L28.75,36a3,3,0,0,1,.51,1.7,21.05,21.05,0,0,1-.37,2.92s.51,4.9.51,8.62a28.5,28.5,0,0,1-.53,6l-2.58-.6s.19-3.07.07-5.38-2.29-8.35-2.29-8.35"/><path class="cls-17" d="M6.08,22a1.69,1.69,0,0,0-1.39,1.09c-.29,1,1.2,2.7-.52,3.52a2.27,2.27,0,0,0,2-3c-.25-.52.19-1.29.19-1.29"/><path class="cls-8" d="M25.6,20.12a1.74,1.74,0,1,0-3.46.27l.14,1.73a1.74,1.74,0,0,0,3.46-.27Z"/><path class="cls-8" d="M10.36,20.88a1.64,1.64,0,0,0-3.26.26l.13,1.63a1.64,1.64,0,1,0,3.26-.26Z"/><path class="cls-9" d="M27.31,28.77,28,33,27.3,38.3l1.93.51a51.14,51.14,0,0,0,1.32-5.71c0-1,.17-5.43-.64-6.62a21.46,21.46,0,0,0-3.48-3.21l-2.07,1.9-.73-.64s-1.74,1.4-2,1.71-.42,2.8-.42,4a15.63,15.63,0,0,1-3.82,1.87v1.65s3.31-.23,4.38-.85l.12-1.94s-.48,3.89.27,4.38l5.59-.15L28,33l-.6-3.6"/><path class="cls-8" d="M27.39,38.31A10.19,10.19,0,0,0,27,40.67c.11.45.69,1.33,1.62.25.49-.5.31-2.2.31-2.2Z"/><path class="cls-9" d="M6.92,24l1.79,1.25.48-.48a5.09,5.09,0,0,1,1.52.73c.37.37,1,2.42,1.46,5.12.2.59,1.16,9.63,1.16,9.63s-2.75,1.17-8.16.62a25.85,25.85,0,0,1,.83-8S4.5,29.21,4.79,27,6.42,24.5,6.42,24.5Z"/><path class="cls-17" d="M9.54,20a7.27,7.27,0,0,1-.67,1.63A4.1,4.1,0,0,1,7.05,23.2a3.83,3.83,0,0,1-.89-2.81c.13-1.27,1.92-2.19,3.26-1.63a1.44,1.44,0,0,1,.94,2.12C10.17,20,9.54,20,9.54,20Z"/><path class="cls-8" d="M15.21,32.47c-.42,0-.68.81-.14,1.22s1.39.17,1.1-.25S15.61,32.47,15.21,32.47Z"/><path class="cls-9" d="M5.46,28.67a35.14,35.14,0,0,0,3.43,3.8,27.68,27.68,0,0,0,4.62.59l.41-1.94-4.23-1.2L7.62,27"/><path class="cls-18" d="M21.2,18.69A4.71,4.71,0,0,1,23,18.17s-1.61-1-1.84-1.08a3.52,3.52,0,0,1,2,.26c0-.08-1-1.48-1-1.48s1.4.73,1.68,1.28c0,0-.42-2.14-.42-2.14a4.12,4.12,0,0,1,1,1.86c.5-.85.94-1.52.94-1.52A7.88,7.88,0,0,0,25.13,17c-.11-.11,1.35-1,1.35-1a7.21,7.21,0,0,0-.76,1.53s1.51-.88,2.29-.64c-.2.11-2,1.31-2,1.31s1.63-.59,2.31-.15l-2,.7s1.41-.38,1.95.28c0-.05-1.92.3-1.92.3s2.16.05,2.33,1.14a8.89,8.89,0,0,0-2.34-.68s1.78,1.1,1.78,2.11A9.88,9.88,0,0,0,26,20.23c0,.09,1.51,1.17,1.3,2.43,0,0-1.05-1.55-1.4-1.9,0,.17.49,1.65.62,2.29a3.76,3.76,0,0,1-1.19-2.87s-1.86-.5-2.26-1.31A6.73,6.73,0,0,0,21.2,18.69Z"/><path class="cls-19" d="M21.2,18.69A4.71,4.71,0,0,1,23,18.17s-1.61-1-1.84-1.08a3.52,3.52,0,0,1,2,.26c0-.08-1-1.48-1-1.48s1.4.73,1.68,1.28c0,0-.42-2.14-.42-2.14a4.12,4.12,0,0,1,1,1.86c.5-.85.94-1.52.94-1.52A7.88,7.88,0,0,0,25.13,17c-.11-.11,1.35-1,1.35-1a7.21,7.21,0,0,0-.76,1.53s1.51-.88,2.29-.64c-.2.11-2,1.31-2,1.31s1.63-.59,2.31-.15l-2,.7s1.41-.38,1.95.28c0-.05-1.92.3-1.92.3s2.16.05,2.33,1.14a8.89,8.89,0,0,0-2.34-.68s1.78,1.1,1.78,2.11A9.88,9.88,0,0,0,26,20.23c0,.09,1.51,1.17,1.3,2.43,0,0-1.05-1.55-1.4-1.9,0,.17.49,1.65.62,2.29a3.76,3.76,0,0,1-1.19-2.87s-1.86-.5-2.26-1.31A6.73,6.73,0,0,0,21.2,18.69Z"/></svg>