<svg id="Layer_1" data-name="Layer 1" xmlns="http://www.w3.org/2000/svg" viewBox="0 0 78 58.19"><defs><style>.cls-1,.cls-4{fill:#f30;}.cls-1,.cls-2,.cls-3,.cls-4{stroke:#3e0443;stroke-linecap:round;stroke-linejoin:round;}.cls-1,.cls-2,.cls-3{stroke-width:0.5px;}.cls-2{fill:#793399;}.cls-3{fill:#e6e6e7;}.cls-4{stroke-width:0.58px;}</style></defs><title>electoral-endorsements</title><path class="cls-1" d="M74.56,15.5a2.09,2.09,0,0,1,0-1.7c.43-.74,1.5-1.08,1.76.16a1.91,1.91,0,0,1-.69,1.91"/><path class="cls-2" d="M67.08,18.07h2.14s.64,0,.64.45c-.06-.06,3.56.88,3.56.88l1-3.85,1.35.37s.1,4.7-.68,5.56-5.13.19-5.13.19l-.5,2.55L70,29.32H62.24l-.64-6.13-1.49,4.63.32,1.81-2-.31a2.81,2.81,0,0,1-.74-1.89c0-1.17,2.38-7.1,2.6-7.5A23.65,23.65,0,0,1,64,18"/><polygon class="cls-3" points="63.95 18.03 65.18 29.38 66.54 29.3 67.17 18.03 63.95 18.03"/><path class="cls-1" d="M67.55,15.44A1.69,1.69,0,0,0,64.2,15L64,16.71a1.69,1.69,0,1,0,3.35.4Z"/><path class="cls-1" d="M64,15.84l.55-.18.2-1.18a4.74,4.74,0,0,0,1.49.42,7.44,7.44,0,0,0,1.46-.16s.1-1.1-.67-1.11c-.84-1.07-2.57-.32-3,.42A2.48,2.48,0,0,0,64,15.84Z"/><line class="cls-2" x1="67.81" y1="21.57" x2="68.47" y2="21.57"/><path class="cls-2" d="M65.41,18.81l-.37.64a.63.63,0,0,0,.57.48c.45,0,.56-.56.56-.56l-.34-.56Z"/><polyline class="cls-2" points="65.38 19.79 64.83 26.33 65.09 28.63 65.91 29.72 66.6 28.54 66.76 26.14 65.89 19.79"/><polygon class="cls-2" points="59.22 29.63 60 55.51 70.37 55.51 71.15 29.63 59.22 29.63"/><rect class="cls-2" x="57.84" y="29.3" width="14.82" height="1.61"/><path class="cls-3" d="M68,30.33l-.64-3.28a1,1,0,0,0,.41-.79,1,1,0,1,0-1.2.94s.52,3,.58,3.29S68,30.67,68,30.33Z"/><path class="cls-3" d="M71.46,30.14,70.33,27a1,1,0,1,0-.75.26s1,2.85,1.07,3.16S71.58,30.47,71.46,30.14Z"/><path class="cls-3" d="M62.42,30.33l.64-3.28a1,1,0,0,1-.42-.79,1,1,0,1,1,1.21.94s-.52,3-.59,3.29S62.35,30.67,62.42,30.33Z"/><path class="cls-3" d="M58.9,30.14,60,27a1,1,0,1,1,.76.26s-1,2.85-1.08,3.16S58.79,30.47,58.9,30.14Z"/><path class="cls-3" d="M64.56,34.63a3.23,3.23,0,0,1,0,6.45Z"/><path class="cls-1" d="M48.71,18.22c-6.94-6.95-14.22,10.83-21.17,3.35L28,7.63c6.94,7,14.23-10.83,21.17-3.35C49,8.92,48.86,13.57,48.71,18.22Z"/><rect class="cls-2" x="34.15" y="50.78" width="7.19" height="0.37" transform="translate(75.48 101.93) rotate(-180)"/><path class="cls-1" d="M34.56,36.73A27.62,27.62,0,0,0,34.42,40c.06,1.34,0,3,0,3l1.33-.14a35.52,35.52,0,0,0,.84-6.59"/><path class="cls-1" d="M38.16,34.17a4.72,4.72,0,0,1,.1,1.95c-.31,2.74.25,5.88,0,7.57s1.44-1,1.44-1,1.11-4.79.57-6.83"/><polyline class="cls-3" points="36.16 44.25 36.12 42.69 34.17 42.69 34.25 44.18"/><path class="cls-3" d="M36.22,44.85c0-.74-.19-1.35-1.11-1.35S34,44.11,34,44.85a2.73,2.73,0,0,0,1.11.2A2.79,2.79,0,0,0,36.22,44.85Z"/><path class="cls-3" d="M38.23,43.13a3.67,3.67,0,0,0-.14,1.72s3.9.25,4.32,0,.48-1.1-.81-1.24a3.84,3.84,0,0,1-1.7-.69Z"/><path class="cls-1" d="M46.26,23.81l-.31.93,1.4.28a1.88,1.88,0,0,0,.9.82c.59.23,1-.05,1-.75S48.92,24,48.53,24a6.23,6.23,0,0,0-.75,0Z"/><path class="cls-2" d="M41,23.45a4.24,4.24,0,0,1,1.1.71c.85.64,5,1,5,1l.2-1.47-3.55-1.17s-1.85-3.68-3-4.32a10.43,10.43,0,0,1-1.51-1L37,16.56l-.8.3s-.34-2-.34-2.61-.07-5.36-.07-5.36H34.24A67.53,67.53,0,0,0,34,16.41c.2,1.73,1,5.23,1.22,6a3.1,3.1,0,0,0,.49,1v.64A8.47,8.47,0,0,0,34.15,27c-.94,3.14-1.13,9.8-1.13,9.8l9.57-.13s-.05-1.52,0-3.92-1.37-7.62-1.37-7.62l-.42-3.68.32,3.24"/><path class="cls-1" d="M34.35,8.89h1.42l0-1.43a1.86,1.86,0,0,0,.6-1.06c.1-.63-.27-1-.94-.79s-1,.54-.94.93a5.28,5.28,0,0,0,.17.73Z"/><polyline class="cls-3" points="35.84 23.45 40.88 23.73 40.95 24.55 35.72 24.26"/><polyline class="cls-1" points="37.53 15.51 37.1 16.69 39.03 17.76 39.27 15.96"/><path class="cls-1" d="M40,13.31a1.55,1.55,0,0,0-3.09,0l0,1.55A1.54,1.54,0,0,0,40,14.85Z"/><path class="cls-1" d="M40.1,13.37s.08,1.05-.08,1-.3-.93-.38-1.07a2,2,0,0,0-2.39-.09,5.23,5.23,0,0,0-.35,1c-.19-1.79.48-2.46,1.52-2.47A1.66,1.66,0,0,1,40.1,13.37Z"/><rect class="cls-2" x="35.42" y="50.04" width="10.36" height="1.63" transform="translate(-3.29 98.9) rotate(-98.99)"/><rect class="cls-2" x="29.24" y="50.04" width="10.36" height="1.63" transform="translate(-21.19 76.91) rotate(-81.01)"/><rect class="cls-2" x="32.56" y="44.96" width="10.36" height="1.63" transform="translate(75.48 91.55) rotate(-180)"/><rect class="cls-2" x="48.39" y="2.04" width="0.53" height="27.71" transform="translate(96.84 33.2) rotate(-178.34)"/><path class="cls-1" d="M48.69,23.79c.73,0,.84,2.28.18,2.23s-.76-.7-.74-1.24S48.47,23.8,48.69,23.79Z"/><path class="cls-4" d="M2.9,15.72l-.17-.6a4,4,0,0,1-1.17-1.35,1.07,1.07,0,0,1,1.15-1.62c.83.14,1,1.49,1.15,2.32,0,.16.31,1.37.31,1.37"/><path class="cls-2" d="M7.9,20.32l3.28-.61H12s2.86.24,3.76,1.1,1.95,8.44,1.95,8.44L15.88,31l-1.15-6.27.18,3.89H8.42a13.13,13.13,0,0,0-.57-3.33,4.47,4.47,0,0,1-.48-1.67A21.55,21.55,0,0,1,3.9,21.73C3.32,21.16,2.07,15,2.07,15l2-.61,1.22,5.4Z"/><polyline class="cls-3" points="10.08 19.24 10.07 21.81 11.59 25.13 13.45 21.9 12.57 19.52"/><path class="cls-1" d="M10.08,19.59l.08,1.55a1.1,1.1,0,0,0,1.16.81c1,0,1.53-.53,1.53-.92l-.51-2.74"/><polygon class="cls-2" points="5.55 29.25 6.33 55.13 16.7 55.13 17.48 29.25 5.55 29.25"/><rect class="cls-2" x="4.17" y="28.75" width="14.82" height="1.78"/><path class="cls-3" d="M14.53,29.82l-.64-3.27a1,1,0,0,0,.42-.79,1,1,0,1,0-1.94,0,1,1,0,0,0,.73.93s.52,3,.59,3.29S14.6,30.16,14.53,29.82Z"/><path class="cls-3" d="M18.05,29.63l-1.13-3.14a1,1,0,0,0,.28-.84,1,1,0,1,0-1,1.1s1,2.86,1.08,3.16S18.16,30,18.05,29.63Z"/><path class="cls-3" d="M9,29.82l.64-3.27a1,1,0,0,1-.41-.79,1,1,0,1,1,1.2.93s-.52,3-.59,3.29S8.93,30.16,9,29.82Z"/><path class="cls-3" d="M5.49,29.63l1.13-3.14a1,1,0,1,1,.75.26s-1,2.86-1.07,3.16S5.37,30,5.49,29.63Z"/><path class="cls-3" d="M12.22,41.08a3.23,3.23,0,0,1,0-6.45Z"/><path class="cls-1" d="M13.08,17a1.68,1.68,0,0,0-1.91-1.69,1.76,1.76,0,0,0-1.46,1.77l0,1.43a1.77,1.77,0,0,0,1.41,1.81,1.67,1.67,0,0,0,2-1.64Z"/><path class="cls-1" d="M8.39,19.75c.07-.88-.36-1.85,0-3C9,15.2,10,14.19,11.28,14.51c1-.4,1.94.36,2.43,1.57a7.83,7.83,0,0,1,.61,3.62c-.07.39.25,1.19.61.83.06,1-.49,1.64-1.29,1.56-1.3-.13-.79-1.93-.74-2.39a8.35,8.35,0,0,0-.17-2.77,3.68,3.68,0,0,0-1.19-1.62,3.61,3.61,0,0,1-1.51,1c-.25.09-.21,2.36-.21,2.95s.35,2.39-.8,2.55a1.31,1.31,0,0,1-1.65-1.34C7.92,20.46,8.35,20.2,8.39,19.75Z"/></svg>