<svg id="Layer_1" data-name="Layer 1" xmlns="http://www.w3.org/2000/svg" xmlns:xlink="http://www.w3.org/1999/xlink" viewBox="0 0 101 90"><defs><style>.cls-1,.cls-11,.cls-12,.cls-13,.cls-6{fill:none;}.cls-10,.cls-2{fill:#e6e6e7;}.cls-11,.cls-13,.cls-15,.cls-2,.cls-6,.cls-7,.cls-8{stroke:#3e0443;}.cls-11,.cls-12,.cls-13,.cls-15,.cls-17,.cls-2,.cls-6,.cls-7,.cls-8{stroke-linecap:round;stroke-linejoin:round;}.cls-12,.cls-15,.cls-2,.cls-6,.cls-7,.cls-8{stroke-width:0.5px;}.cls-3{clip-path:url(#clip-path);}.cls-4,.cls-7{fill:#f30;}.cls-5,.cls-8{fill:#793399;}.cls-15,.cls-9{fill:#fff;}.cls-11{stroke-width:1.5px;}.cls-12,.cls-17{stroke:#c2a3d1;}.cls-13{stroke-width:0.46px;}.cls-14{clip-path:url(#clip-path-2);}.cls-16{clip-path:url(#clip-path-3);}.cls-17{fill:#ddcce5;stroke-width:0.56px;}</style><clipPath id="clip-path"><polygon class="cls-1" points="16.84 29.5 2.53 37.76 2.53 23.45 16.84 15.18 16.84 29.5"/></clipPath><clipPath id="clip-path-2"><polygon class="cls-1" points="35.16 74.37 48.35 81.32 37.43 88.2 24.23 81.25 35.16 74.37"/></clipPath><clipPath id="clip-path-3"><rect class="cls-1" x="48.93" y="7.97" width="15.98" height="17.88"/></clipPath></defs><title>forming-a-caucus</title><rect class="cls-2" x="8.92" y="15.28" width="1.53" height="40.86"/><polygon class="cls-1" points="16.77 29.47 2.6 37.65 2.6 23.48 16.77 15.3 16.77 29.47"/><g class="cls-3"><polygon class="cls-4" points="14.68 7.09 -5.8 39.41 -6.96 38.92 13.52 6.61 14.68 7.09"/><polygon class="cls-5" points="15.85 7.59 -4.64 39.9 -5.8 39.41 14.68 7.09 15.85 7.59"/><polygon class="cls-4" points="17.01 8.08 -3.48 40.39 -4.64 39.9 15.85 7.59 17.01 8.08"/><polygon class="cls-5" points="18.17 8.57 -2.32 40.88 -3.48 40.39 17.01 8.08 18.17 8.57"/><polygon class="cls-4" points="19.33 9.06 -1.16 41.37 -2.32 40.88 18.17 8.57 19.33 9.06"/><polygon class="cls-5" points="20.49 9.55 0.01 41.86 -1.16 41.37 19.33 9.06 20.49 9.55"/><polygon class="cls-4" points="21.65 10.04 1.17 42.35 0.01 41.86 20.49 9.55 21.65 10.04"/><polygon class="cls-5" points="22.81 10.53 2.33 42.84 1.17 42.35 21.65 10.04 22.81 10.53"/><polygon class="cls-4" points="23.97 11.02 3.49 43.33 2.33 42.84 22.81 10.53 23.97 11.02"/><polygon class="cls-5" points="25.14 11.51 4.65 43.83 3.49 43.33 23.97 11.02 25.14 11.51"/><polygon class="cls-4" points="26.3 12 5.81 44.32 4.65 43.83 25.14 11.51 26.3 12"/><polygon class="cls-5" points="27.46 12.49 6.97 44.81 5.81 44.32 26.3 12 27.46 12.49"/><polygon class="cls-4" points="25.72 21.79 5.23 13.13 6.39 11.3 26.88 19.96 25.72 21.79"/><polygon class="cls-4" points="23.39 25.46 2.91 16.8 4.07 14.97 24.55 23.62 23.39 25.46"/><polygon class="cls-4" points="21.07 29.12 0.59 20.46 1.75 18.63 22.23 27.29 21.07 29.12"/><polygon class="cls-4" points="18.75 32.78 -1.74 24.12 -0.58 22.29 19.91 30.95 18.75 32.78"/><polygon class="cls-4" points="16.43 36.45 -4.06 27.79 -2.9 25.96 17.59 34.61 16.43 36.45"/><polygon class="cls-4" points="14.1 40.11 -6.38 31.45 -5.22 29.62 15.27 38.28 14.1 40.11"/></g><polygon class="cls-6" points="16.69 29.43 2.68 37.53 2.68 23.51 16.69 15.42 16.69 29.43"/><path class="cls-7" d="M22.63,54.23s.21,4,.08,4.73A3.42,3.42,0,0,1,21,60.87c-.55.21-.57.55.12.53s2.65-.07,3.23-.67a10.18,10.18,0,0,0-.17-1.83c0-.64.86-3.12.43-5"/><path class="cls-8" d="M21.7,60.24s.14.31.7.3a16.66,16.66,0,0,0,2-.34.51.51,0,0,1,0,.59,8.47,8.47,0,0,1-2,.64c-1.17.21-2.05.28-2.06-.16S21.7,60.24,21.7,60.24Z"/><path class="cls-7" d="M18.12,52.91s-.07,4-.24,4.73A3.47,3.47,0,0,1,16,59.42c-.55.17-.6.51.09.54s2.65.1,3.27-.45a9.72,9.72,0,0,0-.05-1.84c0-.63,1.08-3.05.77-4.92"/><path class="cls-8" d="M16.78,58.84s.12.32.68.35A15.85,15.85,0,0,0,19.52,59a.52.52,0,0,1,0,.6,8.11,8.11,0,0,1-2.08.49c-1.18.13-2.06.15-2-.29S16.78,58.84,16.78,58.84Z"/><path class="cls-7" d="M22,30.39a1.15,1.15,0,0,1,1.64.65c.44,1.23-.28,2.44.28,2.69s.8,0,.8,0,.25,1.23-1,1.15-2.26-1.61-2.26-1.61"/><path class="cls-8" d="M19.21,32.06l-2.29.82.71,2.1.65-.21a8.37,8.37,0,0,0-.62,1.93,6.82,6.82,0,0,0,.5,1.62l.08,4.38C18,45,17.4,54,17.4,54a28.87,28.87,0,0,0,7.45.63s-.55-5.88-.13-7.64a7.79,7.79,0,0,0-.18-5.36C24.7,38,24,33,23.47,32.15a1.68,1.68,0,0,0-1.28-.79"/><path class="cls-7" d="M21.27,38s-.66,1.93-1.13,2c-1.09.1-6.23-2.53-6.23-2.53s-1.45-1-1.05-1.74,2.27,0,2.28.74c.75-.17,4.28,1.76,4.28,1.76L20,37.05"/><path class="cls-2" d="M18.57,38.52c-.33,1.08-2.11,1.51-4,.94s-3.1-1.9-2.76-3c.2-.66,1.46.23,2.42.13.62-.06.81-1.3,1.54-1.08C17.66,36.09,18.9,37.43,18.57,38.52Z"/><polyline class="cls-8" points="19.77 35.3 19.27 37.32 21.72 38.16 22.92 35.99"/><path class="cls-7" d="M16.83,33.09h-.44l-2.18-2.36s.17-1.54-.54-1.66a1.06,1.06,0,1,0-.44,2.08c.49,1,2.1,3.53,2.72,3.68a3.47,3.47,0,0,0,1.55,0Z"/><path class="cls-7" d="M19.25,30.66l.36,1.75S18.78,33.53,19,34c1.1-.47,2.33-2.54,3.31-2.55-.33-.32-1.49-1.7-1.49-1.7"/><path class="cls-7" d="M20.66,27.84a1.7,1.7,0,1,0-3.4.06l0,1.7a1.7,1.7,0,1,0,3.4-.06Z"/><path class="cls-7" d="M21.94,30.36c-.53-.74.1-2.24-.39-3.69a2.25,2.25,0,0,0-4.18.35s1,2.55,2.43,3.21a3.5,3.5,0,0,0,2,.51"/><polygon class="cls-7" points="13.3 30.25 9.34 26.93 9.62 26.74 13.3 30.25"/><path class="cls-7" d="M9.81,26.85S9.93,26.3,9,26s-.73-.68-.73-.68A1.73,1.73,0,0,0,9.5,27.14"/><path class="cls-7" d="M96.69,22.86H95.27l0-1.44a1.86,1.86,0,0,1-.6-1.05c-.1-.63.27-1,1-.79s1,.54.93.93a4.92,4.92,0,0,1-.17.72Z"/><path class="cls-7" d="M96.05,41.18a5.25,5.25,0,0,1,0,3s1,4.3.76,5.68a30.35,30.35,0,0,1,.6,6,9.56,9.56,0,0,0-1.36.11s-2-5-1.91-6.48"/><path class="cls-7" d="M92.78,49.39a3.48,3.48,0,0,1,.19,2c-.2,1.22-.45,4.75-.45,4.75l-1.44.14s-1.11-4.38-.57-6.41"/><polygon class="cls-8" points="97.69 54.88 95.69 54.93 96.05 58.4 97.69 58.4 97.69 54.88"/><polygon class="cls-8" points="92.69 54.88 90.69 54.93 91.05 58.4 92.69 58.4 92.69 54.88"/><path class="cls-8" d="M95.79,59c0-.83.17-1.51,1-1.51s1,.68,1,1.51Z"/><path class="cls-8" d="M90.82,59c0-.83.17-1.51,1-1.51s1,.68,1,1.51Z"/><path class="cls-7" d="M94.31,28.39s1,.73.58,1.54c-1,1.8-2.74-.76-2.74-.76"/><path class="cls-8" d="M91.78,31.19s-1,.71-1.52,1-.64.95-.84,1.66S88.61,37,88.61,37a15.91,15.91,0,0,1-3.45-.64,15.13,15.13,0,0,0,0,1.65,16.63,16.63,0,0,0,4,1s.81-.44.81-.44l.64-4.08-.74,4.52s-1,5.26-1.36,7.63a9.43,9.43,0,0,0,0,3.91l10.81-1.31s-1.44-5.22-2.38-8.35A13.63,13.63,0,0,0,95.68,38l.42-1.64c.2-.77.77-4.28,1-6a70.11,70.11,0,0,0-.27-7.52H95.22s-.07,4.75-.07,5.36-.34,2.61-.34,2.61l-.8-.3"/><rect class="cls-8" x="84.5" y="20.31" width="0.77" height="28.25" transform="translate(171.78 63.39) rotate(176.35)"/><path class="cls-7" d="M85.45,35.34c.45,0,.7.43.52,1.29s-1,.31-1.38.71-.66-1-.26-1.57A1.22,1.22,0,0,1,85.45,35.34Z"/><polyline class="cls-7" points="93.51 29.48 93.94 30.48 92.01 31.73 91.78 29.93"/><path class="cls-7" d="M91.19,27.41a1.48,1.48,0,1,1,3,.05l0,1.47a1.48,1.48,0,0,1-3-.05Z"/><rect class="cls-4" x="78.29" y="15.48" width="3.62" height="3.62" transform="translate(-0.85 4.56) rotate(-3.25)"/><rect class="cls-9" x="81.91" y="15.27" width="3.62" height="3.62" transform="translate(-0.83 4.77) rotate(-3.25)"/><rect class="cls-9" x="78.49" y="19.09" width="3.62" height="3.62" transform="translate(-1.05 4.58) rotate(-3.25)"/><rect class="cls-4" x="82.11" y="18.89" width="3.62" height="3.62" transform="translate(-1.04 4.78) rotate(-3.25)"/><rect class="cls-4" x="85.52" y="15.07" width="3.62" height="3.62" transform="translate(-0.82 4.97) rotate(-3.25)"/><rect class="cls-9" x="85.73" y="18.68" width="3.62" height="3.62" transform="translate(-1.02 4.99) rotate(-3.25)"/><rect class="cls-4" x="78.7" y="22.71" width="3.62" height="3.62" transform="translate(-1.26 4.6) rotate(-3.25)"/><rect class="cls-9" x="82.32" y="22.51" width="3.62" height="3.62" transform="translate(-1.24 4.8) rotate(-3.25)"/><rect class="cls-4" x="85.93" y="22.3" width="3.62" height="3.62" transform="translate(-1.22 5.01) rotate(-3.25)"/><rect class="cls-6" x="78.39" y="15.18" width="11.04" height="11.04" transform="translate(-1.04 4.78) rotate(-3.25)"/><polygon class="cls-10" points="74.77 85.8 58.19 76.33 77.23 65.22 93.81 74.69 74.77 85.8"/><path class="cls-4" d="M86.36,70.31a2,2,0,0,1-1.77.08c-.46-.26-.41-.72.12-1l-2.54-1.45a2,2,0,0,1-1.78.08c-.45-.26-.4-.72.13-1L78,65.52a2,2,0,0,1-1.78.08l-7.73,4.51c.45.26.4.72-.13,1a1.92,1.92,0,0,1-1.77.08l-7.73,4.52c.45.26.4.72-.13,1l2.54,1.45A2,2,0,0,1,63,78.12c.45.26.4.72-.13,1l2.54,1.45a2,2,0,0,1,1.78-.08c.46.26.4.72-.12,1L69.64,83a2,2,0,0,1,1.77-.08c.46.26.4.72-.12,1l2.54,1.45a2,2,0,0,1,1.77-.08l7.74-4.51c-.46-.26-.4-.72.12-1a2,2,0,0,1,1.78-.08L93,75.18c-.46-.26-.4-.72.12-1L90.55,72.7a2,2,0,0,1-1.77.08c-.46-.26-.4-.72.12-1M63.85,75.22c-.46-.26-.4-.72.12-1a2,2,0,0,1,1.78-.09c.45.26.4.72-.13,1A2,2,0,0,1,63.85,75.22Zm9.63-5.62c-.46-.26-.4-.72.12-1a2,2,0,0,1,1.78-.08c.46.26.4.72-.12,1A2,2,0,0,1,73.48,69.6Zm-2.72,4c-.46-.26-.4-.72.12-1a2,2,0,0,1,1.78-.08c.46.26.4.72-.12,1A2,2,0,0,1,70.76,73.61Zm-2.72,4c-.46-.26-.4-.72.12-1a2,2,0,0,1,1.78-.08c.46.26.4.72-.12,1A2,2,0,0,1,68,77.62ZM77.67,72c-.45-.26-.4-.72.13-1a2,2,0,0,1,1.77-.08c.46.26.4.72-.12,1A2,2,0,0,1,77.67,72ZM75,76c-.45-.26-.4-.72.13-1a2,2,0,0,1,1.77-.08c.46.26.4.72-.12,1A2,2,0,0,1,75,76Zm-2.72,4c-.45-.26-.4-.72.13-1a1.92,1.92,0,0,1,1.77-.08c.46.26.4.72-.12,1A2,2,0,0,1,72.23,80Zm9.64-5.62c-.46-.26-.41-.72.12-1a2,2,0,0,1,1.77-.08c.46.26.41.72-.12,1A1.92,1.92,0,0,1,81.87,74.39Zm-2.72,4c-.46-.26-.41-.72.12-1A2,2,0,0,1,81,77.29c.46.27.41.72-.12,1A2,2,0,0,1,79.15,78.4Zm-2.72,4c-.46-.26-.41-.72.12-1a2,2,0,0,1,1.77-.08c.46.26.41.72-.12,1A2,2,0,0,1,76.43,82.41Zm9.63-5.62c-.46-.26-.4-.72.12-1A2,2,0,0,1,88,75.68c.45.26.4.72-.13,1A2,2,0,0,1,86.06,76.79Z"/><polygon class="cls-6" points="74.66 85.82 57.96 76.27 77.14 65.08 93.84 74.63 74.66 85.82"/><path class="cls-2" d="M64.3,67.19C65,67.07,65.87,73,65.87,73l-.53,0S63.62,67.31,64.3,67.19Z"/><path class="cls-7" d="M65.44,73h.43a.84.84,0,0,1,.35.88c-.09.64-.72,1-.28,1.39a2.24,2.24,0,0,1-.6-2.25"/><path class="cls-8" d="M54.69,69.76l-1-.29a2.72,2.72,0,0,0-.12,1.59c.16,1.11.57,2.53,1.61,2.51s.4-.83-.06-1.09S55,71.31,55,71.31"/><path class="cls-7" d="M61.94,65a10.39,10.39,0,0,0-2.2,2.75l1.83.82A29.65,29.65,0,0,0,63.93,65c.38-.92.38-2.18-.48-2.66s-2.35.53-2.35.53l-4.23,4.33"/><path class="cls-7" d="M61.54,68.26s1.69,1,1.7,1.64a2.23,2.23,0,0,1-1.58,1.95A61,61,0,0,1,55,71.31a1.94,1.94,0,0,1-.26-1.55"/><path class="cls-2" d="M51.88,67.12a2.94,2.94,0,0,0,2,2.42c1.79.51,6.42,1.14,6.42,1.14l1.17-2.54-2.8-1.38,2.48-.93-.29-2.6"/><path class="cls-8" d="M61.23,58.54a9.86,9.86,0,0,0-2.73,0c-2.38.18-5.42,3.44-6.32,5a6.91,6.91,0,0,0-.72,3.6s4.11-.85,4.53-1.29c1.2-.62,3.36-1,4.41-2.06a4.41,4.41,0,0,0,1.3-3.19"/><path class="cls-7" d="M57.93,62.77A37.77,37.77,0,0,0,58,67.23a9.69,9.69,0,0,0,3.2,1.66l2.37.46a2.24,2.24,0,0,0,1.67.86c1,0,.93-1,.37-1.33a6.07,6.07,0,0,0-1.75-.43s-2.62-2.1-3.75-2.08a16.5,16.5,0,0,0,.22-2.76"/><path class="cls-8" d="M57.62,61.19l0,1.28a7.08,7.08,0,0,1,2.91,1.14"/><path class="cls-7" d="M64,58.51a1.64,1.64,0,0,0-.9-2.31,1.71,1.71,0,0,0-2.05.88l-.65,1.22a1.71,1.71,0,0,0,.41,2.2A1.64,1.64,0,0,0,63.22,60Z"/><path class="cls-11" d="M64.35,57.05a2.77,2.77,0,0,0-2.15-2.4s1.76,1.28,1.67,2.47"/><path class="cls-11" d="M63.42,57.16a2.17,2.17,0,0,0-1.76-2.4"/><path class="cls-11" d="M63,57.26a2.44,2.44,0,0,0-1.4-2.39c.36.5,1.18,1.48.9,2.42"/><path class="cls-11" d="M61.41,55.26A2.63,2.63,0,0,1,62,57.41"/><path class="cls-11" d="M61.2,55.67s.81.27.32,2"/><path class="cls-11" d="M62.15,54.75s.07.35-.52,1.55A5.5,5.5,0,0,0,61,57.8"/><path class="cls-11" d="M61.88,54.71s-.23.65-1,2.5c-.35.82-.48,1.09-.48,1.09"/><path class="cls-11" d="M61.6,54.87a2.26,2.26,0,0,0-.75.87c-.65,1.12-1.66,3.31-1.66,3.31"/><path class="cls-11" d="M62.2,54.65s0-2.72-1.73-3.26"/><path class="cls-11" d="M62.23,54.85a2.75,2.75,0,0,0,.1-2.42"/><path class="cls-11" d="M62.05,55a4.59,4.59,0,0,0-3-1.5"/><path class="cls-11" d="M59.37,54.35a3.8,3.8,0,0,1,2.88.89"/><path class="cls-11" d="M59.32,51.85A3.55,3.55,0,0,1,62.18,55a3,3,0,0,0-2.55-2.19"/><path class="cls-11" d="M61.59,55.29s-1.69,2.41-1.75,3.49"/><path class="cls-12" d="M64.35,57.05a2.77,2.77,0,0,0-2.15-2.4s1.76,1.28,1.67,2.47"/><path class="cls-12" d="M63.42,57.16a2.17,2.17,0,0,0-1.76-2.4"/><path class="cls-12" d="M63,57.26a2.44,2.44,0,0,0-1.4-2.39c.36.5,1.18,1.48.9,2.42"/><path class="cls-12" d="M61.41,55.26A2.63,2.63,0,0,1,62,57.41"/><path class="cls-12" d="M61.2,55.67s.81.27.32,2"/><path class="cls-12" d="M62.15,54.75s.07.35-.52,1.55A5.5,5.5,0,0,0,61,57.8"/><path class="cls-12" d="M61.88,54.71s-.23.65-1,2.5c-.35.82-.48,1.09-.48,1.09"/><path class="cls-12" d="M61.6,54.87a2.26,2.26,0,0,0-.75.87c-.65,1.12-1.66,3.31-1.66,3.31"/><path class="cls-12" d="M62.2,54.65s0-2.72-1.73-3.26"/><path class="cls-12" d="M62.23,54.85a2.75,2.75,0,0,0,.1-2.42"/><path class="cls-12" d="M62.05,55a4.59,4.59,0,0,0-3-1.5"/><path class="cls-12" d="M59.37,54.35a3.8,3.8,0,0,1,2.88.89"/><path class="cls-12" d="M59.32,51.85A3.55,3.55,0,0,1,62.18,55a3,3,0,0,0-2.55-2.19"/><path class="cls-12" d="M61.59,55.29s-1.69,2.41-1.75,3.49"/><path class="cls-13" d="M63.15,54.57c-.89-.63-2.29.14-2.7.94"/><g class="cls-14"><polygon class="cls-4" points="20.41 86.66 54.08 86.75 54.26 87.84 20.59 87.75 20.41 86.66"/><polygon class="cls-5" points="20.23 85.56 53.9 85.65 54.08 86.75 20.41 86.66 20.23 85.56"/><polygon class="cls-4" points="20.05 84.47 53.73 84.56 53.9 85.65 20.23 85.56 20.05 84.47"/><polygon class="cls-5" points="19.87 83.38 53.55 83.46 53.73 84.56 20.05 84.47 19.87 83.38"/><polygon class="cls-4" points="19.69 82.28 53.37 82.37 53.55 83.46 19.87 83.38 19.69 82.28"/><polygon class="cls-5" points="19.51 81.18 53.19 81.27 53.37 82.37 19.69 82.28 19.51 81.18"/><polygon class="cls-4" points="19.33 80.09 53.01 80.18 53.19 81.27 19.51 81.18 19.33 80.09"/><polygon class="cls-5" points="19.15 78.99 52.83 79.08 53.01 80.18 19.33 80.09 19.15 78.99"/><polygon class="cls-4" points="18.97 77.9 52.65 77.99 52.83 79.08 19.15 78.99 18.97 77.9"/><polygon class="cls-5" points="18.79 76.8 52.47 76.89 52.65 77.99 18.97 77.9 18.79 76.8"/><polygon class="cls-4" points="18.61 75.71 52.29 75.8 52.47 76.89 18.79 76.8 18.61 75.71"/><polygon class="cls-5" points="18.43 74.61 52.11 74.7 52.29 75.8 18.61 75.71 18.43 74.61"/></g><polygon class="cls-6" points="35.16 74.37 48.35 81.32 37.43 88.2 24.23 81.25 35.16 74.37"/><polyline class="cls-7" points="37.4 56.96 37.45 59.55 41.3 59.35 38.9 55.38"/><polyline class="cls-7" points="33.92 64.3 34.17 67.24 35.72 67.21 35.67 64.46"/><path class="cls-2" d="M41.47,60.25l-.79,3,2,1.63a28.08,28.08,0,0,0,1.58-3.9c.16-.94-.53-4.74-1.72-4.72l-2.62,0-1.17,2.65-1.08-.71-.33-1a11.73,11.73,0,0,0-2.41.77c-.66.39-1.2,3.17-1.15,6.08l2.12.21L36.54,62a9.4,9.4,0,0,1,.83,1.64,13.23,13.23,0,0,1,.25,1.63l-.26.93,5.94.41"/><polyline class="cls-8" points="37.27 70.14 39.23 70.86 40.2 69.49 37.84 67.02"/><path class="cls-8" d="M41,70l-1.48,2.66c-.22.41-.68.59-2.18.62a1.21,1.21,0,0,1,.67-1.2,2,2,0,0,0,.62-1.34A1.72,1.72,0,0,0,40,69.19,1.14,1.14,0,0,1,41,70Z"/><path class="cls-8" d="M42.27,72.08A10.69,10.69,0,0,0,42,73.8c0,.59,2.14.63,2.12-.18a3,3,0,0,0-.6-1.56Z"/><path class="cls-8" d="M34.84,67.35a7.17,7.17,0,0,1,3.69,1.42L37.36,70.9s-4.78-1.76-5.57-2.22-.75-1.82.59-2.55a14.33,14.33,0,0,1,6-.77c1,.19,3,.41,3.3.13s.22-.88.7-1c0,0,.74,3.69.08,4.38s-3.91-.08-3.91-.08"/><path class="cls-2" d="M38.43,68.57c-.69-.09-1.38,5.81-1.38,5.81h.53S39.11,68.67,38.43,68.57Z"/><path class="cls-7" d="M37.49,74.37h-.44a.85.85,0,0,0-.32.9c.11.63.75,1,.33,1.37a2.21,2.21,0,0,0,.52-2.26"/><path class="cls-7" d="M40.91,63.39A17.94,17.94,0,0,0,38.8,67c-.84,1.13-1.4,2.54-1.1,2.83s2.31.53,1.92-2.07a8.66,8.66,0,0,0,2.44-3.43Z"/><path class="cls-7" d="M39.72,54.42a1.63,1.63,0,0,0-3.25.31l.15,1.63a1.64,1.64,0,1,0,3.26-.31Z"/><path class="cls-8" d="M41.93,72l2,.15s1.12-4.7,1.37-6.33-.62-2.66-1.67-2.51-1.06.87-1.29,2.24S41.92,71.39,41.93,72Z"/><path class="cls-8" d="M36.38,55.21l3.39-1a1.75,1.75,0,0,0-1.66-1.37A1.71,1.71,0,0,0,36.38,55.21Z"/><path class="cls-7" d="M90.16,27.73a.48.48,0,0,0-.39.69c.18.62.81.7.61,1s-.37.32-.37.32,1,.82,1.24-.43a9.13,9.13,0,0,0,0-2.79"/><path class="cls-7" d="M93.07,26.24a.76.76,0,0,1-.64.17,1,1,0,0,1-.91.86c-.64.09-.43,1-1,1s-.73-.86-.46-1.33c.53-.14,1.11-.58,1.11-1.15a.89.89,0,0,1,1.38-.57c.42.41.85-.15,1.14-.05s.15.33.15.33a1,1,0,0,1,1,.45.66.66,0,0,1-.29.86,1.41,1.41,0,0,1,.2,2c0,.2-.31.43-.83.23V27.25A1,1,0,0,1,93.07,26.24Z"/><rect class="cls-2" x="55.99" y="2.71" width="1.53" height="40.86"/><rect class="cls-15" x="48.93" y="7.97" width="15.98" height="17.88"/><g class="cls-16"><path class="cls-17" d="M56.84,5.94A10.56,10.56,0,1,0,67.4,16.5,10.57,10.57,0,0,0,56.84,5.94Zm0,20.7A10.14,10.14,0,1,1,67,16.5,10.15,10.15,0,0,1,56.84,26.64Z"/><path class="cls-17" d="M56.84,7.84A8.66,8.66,0,1,0,65.5,16.5,8.67,8.67,0,0,0,56.84,7.84Zm0,16.9a8.24,8.24,0,1,1,8.24-8.24A8.25,8.25,0,0,1,56.84,24.74Z"/><path class="cls-17" d="M56.84,9.73A6.77,6.77,0,1,0,63.6,16.5,6.78,6.78,0,0,0,56.84,9.73Zm0,13.11a6.34,6.34,0,1,1,6.34-6.34A6.34,6.34,0,0,1,56.84,22.84Z"/><path class="cls-17" d="M56.84,11.63a4.87,4.87,0,1,0,4.87,4.87A4.88,4.88,0,0,0,56.84,11.63Zm0,9.31a4.44,4.44,0,1,1,4.44-4.44A4.45,4.45,0,0,1,56.84,20.94Z"/><path class="cls-17" d="M56.84,13.53a3,3,0,1,0,3,3A3,3,0,0,0,56.84,13.53Zm0,5.52a2.55,2.55,0,1,1,2.54-2.55A2.55,2.55,0,0,1,56.84,19.05Z"/><path class="cls-17" d="M56.84,15.43a1.07,1.07,0,1,0,1.07,1.07A1.07,1.07,0,0,0,56.84,15.43Zm0,1.72a.65.65,0,1,1,.65-.65A.65.65,0,0,1,56.84,17.15Z"/></g><rect class="cls-6" x="48.93" y="7.97" width="15.98" height="17.88"/><rect class="cls-2" x="47.78" y="24.46" width="18.07" height="1.94"/><path class="cls-8" d="M42.18,42.76A3.89,3.89,0,0,0,42,44.62h4.59a.92.92,0,0,0-.87-1.34,4,4,0,0,1-1.8-.74"/><path class="cls-8" d="M48.12,41.4a4,4,0,0,0-.32,1.83l4.57.42a.91.91,0,0,0-.74-1.4,4.09,4.09,0,0,1-1.73-.91"/><polyline class="cls-8" points="41.8 25.64 42 42.66 44.43 42.66 44.99 25.86"/><path class="cls-8" d="M42.61,26a4.48,4.48,0,0,0,1.47,3.66c.79.78,3.54,2.92,3.54,2.92L48,41.42h2s.7-7.65.79-8.73,0-1.65-1.46-3.2a7.33,7.33,0,0,1-2.17-4.06"/><path class="cls-2" d="M41.41,14.84c-.8.2-2.64,3.76-3.18,4.74s-.37,2.34.47,2.49S42,18.7,42,18.7"/><path class="cls-7" d="M45.77,9.66a1.64,1.64,0,0,0-2.18.82c-.12.28-.55,1.23-.68,1.5a2.47,2.47,0,0,0-.11.36h0l-.59,2.59,1,1.43,1.46-1-.12-1.07a1.66,1.66,0,0,0,1.36-1c.12-.27.55-1.22.67-1.5A1.65,1.65,0,0,0,45.77,9.66Z"/><path class="cls-2" d="M46.8,21.45l.63,3.81a5.18,5.18,0,0,1-2.94.73,7,7,0,0,1-2.69-.35s-.94-7.3-1-8.27.1-2.55,1.22-2.83c0,.06.21.52,1.22.73a1.68,1.68,0,0,0,1.61-.53,4.86,4.86,0,0,1,2,1"/><polygon class="cls-7" points="51.79 19.18 50.81 14.11 50.5 14.25 51.79 19.18"/><path class="cls-7" d="M49.93,17.58s-.31-.41.14-1,1-.92,1.27-.78a2,2,0,0,1-.62,2.57"/><path class="cls-2" d="M45,17.89c.07.32.16.67.24,1,.36,1.53,1.13,3.72,2.6,3.78.89,0,3-3.18,3-3.38s.64-.65-1-1.73a27.33,27.33,0,0,1-1.68,2.28s-.39-2.32-.66-3.13a2.09,2.09,0,0,0-.77-1"/><path class="cls-7" d="M50.37,14.5s-.55-.15-.42-1.11-.26-1-.26-1a1.71,1.71,0,0,1,1.07,1.94"/></svg>