<svg id="Layer_1" data-name="Layer 1" xmlns="http://www.w3.org/2000/svg" xmlns:xlink="http://www.w3.org/1999/xlink" viewBox="0 0 80 58"><defs><style>.cls-1,.cls-10,.cls-5,.cls-9{fill:none;}.cls-2{fill:#e6e6e7;}.cls-3{clip-path:url(#clip-path);}.cls-4,.cls-6{fill:#f30;}.cls-11,.cls-5,.cls-6,.cls-7,.cls-8,.cls-9{stroke:#3e0443;}.cls-10,.cls-11,.cls-5,.cls-6,.cls-7,.cls-8,.cls-9{stroke-linecap:round;stroke-linejoin:round;}.cls-10,.cls-5,.cls-6,.cls-7,.cls-8{stroke-width:0.5px;}.cls-11,.cls-7{fill:#ddcce5;}.cls-8{fill:#793399;}.cls-9{stroke-width:1.5px;}.cls-10{stroke:#c2a3d1;}.cls-11{stroke-width:0.5px;}</style><clipPath id="clip-path"><polygon class="cls-1" points="41.05 15.06 3.51 37.12 36.31 55.72 73.85 33.66 41.05 15.06"/></clipPath></defs><title>no-work-picnic</title><polygon class="cls-2" points="41.05 15.06 3.51 37.12 36.31 55.72 73.85 33.66 41.05 15.06"/><g class="cls-3"><path class="cls-4" d="M75.25,32.47h0A1.93,1.93,0,0,1,77,32.38h0c.42.25.4.71-.12,1h0a2,2,0,0,1-1.76.09C74.67,33.23,74.72,32.78,75.25,32.47Zm-7.51,4.41h0a1.93,1.93,0,0,1,1.76-.08h0c.42.24.4.7-.12,1h0a2,2,0,0,1-1.76.09C67.16,37.64,67.21,37.19,67.74,36.88ZM60.23,41.3h0A1.91,1.91,0,0,1,62,41.21h0c.43.24.41.71-.11,1h0a2,2,0,0,1-1.76.08C59.65,42.05,59.7,41.6,60.23,41.3Zm-7.51,4.41h0a1.91,1.91,0,0,1,1.75-.09h0c.43.24.41.71-.11,1h0a2,2,0,0,1-1.76.09C52.14,46.46,52.19,46,52.72,45.71Zm-7.51,4.41h0A1.91,1.91,0,0,1,47,50h0c.43.25.41.71-.11,1h0a2,2,0,0,1-1.76.09C44.63,50.88,44.68,50.43,45.21,50.12Zm-7.52,4.41h0a1.93,1.93,0,0,1,1.76-.08h0c.43.24.41.71-.11,1h0a2,2,0,0,1-1.76.09C37.12,55.29,37.17,54.84,37.69,54.53ZM30.18,59h0a1.93,1.93,0,0,1,1.76-.09h0c.43.24.41.71-.12,1h0a1.94,1.94,0,0,1-1.75.08C29.61,59.7,29.66,59.26,30.18,59Z"/><path class="cls-4" d="M68.67,32.77h0a1.93,1.93,0,0,1,1.76-.08h0c.46.26.4.7-.12,1h0a1.93,1.93,0,0,1-1.76.09C68.09,33.53,68.14,33.08,68.67,32.77Zm-7.51,4.42h0a1.93,1.93,0,0,1,1.76-.09h0c.46.26.4.71-.12,1h0A2,2,0,0,1,61,38.2C60.58,37.94,60.63,37.49,61.16,37.19ZM53.65,41.6h0a1.93,1.93,0,0,1,1.76-.09h0c.46.26.4.71-.12,1h0a1.9,1.9,0,0,1-1.76.08C53.07,42.35,53.12,41.91,53.65,41.6ZM46.14,46h0a1.93,1.93,0,0,1,1.76-.09h0c.46.27.4.71-.12,1h0A1.93,1.93,0,0,1,46,47C45.56,46.77,45.61,46.32,46.14,46Zm-7.51,4.41h0a1.93,1.93,0,0,1,1.76-.08h0c.46.26.4.7-.12,1h0a1.93,1.93,0,0,1-1.76.09C38.05,51.18,38.1,50.73,38.63,50.42Zm-7.51,4.42h0a1.93,1.93,0,0,1,1.76-.09h0c.46.26.4.71-.12,1h0a2,2,0,0,1-1.76.08C30.54,55.59,30.59,55.14,31.12,54.84Zm-7.51,4.41h0a1.93,1.93,0,0,1,1.76-.09h0c.45.26.4.71-.12,1h0a1.93,1.93,0,0,1-1.76.09C23,60,23.08,59.56,23.61,59.25Z"/><path class="cls-4" d="M62.53,29.29h0a1.93,1.93,0,0,1,1.76-.08h0c.46.26.41.7-.12,1h0a1.91,1.91,0,0,1-1.75.09C62,30.05,62,29.6,62.53,29.29ZM55,33.71h0a1.93,1.93,0,0,1,1.76-.09h0c.46.26.41.71-.12,1h0a1.94,1.94,0,0,1-1.75.08C54.45,34.46,54.5,34,55,33.71Zm-7.51,4.41h0A1.93,1.93,0,0,1,49.27,38h0c.46.26.41.71-.12,1h0a1.91,1.91,0,0,1-1.75.09C46.94,38.87,47,38.43,47.51,38.12ZM40,42.53h0a1.93,1.93,0,0,1,1.76-.09h0c.46.26.41.71-.12,1h0a1.93,1.93,0,0,1-1.76.09C39.42,43.29,39.48,42.84,40,42.53Zm-7.51,4.41h0a1.93,1.93,0,0,1,1.76-.08h0c.46.26.41.71-.12,1h0a1.93,1.93,0,0,1-1.76.09C31.91,47.7,32,47.25,32.49,46.94ZM25,51.36h0a1.93,1.93,0,0,1,1.76-.09h0c.46.26.41.71-.12,1h0a1.93,1.93,0,0,1-1.76.08C24.4,52.11,24.46,51.66,25,51.36Zm-7.51,4.41h0a1.93,1.93,0,0,1,1.76-.09h0c.46.26.41.71-.12,1h0a1.93,1.93,0,0,1-1.76.09C16.89,56.53,17,56.08,17.47,55.77Z"/><path class="cls-4" d="M56.4,25.81h0a1.93,1.93,0,0,1,1.76-.08h0c.46.26.41.7-.12,1h0a1.93,1.93,0,0,1-1.76.09C55.82,26.57,55.87,26.12,56.4,25.81Zm-7.51,4.42h0a1.93,1.93,0,0,1,1.76-.09h0c.46.26.41.71-.12,1h0a2,2,0,0,1-1.76.08C48.31,31,48.36,30.53,48.89,30.23Zm-7.51,4.41h0a1.93,1.93,0,0,1,1.76-.09h0c.46.26.4.71-.12,1h0a1.93,1.93,0,0,1-1.76.09C40.8,35.39,40.85,35,41.38,34.64Zm-7.51,4.41h0A1.93,1.93,0,0,1,35.63,39h0c.46.27.4.71-.12,1h0a1.93,1.93,0,0,1-1.76.09C33.29,39.81,33.34,39.36,33.87,39.05Zm-7.51,4.41h0a1.93,1.93,0,0,1,1.76-.08h0c.46.26.4.7-.12,1h0a1.93,1.93,0,0,1-1.76.09C25.78,44.22,25.83,43.77,26.36,43.46Zm-7.51,4.42h0a1.93,1.93,0,0,1,1.76-.09h0c.46.26.4.71-.12,1h0a1.93,1.93,0,0,1-1.76.08C18.27,48.63,18.32,48.18,18.85,47.88Zm-7.51,4.41h0a1.93,1.93,0,0,1,1.76-.09h0c.46.26.4.71-.12,1h0a1.93,1.93,0,0,1-1.76.09C10.76,53.05,10.81,52.6,11.34,52.29Z"/><path class="cls-4" d="M69.08,29h0a2,2,0,0,1,1.76-.09h0c.46.27.4.71-.12,1h0A1.93,1.93,0,0,1,69,30C68.53,29.75,68.55,29.28,69.08,29Zm-7.51,4.41h0a2,2,0,0,1,1.76-.08h0c.46.26.4.7-.12,1h0a1.93,1.93,0,0,1-1.76.09C61,34.16,61,33.69,61.57,33.38ZM54.06,37.8h0a2,2,0,0,1,1.76-.09h0c.46.26.4.71-.12,1h0a1.93,1.93,0,0,1-1.76.08C53.51,38.57,53.53,38.11,54.06,37.8Zm-7.51,4.41h0a2,2,0,0,1,1.76-.09h0c.46.26.4.71-.12,1h0a1.93,1.93,0,0,1-1.76.09C46,43,46,42.52,46.55,42.21ZM39,46.62h0a2,2,0,0,1,1.76-.08h0c.45.26.4.7-.12,1h0a1.93,1.93,0,0,1-1.76.09C38.49,47.4,38.51,46.93,39,46.62ZM31.53,51h0A2,2,0,0,1,33.28,51h0c.46.26.41.71-.11,1h0a2,2,0,0,1-1.76.08C31,51.81,31,51.34,31.53,51ZM24,55.45h0a2,2,0,0,1,1.75-.09h0c.46.26.41.71-.11,1h0a1.93,1.93,0,0,1-1.76.08C23.47,56.22,23.49,55.76,24,55.45Z"/><path class="cls-4" d="M62.94,25.49h0a2,2,0,0,1,1.76-.08h0c.46.26.41.7-.12,1h0a1.91,1.91,0,0,1-1.75.09C62.4,26.27,62.42,25.8,62.94,25.49ZM55.43,29.9h0a2,2,0,0,1,1.76-.08h0c.46.26.41.71-.12,1h0a1.93,1.93,0,0,1-1.76.09C54.89,30.68,54.91,30.21,55.43,29.9Zm-7.51,4.42h0a2,2,0,0,1,1.76-.09h0c.46.26.41.71-.12,1h0a1.93,1.93,0,0,1-1.76.08C47.38,35.09,47.4,34.63,47.92,34.32Zm-7.51,4.41h0a2,2,0,0,1,1.76-.09h0c.46.26.41.71-.12,1h0a1.93,1.93,0,0,1-1.76.09C39.87,39.5,39.89,39,40.41,38.73ZM32.9,43.14h0a2,2,0,0,1,1.76-.08h0c.46.26.41.7-.12,1h0a1.93,1.93,0,0,1-1.76.09C32.36,43.92,32.38,43.45,32.9,43.14Zm-7.51,4.42h0a2,2,0,0,1,1.76-.09h0c.46.26.41.71-.12,1h0a2,2,0,0,1-1.76.08C24.85,48.33,24.87,47.86,25.39,47.56ZM17.88,52h0a2,2,0,0,1,1.76-.09h0c.46.26.41.71-.12,1h0a1.93,1.93,0,0,1-1.76.08C17.34,52.74,17.36,52.28,17.88,52Z"/><path class="cls-4" d="M56.81,22h0a1.93,1.93,0,0,1,1.76-.09h0c.46.27.4.71-.12,1h0a1.93,1.93,0,0,1-1.76.09C56.23,22.77,56.28,22.32,56.81,22ZM49.3,26.42h0a1.93,1.93,0,0,1,1.76-.08h0c.46.26.4.71-.12,1h0a1.93,1.93,0,0,1-1.76.09C48.72,27.18,48.77,26.73,49.3,26.42Zm-7.51,4.42h0a1.93,1.93,0,0,1,1.76-.09h0c.46.26.4.71-.12,1h0a1.93,1.93,0,0,1-1.76.08C41.21,31.59,41.26,31.15,41.79,30.84Zm-7.51,4.41h0A1.93,1.93,0,0,1,36,35.16h0c.46.26.4.71-.12,1h0a1.93,1.93,0,0,1-1.76.09C33.7,36,33.75,35.56,34.28,35.25Zm-7.51,4.41h0a1.93,1.93,0,0,1,1.76-.08h0c.46.26.4.7-.12,1h0a1.93,1.93,0,0,1-1.76.09C26.19,40.42,26.24,40,26.77,39.66Zm-7.51,4.41h0A2,2,0,0,1,21,44h0c.46.26.4.71-.12,1h0a2,2,0,0,1-1.76.08C18.68,44.83,18.73,44.38,19.26,44.07Zm-7.51,4.42h0a1.91,1.91,0,0,1,1.75-.09h0c.46.26.41.71-.11,1h0a1.9,1.9,0,0,1-1.76.08C11.17,49.24,11.22,48.8,11.75,48.49Z"/><path class="cls-4" d="M50.67,18.53h0a1.93,1.93,0,0,1,1.76-.09h0c.46.27.41.71-.12,1h0a1.93,1.93,0,0,1-1.76.09C50.09,19.29,50.15,18.84,50.67,18.53Zm-7.51,4.41h0a1.93,1.93,0,0,1,1.76-.08h0c.46.26.41.7-.12,1h0A1.93,1.93,0,0,1,43,24C42.58,23.7,42.64,23.25,43.16,22.94Zm-7.51,4.42h0a1.93,1.93,0,0,1,1.76-.09h0c.46.26.41.71-.12,1h0a1.93,1.93,0,0,1-1.76.08C35.07,28.11,35.13,27.67,35.65,27.36Zm-7.51,4.41h0a1.93,1.93,0,0,1,1.76-.09h0c.46.26.41.71-.12,1h0a1.93,1.93,0,0,1-1.76.09C27.56,32.53,27.62,32.08,28.14,31.77Zm-7.51,4.41h0a1.9,1.9,0,0,1,1.76-.08h0c.46.26.41.7-.12,1h0a1.93,1.93,0,0,1-1.76.09C20.05,36.94,20.1,36.49,20.63,36.18Zm-7.51,4.41h0a2,2,0,0,1,1.76-.08h0c.46.26.41.71-.12,1h0a2,2,0,0,1-1.76.08C12.54,41.35,12.59,40.9,13.12,40.59ZM5.61,45h0a1.93,1.93,0,0,1,1.76-.09h0c.46.26.41.71-.12,1h0A1.93,1.93,0,0,1,5.49,46C5,45.76,5.08,45.32,5.61,45Z"/><path class="cls-4" d="M44.54,15.05h0A1.93,1.93,0,0,1,46.3,15h0c.46.27.4.71-.12,1h0a1.93,1.93,0,0,1-1.76.09C44,15.81,44,15.36,44.54,15.05ZM37,19.46h0a1.93,1.93,0,0,1,1.76-.08h0c.46.26.4.7-.12,1h0a1.93,1.93,0,0,1-1.76.09C36.45,20.22,36.5,19.77,37,19.46Zm-7.51,4.42h0a1.93,1.93,0,0,1,1.76-.09h0c.46.26.4.71-.12,1h0a1.93,1.93,0,0,1-1.76.08C28.94,24.63,29,24.19,29.52,23.88ZM22,28.29h0a1.93,1.93,0,0,1,1.76-.09h0c.45.26.4.71-.12,1h0a1.93,1.93,0,0,1-1.76.09C21.43,29.05,21.48,28.6,22,28.29ZM14.5,32.7h0a1.91,1.91,0,0,1,1.75-.08h0c.46.26.41.7-.11,1h0a1.93,1.93,0,0,1-1.76.09C13.92,33.46,14,33,14.5,32.7ZM7,37.11H7A1.94,1.94,0,0,1,8.74,37h0c.46.26.41.71-.11,1h0a1.93,1.93,0,0,1-1.76.09C6.41,37.87,6.46,37.42,7,37.11ZM-.53,41.53h0a1.93,1.93,0,0,1,1.76-.09h0c.46.26.41.71-.11,1h0a1.93,1.93,0,0,1-1.76.08C-1.1,42.28-1,41.84-.53,41.53Z"/><path class="cls-4" d="M50.26,22.33h0A1.93,1.93,0,0,1,52,22.25h0c.43.24.41.7-.12,1h0a2,2,0,0,1-1.76.09C49.69,23.09,49.74,22.64,50.26,22.33Zm-7.51,4.42h0a1.93,1.93,0,0,1,1.76-.09h0c.43.24.41.71-.12,1h0a2,2,0,0,1-1.76.08C42.17,27.5,42.23,27.05,42.75,26.75Zm-7.51,4.41h0A1.93,1.93,0,0,1,37,31.07h0c.43.24.41.71-.12,1h0a2,2,0,0,1-1.76.08C34.66,31.91,34.72,31.47,35.24,31.16Zm-7.51,4.41h0a1.93,1.93,0,0,1,1.76-.09h0c.43.25.41.71-.12,1h0a2,2,0,0,1-1.76.09C27.15,36.33,27.21,35.88,27.73,35.57ZM20.22,40h0A1.93,1.93,0,0,1,22,39.9h0c.43.24.41.7-.12,1h0A2,2,0,0,1,20.1,41C19.64,40.74,19.7,40.29,20.22,40ZM12.71,44.4h0a1.93,1.93,0,0,1,1.76-.09h0c.43.24.41.71-.12,1h0a2,2,0,0,1-1.76.08C12.13,45.15,12.19,44.7,12.71,44.4ZM5.2,48.81h0A1.93,1.93,0,0,1,7,48.72H7c.43.24.41.71-.12,1h0a2,2,0,0,1-1.76.09C4.62,49.56,4.68,49.12,5.2,48.81Z"/><path class="cls-4" d="M44.13,18.85h0a1.93,1.93,0,0,1,1.76-.08h0c.42.24.4.7-.12,1h0a2,2,0,0,1-1.76.09C43.55,19.61,43.6,19.16,44.13,18.85Zm-7.51,4.41h0a2,2,0,0,1,1.76-.08h0c.42.24.4.71-.12,1h0a2,2,0,0,1-1.76.08C36,24,36.09,23.57,36.62,23.26Zm-7.51,4.42h0a1.93,1.93,0,0,1,1.76-.09h0c.42.24.4.71-.12,1h0a2,2,0,0,1-1.76.08C28.53,28.43,28.58,28,29.11,27.68ZM21.6,32.09h0A1.93,1.93,0,0,1,23.36,32h0c.42.25.4.71-.12,1h0a2,2,0,0,1-1.76.09C21,32.85,21.07,32.4,21.6,32.09ZM14.09,36.5h0a1.93,1.93,0,0,1,1.76-.08h0c.42.24.4.7-.12,1h0a2,2,0,0,1-1.76.09C13.51,37.26,13.56,36.81,14.09,36.5ZM6.58,40.92h0a1.93,1.93,0,0,1,1.76-.09h0c.42.24.4.71-.12,1h0a2,2,0,0,1-1.76.08C6,41.67,6.05,41.22,6.58,40.92ZM-.93,45.33h0a1.91,1.91,0,0,1,1.75-.09h0c.43.24.41.71-.11,1h0A2,2,0,0,1-1,46.35C-1.51,46.09-1.46,45.64-.93,45.33Z"/><path class="cls-4" d="M38,15.35h0a2,2,0,0,1,1.76-.08h0c.46.26.41.71-.12,1h0a1.93,1.93,0,0,1-1.76.09C37.42,16.13,37.44,15.66,38,15.35Zm-7.51,4.42h0a2,2,0,0,1,1.76-.09h0c.46.26.41.71-.12,1h0a1.93,1.93,0,0,1-1.76.08C29.91,20.54,29.93,20.07,30.45,19.77Zm-7.51,4.41h0a2,2,0,0,1,1.76-.09h0c.46.26.41.71-.12,1h0a1.93,1.93,0,0,1-1.76.09C22.39,25,22.42,24.49,22.94,24.18Zm-7.51,4.41h0a2,2,0,0,1,1.76-.08h0c.46.26.41.7-.12,1h0a1.93,1.93,0,0,1-1.76.09C14.88,29.37,14.9,28.9,15.43,28.59ZM7.92,33h0a2,2,0,0,1,1.76-.08h0c.46.26.41.71-.12,1h0A2,2,0,0,1,7.8,34C7.37,33.78,7.39,33.31,7.92,33ZM.41,37.42h0a2,2,0,0,1,1.76-.09h0c.46.26.41.71-.12,1h0a1.9,1.9,0,0,1-1.76.08C-.14,38.19-.12,37.73.41,37.42ZM-7.1,41.83h0a2,2,0,0,1,1.76-.09h0c.46.26.4.71-.12,1h0a1.93,1.93,0,0,1-1.76.09C-7.65,42.61-7.63,42.14-7.1,41.83Z"/></g><polygon class="cls-5" points="41.23 15.16 3.69 37.22 36.31 55.72 73.85 33.66 41.23 15.16"/><path class="cls-6" d="M36.46,34.55c.74.37,3.24.47,3.24,1.67,0,.59-1.79,0-3.11,0s-3.43.47-2.81-1.3"/><path class="cls-7" d="M22.13,29s8.61-5,9.56-5.1,2.13-.11,2.84,2.58,1.79,8,1.79,8l-2.83.42L31.4,28.74l-6.25,5.41"/><path class="cls-7" d="M27,32.05s3.07.77,5.66,1.35,3,2.61,2,3.13S24.32,36.31,23,35.71l-1-6.93"/><path class="cls-8" d="M11,29.21s.73-1.06,3.75-.84l6.62.5a3.41,3.41,0,0,0,1.21-.36l1.75,1.24-1.12,1.37,2.12.94s-1.13,3-2.12,3.48-11-.68-11-.68"/><path class="cls-6" d="M19.68,34.25s1.64.3,1.83.31c-.09-.83-.46-2.88-.46-3.8-.42-.57-1-2.36.46-2.24s1.63,1.32.77,2.35c.42.75,1.37,4.06,1.06,4.84s-1.74.86-1.74.86l-2.39.12"/><polyline class="cls-8" points="15.87 32.89 19.73 34 19.35 35.92 13.35 35.4"/><path class="cls-6" d="M9,25.78l-.09-2.69,1.48-.8L9.5,20.47l-1.64.43a9,9,0,0,0-2.06.32c-1.09.28-1.8,1.43-2.13,3.29"/><path class="cls-6" d="M11.7,22.46a1.64,1.64,0,0,0-1.33-3l-1.49.67a1.63,1.63,0,1,0,1.32,3Z"/><path class="cls-7" d="M8.63,28.71A2.3,2.3,0,0,0,9,25.78a7.05,7.05,0,0,0-2.44-1,10.52,10.52,0,0,0-2.86-.25S2,31.39,2.74,33.44s1.84,2.31,3.66,2.65A82.54,82.54,0,0,0,17,37.23l.64-2.69s-6.62-3-8.09-3.11"/><path class="cls-6" d="M10.77,32.3a1.64,1.64,0,1,0,.66-3.21l-1.6-.33A1.64,1.64,0,0,0,9.17,32Z"/><path class="cls-6" d="M4.82,23.54s-1,4.24-.74,5.76,3.75,3.43,4.78,4a2.77,2.77,0,0,0,3.5-.88c.71-1.16-2.25-1.15-2.75-.32C8,31.27,6.94,29.4,6.11,28.86a30.8,30.8,0,0,0,1-4.69"/><path class="cls-6" d="M17,37.06c2.05.9,5.94.48,6.76.35a6.23,6.23,0,0,1,2.64.86c.47.2.74-.36.94-1.09S29,35.47,29,34.84s-.9-1.37-1.22-.85-1.61,2.22-3.36,2.06-5-.86-5.68-.93a2.1,2.1,0,0,0-1.14-.35Z"/><path class="cls-6" d="M11.42,19.52a4.07,4.07,0,0,1-1.84.39c-.88-.08-.5,1.39-1.77,2s-2.55-1.1-2.55-1.1a2.24,2.24,0,0,0,2.39-1.36c.78-1.67,3.84-1.84,4.86-.73a4.69,4.69,0,0,1,.26,5c-.9,1.48-.61,2.25-.61,2.25s-2.89.18-2.05-3.33c0,0,.94-.4,1.72-.78S11.42,20.52,11.42,19.52Z"/><path class="cls-7" d="M46.76,12.35a23.8,23.8,0,0,1,3.75.74A8.06,8.06,0,0,1,53,14.74l-1.9,2.34-1.58-.39-.6,5.92-7-.49L42.18,16,42,17l-2.12-.51a13.22,13.22,0,0,1,1.33-3.13c.54-.55,2.67-.76,2.67-.76"/><path class="cls-6" d="M46.89,11l.49,2.21.41.09s-.22,2-2,2-1.79-2-1.79-2l.53-.13.33-1.75"/><path class="cls-6" d="M44.4,8.74a1.64,1.64,0,0,1,3.27.19l-.1,1.63a1.63,1.63,0,1,1-3.26-.19Z"/><path class="cls-8" d="M47.59,8.9a2.19,2.19,0,0,0-1.48-.49,4.23,4.23,0,0,0-1.81.24,2.2,2.2,0,0,1,2-2A1.87,1.87,0,0,1,47.59,8.9Z"/><path class="cls-9" d="M46.38,6.44s.94.06,1.53,1.4c.78,1.8.82,6.19.82,6.19"/><path class="cls-9" d="M47.9,13.55s.87-4.19-1-6.69"/><path class="cls-9" d="M46,6.44s-1.13,0-2,2.81a12.42,12.42,0,0,0-.73,4.23"/><path class="cls-9" d="M46.16,6.64s-2.37,1-2,5.86"/><path class="cls-9" d="M46.82,6.58s-.64-.39-1.1-.06"/><path class="cls-9" d="M46.31,6.8s1.93,1.56.44,6.23"/><path class="cls-9" d="M46.27,6.44s-1.44,0-2.41,2.35c-.78,1.87-1.2,3.23-1.2,3.23"/><path class="cls-9" d="M48.39,12.35s-.29-1.8-.6-3.8,0,3.06-.14,3.56"/><path class="cls-9" d="M45.85,6.53c-1.84.85-3.43,4-3.43,4"/><line class="cls-9" x1="43.71" y1="8.76" x2="43.03" y2="10.05"/><line class="cls-9" x1="43.86" y1="9.57" x2="43.71" y2="11.4"/><path class="cls-10" d="M46.38,6.44s.94.06,1.53,1.4c.78,1.8.82,6.19.82,6.19"/><path class="cls-10" d="M47.9,13.55s.87-4.19-1-6.69"/><path class="cls-10" d="M46,6.44s-1.13,0-2,2.81a12.42,12.42,0,0,0-.73,4.23"/><path class="cls-10" d="M46.16,6.64s-2.37,1-2,5.86"/><path class="cls-10" d="M46.82,6.58s-.64-.39-1.1-.06"/><path class="cls-10" d="M46.31,6.8s1.93,1.56.44,6.23"/><path class="cls-10" d="M46.27,6.44s-1.44,0-2.41,2.35c-.78,1.87-1.2,3.23-1.2,3.23"/><path class="cls-10" d="M48.39,12.35s-.29-1.8-.6-3.8,0,3.06-.14,3.56"/><path class="cls-10" d="M45.85,6.53c-1.84.85-3.43,4-3.43,4"/><line class="cls-10" x1="43.71" y1="8.76" x2="43.03" y2="10.05"/><line class="cls-10" x1="43.86" y1="9.57" x2="43.71" y2="11.4"/><path class="cls-6" d="M53,14.88a7.25,7.25,0,0,1,1.8,1.19c.69.68.07,1.3-.75,1.3a7.08,7.08,0,0,1-2.43-1"/><line class="cls-7" x1="35.27" y1="11.31" x2="34.69" y2="13.34"/><line class="cls-7" x1="34.48" y1="11.07" x2="33.89" y2="13.12"/><line class="cls-7" x1="33.69" y1="10.81" x2="33.09" y2="12.92"/><path class="cls-7" d="M45.83,15.42c-.11.37-.43.61-.71.52a.62.62,0,0,1-.32-.81"/><path class="cls-7" d="M45.83,15.42c-.11.37-.43.61-.71.52a.62.62,0,0,1-.32-.81"/><line class="cls-7" x1="50.16" y1="16.19" x2="49.91" y2="17.08"/><path class="cls-7" d="M47.28,19.39c-.65-.84-1-1-1.77-.94a2.46,2.46,0,0,1-2.28-.87,3.6,3.6,0,0,1-.09-2.93,3.58,3.58,0,0,1,1.63-2.42,2.44,2.44,0,0,1,2.39.47c.66.49,1,.51,2,.13a4.76,4.76,0,0,1,3.32.09,2.54,2.54,0,0,1,1.38,1.46,5.44,5.44,0,0,1,0,3.36,5.46,5.46,0,0,1-1.78,2.83,2.54,2.54,0,0,1-2,.51,4.74,4.74,0,0,1-2.86-1.69"/><path class="cls-8" d="M47.28,19.39c-.65-.84-1-1-1.77-.94a2.46,2.46,0,0,1-2.28-.87,3.6,3.6,0,0,1-.09-2.93,3.58,3.58,0,0,1,1.63-2.42,2.44,2.44,0,0,1,2.39.47c.66.49,1,.51,2,.13a4.76,4.76,0,0,1,3.32.09,2.54,2.54,0,0,1,1.38,1.46,5.44,5.44,0,0,1,0,3.36,5.46,5.46,0,0,1-1.78,2.83,2.54,2.54,0,0,1-2,.51A4.74,4.74,0,0,1,47.28,19.39Z"/><path class="cls-8" d="M49.06,16.36a1.25,1.25,0,1,1-.86-1.55,1.24,1.24,0,0,1,.86,1.55"/><path class="cls-7" d="M32.58,12.7c-.28-.25,0-1,0-1.08s.24-.81.6-.87h.08s2.23.77,2.43.88a.65.65,0,0,1,.23.19.45.45,0,0,0,.29.2l9.64,2.76a.19.19,0,0,1,.12.23l-.24.83a.18.18,0,0,1-.22.13l-9.64-2.76a.5.5,0,0,0-.35,0,.65.65,0,0,1-.3,0c-.22,0-2.51-.54-2.53-.54l-.07,0"/><path class="cls-8" d="M32.58,12.7c-.28-.25,0-1,0-1.08s.24-.81.6-.87h.08s2.23.77,2.43.88a.65.65,0,0,1,.23.19.45.45,0,0,0,.29.2l9.64,2.76a.19.19,0,0,1,.12.23l-.24.83a.18.18,0,0,1-.22.13l-9.64-2.76a.5.5,0,0,0-.35,0,.65.65,0,0,1-.3,0c-.22,0-2.51-.54-2.53-.54Z"/><line class="cls-7" x1="50.32" y1="15.64" x2="49.75" y2="17.63"/><path class="cls-6" d="M50.54,16.73a5.83,5.83,0,0,1-1.95.84c-.64,0-1.85-.58-1.32-1.1a3.46,3.46,0,0,1,2.54-1.15,14.28,14.28,0,0,1,1.53.25,26.28,26.28,0,0,0,2.68.21,2.2,2.2,0,0,1,1.9,1.59c0,.41-.27.88-1.34.88S50.54,16.73,50.54,16.73Z"/><path class="cls-6" d="M39.86,17.3l-1.07-2.07s.1-1.5-.4-2-1.32-.7-1.53-.2.27,1.5,1,2.28c0,1.13.41,3.72.91,4.22a2.67,2.67,0,0,0,.63,1.15"/><path class="cls-6" d="M39.41,23.14H37.66c-.13,0-.7.66.4,1a9.63,9.63,0,0,0,4.14,0"/><path class="cls-7" d="M50.61,21.05l-8.43,3.84-.89-2.41,9.12-5.56c1.06-.64,2.33.72,2,1.9S50.8,24,48.48,24.53a27,27,0,0,1-6,.23"/><path class="cls-6" d="M41.42,21.84c-.18,1.05.75,1.88.21,2.41a9.77,9.77,0,0,1-4.3,1.11c-.71-.12-.6-.66-.07-.84s2.1-1.1,2.39-2"/><path class="cls-7" d="M43.18,17.07l-.54,6.07-3.32-.46a57.05,57.05,0,0,1,1.11-7.13c.5-1.27,1-1.89,2.21-1.52,1.06.32,1.63,3.07,1.77,3.61s.56,2.6.56,2.6L43.71,21"/><path class="cls-6" d="M48.07,46.9a2.24,2.24,0,0,1,.28,1.41,1.21,1.21,0,0,1-1.59,1.12,14.27,14.27,0,0,1-6.71,0"/><path class="cls-6" d="M49.38,37.12l-1.11,4.47-.12,3.49s1.41.68,1.36,1.07-2.7.71-2.51-.63c0-1.43,0-2.47-.11-3.19s-.64-5.66-.64-5.66"/><path class="cls-8" d="M40,47.86s-.37-1.2-.94-1.44-2.31,1.47-2.31,1.47l.45,1"/><path class="cls-8" d="M37.89,48.23a1.33,1.33,0,0,0-1.06-1c-.75.14-3.53,2.83-3.46,3.32.12,1,2.57-.36,4-.52"/><path class="cls-6" d="M45.33,46.17c-1.17-.4-6.33,1.49-7.52,2.1A1.25,1.25,0,0,0,37.32,50a28.63,28.63,0,0,1,4.8-.78,26.08,26.08,0,0,0,4.69-1,1.36,1.36,0,0,0,.95-1.89c-.27-.68-2.19-2-2.19-2l-2-.87L39,45.68l0,.74L41,47"/><path class="cls-11" d="M47.8,34.34s1.36.49,1.59,1.06a5.31,5.31,0,0,1,.18,1.68l-1.12.23a3.42,3.42,0,0,1-.42,2,46.84,46.84,0,0,0-1.79,5.06s-2.05-.92-3.37-.22S40.38,46.72,38.53,47a7.82,7.82,0,0,1,2.28-6.84,8.23,8.23,0,0,0,1.66-2.31l-2-1.6S41.65,34,42.22,34,44.13,34,44.13,34l.26.34"/><path class="cls-6" d="M40.67,36.39a12.78,12.78,0,0,0-2.28,3.89c0,.34,1.2,1.5,4.07,2.48a2.91,2.91,0,0,0,2.39,1.74c1,.07.61-.88.21-1.41a7.55,7.55,0,0,0-2.24-1.2l-2.38-2.07,1.61-2.34Z"/><path class="cls-6" d="M47.35,31.93l0,2.1.4.31a2.19,2.19,0,0,1-1.76.94,2.36,2.36,0,0,1-1.93-1.17l.82-.34.28-1.91"/><path class="cls-6" d="M44.69,30.22a1.64,1.64,0,0,1,3.27.1L47.91,32a1.64,1.64,0,0,1-3.27-.1Z"/><path class="cls-6" d="M46,29.42a11.93,11.93,0,0,0,1.73.52c.44,0,.26,1,.26,1a2.3,2.3,0,0,0,.08-2c-.39-.79-2.06-1.1-2.47-.26-.65-.24-1.52,1-1,1.82A2.74,2.74,0,0,0,46,29.42Z"/><path class="cls-7" d="M63.06,35.94l1.78.49,1.27-4.58a9,9,0,0,0,2.89-5l-1.59-.44-2.71-.75-1.58-.44A9,9,0,0,0,63,31l-1.27,4.58,1.78.49"/><path class="cls-6" d="M63.47,40.67s.66-5.35,1.11-7.08c.68-.93,2.77.45,2.77,1.17A21.32,21.32,0,0,1,65.73,39,12.64,12.64,0,0,0,65,41.26"/><path class="cls-6" d="M69.72,46.91a76.73,76.73,0,0,1-.72-8c.12-1.65,2.63-.44,2.83.24a31,31,0,0,1-.39,5.6,12,12,0,0,0-.09,2.37"/><path class="cls-8" d="M75.64,30.83s.43,1.6-.72,2.32-7,.26-7,.26l-.36,1.14-3-1s.4-1.53.49-1.89c.36-1.55,1.88-1.94,3.22-1.94h4.48"/><polyline class="cls-6" points="72.53 18.75 72.38 20.88 75.39 20.88 74.89 17.51"/><path class="cls-8" d="M73.86,20.5a3.69,3.69,0,0,1,1.86-.86c.85,0,2,.78,1.75,3.29s-.25,7.92-1.62,9.29c0,0-5.39-1-6.39-2.74l1.39-5.22L69.77,22.8a4.83,4.83,0,0,1,2.18-2A4.46,4.46,0,0,1,73.86,20.5Z"/><path class="cls-6" d="M67,22.7S66.49,20,65.38,20s-1,1.61-.52,2.11L66,23.24"/><path class="cls-6" d="M74.46,25.35a1.44,1.44,0,0,1-.94.54c-.67.13-6-1.75-6-1.75s-2.06.22-2.66-.39-.24-2,2.54-.86c1.84.19,4.34.28,5.54.88h.19L74.09,22A2,2,0,0,1,75.61,24,7.21,7.21,0,0,1,74.46,25.35Z"/><path class="cls-7" d="M63.26,40.66s-1.82.72-2.62,1-.83,1,0,1H65.3a2.92,2.92,0,0,0-.1-2Z"/><path class="cls-7" d="M69.66,46.88s-1.51,1.26-2.18,1.77-.48,1.21.31,1l4.43-1.46a2.9,2.9,0,0,0-.71-1.83Z"/><path class="cls-6" d="M74.92,15.84a1.57,1.57,0,1,0-3.11.49l.24,1.55a1.57,1.57,0,0,0,3.11-.48Z"/><ellipse class="cls-7" cx="66.19" cy="26.06" rx="1.32" ry="3.62" transform="translate(25.57 84.46) rotate(-76.67)"/><polyline class="cls-8" points="75.85 32.22 71.83 39.1 69 38.23 69.72 32.22"/><path class="cls-6" d="M72.65,16.08s1.19,1.84,2.74,1.84c0,0-.67,1.14.33,1.72.66,0,2-.83.62-2.31-.23-3.45-3.53-4.58-4.82-1.39C71.81,16.33,72.65,16.08,72.65,16.08Z"/></svg>