<svg id="Layer_1" data-name="Layer 1" xmlns="http://www.w3.org/2000/svg" viewBox="0 0 278.91 46.35"><defs><style>.cls-1,.cls-11,.cls-12,.cls-13,.cls-14,.cls-15,.cls-4,.cls-5{fill:#f30;}.cls-1,.cls-10,.cls-12,.cls-13,.cls-14,.cls-2,.cls-3,.cls-4,.cls-5,.cls-6,.cls-7,.cls-8,.cls-9{stroke:#3e0443;}.cls-1,.cls-10,.cls-12,.cls-13,.cls-14,.cls-15,.cls-2,.cls-3,.cls-4,.cls-5,.cls-6,.cls-8,.cls-9{stroke-linecap:round;}.cls-1,.cls-10,.cls-12,.cls-13,.cls-14,.cls-15,.cls-2,.cls-3,.cls-4,.cls-5,.cls-6,.cls-7,.cls-8,.cls-9{stroke-linejoin:round;}.cls-1,.cls-15,.cls-2,.cls-3,.cls-9{stroke-width:0.5px;}.cls-2{fill:#793399;}.cls-3{fill:#e6e6e7;}.cls-4{stroke-width:0.5px;}.cls-5,.cls-6{stroke-width:0.48px;}.cls-10,.cls-6,.cls-7,.cls-8{fill:none;}.cls-14,.cls-7,.cls-8{stroke-width:1.5px;}.cls-9{fill:#fff;}.cls-12{stroke-width:0.52px;}.cls-13{stroke-width:0.55px;}.cls-15{stroke:#c2a3d1;}</style></defs><title>people-marching</title><path class="cls-1" d="M146.9,8.66a2,2,0,0,1,2.24,1.61c.18,1.15.18,4.52-1.21,4.82s-3-1.75-3-1.75"/><path class="cls-1" d="M147,9.16a1.65,1.65,0,0,0-1.78,1.54l-.12,1.66a1.5,1.5,0,0,0,.07.6l-.22-.06-.41,2.22,2.25.3.18-1.29a1.65,1.65,0,0,0,1.45-1.53c0-.3.1-1.36.12-1.66A1.65,1.65,0,0,0,147,9.16Z"/><path class="cls-1" d="M144.05,32.33A4.4,4.4,0,0,1,142.71,35c-.28.65-2.15,3.52-2.85,5.1s-.89,2.22-.63,3.15c0,.2-2.16-1-2.16-1a6.81,6.81,0,0,0,1.05-2.36c.29-1.34,1.07-5.07,2.5-6.18l.91-2"/><path class="cls-2" d="M138.88,42.86l.38.4s1.05.81,1.15,1.2-.66.42-1.32,0a15.09,15.09,0,0,1-2.52-1.45c0-.21.2-.95.6-.95A7.06,7.06,0,0,1,138.88,42.86Z"/><path class="cls-1" d="M147.67,32.63a4,4,0,0,1,.67,1.88,19.13,19.13,0,0,0,0,4.48c.34,2,1.13,3.51,1.13,4s1.62,0,1.62,0l-.52-7.91s.24-2.2-.27-2.71"/><path class="cls-3" d="M148.18,21.13l-.19,5,3,6.3s-3.89,2-10.08-.26c0,0,1.58-6.13,1.85-7.31a11,11,0,0,1,1.35-2.84s-1.29-7,.23-7.44,3.37,1,4.08,2.17.82,2.78-.21,3.34"/><path class="cls-1" d="M147.69,9.15a4.89,4.89,0,0,1-1,3.1,6.89,6.89,0,0,1-3.22,2.29s.82-5.62,2.35-5.84S147.69,9.15,147.69,9.15Z"/><path class="cls-2" d="M151.43,43l.54.15a4.47,4.47,0,0,1,1.59.46c.29.3-.36.7-1.11.7a14.93,14.93,0,0,1-2.92,0c-.1-.18-.3-.92,0-1.12A6.77,6.77,0,0,1,151.43,43Z"/><path class="cls-1" d="M153.09,21.55s2.26.52,1.1,1.68-2-.5-2-.5"/><path class="cls-3" d="M147.14,16.78a14.93,14.93,0,0,1,1,2.57l4.76,1.86-.79,1.84a16.37,16.37,0,0,1-5.27-1.76,8.89,8.89,0,0,1-2.6-4.1"/><path class="cls-2" d="M172.49,37.14s.59.5,1,.43,2.14-.79,2.6-.87.87.49.87.49-1.8,1.81-2.44,2.28a12.65,12.65,0,0,1-2,1.2s-1.79-1.42-1.91-2.07"/><path class="cls-2" d="M173.37,38.2s.5.59.93.59,2.26-.4,2.72-.4.77.64.77.64S175.7,40.5,175,40.85a13.18,13.18,0,0,1-2.16.83S171.3,40,171.3,39.3"/><path class="cls-4" d="M158.93,17.52l-.5-1.58a1.66,1.66,0,0,0-3.17,1l.5,1.58,0,.06-.19,1.92,2.24.73,0-1.62h0A1.66,1.66,0,0,0,158.93,17.52Z"/><path class="cls-3" d="M159.61,28.68l1.29.38s5.16-.38,6.14-.38a3.4,3.4,0,0,1,3,2c.33,1.2,4.1,7.74,4.1,7.74l-2.9,1.52-4-6.9a59.83,59.83,0,0,1-7.63.5A3.46,3.46,0,0,1,156.27,30"/><path class="cls-5" d="M160.91,21.8s3.71-1,4-1.79-1.43-6.67-1.43-6.67.1-1.36-.81-1.54-1.86,1.43-1.43,2a1.19,1.19,0,0,0,1.11.48,25.67,25.67,0,0,0,.59,4.83,3.78,3.78,0,0,0-1.8.35"/><path class="cls-2" d="M162.38,15l1.67-.66s1.61,4.34,1,6-6.42,2.33-6.42,2.33l-1.53-2.37,5.43-1.48Z"/><path class="cls-2" d="M158.62,20.8a8.89,8.89,0,0,1,1.84,6c0,.32.44,2.23.44,2.23l-4.57,2.41s-1.65-5.47-2-7.47.44-3.64,2.09-4.09A1.8,1.8,0,0,1,158.62,20.8Z"/><circle class="cls-6" cx="167.69" cy="43.49" r="1.45"/><path class="cls-2" d="M157.72,21.8a37.66,37.66,0,0,1,1.15,3.7l4.7.83-.25,1.78h-4.7c-1.15,0-1.85-1-2.23-2.16-.16-.53-.72-1.61-1.06-2.71"/><path class="cls-5" d="M163.67,26.65a9,9,0,0,1,1.53,0c.57.08,1,1.47.29,1.68s-1.14-.53-2.14-.48"/><line class="cls-6" x1="167.24" y1="33.04" x2="167.69" y2="43.49"/><line class="cls-7" x1="167.69" y1="37.81" x2="155.75" y2="37.81"/><polyline class="cls-7" points="153.45 21.2 156.8 33.3 166.25 33.3"/><circle class="cls-8" cx="155.5" cy="37.81" r="7.13"/><line class="cls-6" x1="157.09" y1="33.48" x2="156.27" y2="37.81"/><path class="cls-1" d="M129.33,14.07a10.12,10.12,0,0,1,.44-2,2.09,2.09,0,0,1,.85-.83s.31-.85.75-.46a2,2,0,0,1,.16,2.35c-.54.82-1,1.43-1,1.43"/><path class="cls-3" d="M123.46,19.19s3.63.39,4,.39a1.33,1.33,0,0,0,1.42-.81c.42-.67,1.8-4.06,1.8-4.06l-1.64-.8-1.68,3.55-3.48-.62"/><polyline class="cls-1" points="127.83 40.66 127.53 41.5 128.04 43.66 129.71 43.34 128.86 39.57"/><path class="cls-3" d="M133.25,43.31a.67.67,0,0,0-.55-.58,24.5,24.5,0,0,0-3-.1c-.21,0-.2.55-.79.72s-1.17-.34-1.22-.13a2.38,2.38,0,0,0,.06,1.21.9.9,0,0,0,.48.51Z"/><polyline class="cls-1" points="116.74 40.11 116.23 40.6 115.48 42.37 117.01 43.14 118.29 39.75"/><path class="cls-2" d="M120.81,29.06,115.88,41l1.85.78s2.74-3.91,3.49-5.23,2-4,2-4"/><path class="cls-2" d="M120.54,27.16c-.35,1.24,1,2.76,1,2.76s3.3,4.27,3.83,5.08,2.16,7.37,2.16,7.37l2.06-.44s-1.37-6.88-1.46-7.5c-.26-1.84-3-6.9-3-6.9"/><path class="cls-1" d="M124.67,13.58l0-1.53a1.53,1.53,0,0,0-3.06,0c0,.28,0,1.25,0,1.53a1.55,1.55,0,0,0,.44,1l-.26,1.82h2V15A1.51,1.51,0,0,0,124.67,13.58Z"/><line class="cls-1" x1="130.58" y1="11.87" x2="133.75" y2="1.85"/><path class="cls-3" d="M120.13,27.36h5.5a40.52,40.52,0,0,0-.42-6s.86-.83-.17-3-1.54-2.58-2.19-2.58c-1.21,0-2,.71-2.32,2.9S120.13,27.36,120.13,27.36Z"/><path class="cls-1" d="M123,23.75l.61,2.82a3.32,3.32,0,0,1,.57,1.88c-.15.75-1.62.62-1.77-.05a3.78,3.78,0,0,1,.25-1.68s-1.68-3.51-1.55-4.27"/><path class="cls-3" d="M121.59,17.54a20.69,20.69,0,0,0-.52,4.91,21.06,21.06,0,0,0,1,4.89l2.15-.29a19.17,19.17,0,0,1-1.08-4.33c0-.81,1-3.61.55-5.11"/><path class="cls-3" d="M119.57,44.61a.68.68,0,0,0-.17-.71,11.33,11.33,0,0,0-1.93-1.54c-.16-.12-.74.34-1.28.2s-.74-.78-.89-.64A1.22,1.22,0,0,0,115,43c0,.19.06.47.26.53Z"/><path class="cls-1" d="M125.14,9.77a1.47,1.47,0,0,1-1.11,2.1c-1,.12-1.61.32-1.58,1.54s-.28,2-1.2,2.21-1.71.18-2.1-.42a1.21,1.21,0,0,1,.26-1.55,1.67,1.67,0,0,0,.71-1.66,1.5,1.5,0,0,1,1.15-1.7,3,3,0,0,0,1.79-.64C123.62,9.13,124.77,9,125.14,9.77Z"/><path class="cls-1" d="M131.84,7.54c-2.14-2.15-6,1-8.15-1.15.56-1.73,1.12-3.47,1.69-5.2,2.14,2.15,6-1,8.15,1.15Z"/><path class="cls-1" d="M259.43,14.07a10.12,10.12,0,0,1,.44-2c.24-.52,1-1.15,1.44-.76a1.28,1.28,0,0,1,.32,1.82c-.54.82-1,1.43-1,1.43"/><path class="cls-2" d="M253.56,19.19s3.63.39,4,.39a1.33,1.33,0,0,0,1.42-.81c.42-.67,1.8-4.06,1.8-4.06l-1.64-.8-1.68,3.55-3.48-.62"/><polyline class="cls-1" points="257.93 40.66 257.63 41.5 258.14 43.66 259.81 43.34 258.96 39.57"/><path class="cls-2" d="M263.35,43.31a.67.67,0,0,0-.55-.58,24.5,24.5,0,0,0-3-.1c-.21,0-.2.55-.79.72s-1.17-.34-1.22-.13a2.38,2.38,0,0,0,.06,1.21.9.9,0,0,0,.48.51Z"/><polyline class="cls-1" points="246.84 40.11 246.33 40.6 245.58 42.37 247.11 43.14 248.39 39.75"/><path class="cls-3" d="M250.91,29.06,246,41l1.85.78s2.74-3.91,3.49-5.23,2-4,2-4"/><path class="cls-3" d="M250.64,27.16c-.35,1.24,1,2.76,1,2.76s3.3,4.27,3.83,5.08,2.16,7.37,2.16,7.37l2.06-.44s-1.37-6.88-1.46-7.5c-.26-1.84-3-6.9-3-6.9"/><path class="cls-1" d="M254.77,13.58l0-1.53a1.53,1.53,0,0,0-3.06,0c0,.28,0,1.25,0,1.53a1.55,1.55,0,0,0,.44,1l-.26,1.82h2V15A1.51,1.51,0,0,0,254.77,13.58Z"/><path class="cls-2" d="M250.23,27.36h5.5a40.52,40.52,0,0,0-.42-6s.86-.83-.17-3-1.54-2.58-2.19-2.58c-1.21,0-2,.71-2.32,2.9S250.23,27.36,250.23,27.36Z"/><path class="cls-1" d="M253.37,23.6l.78,2.78a3.33,3.33,0,0,1,.69,1.84c-.11.76-1.58.72-1.77.06a3.72,3.72,0,0,1,.14-1.7s-1.89-3.4-1.81-4.16"/><path class="cls-2" d="M251.85,16.93A3.36,3.36,0,0,0,251.5,18a27.17,27.17,0,0,0-.1,4.42,21,21,0,0,0,1.28,4.82l2.13-.42a19.29,19.29,0,0,1-1.35-4.26,26.41,26.41,0,0,0,.39-4.42,2.51,2.51,0,0,0-.08-.49"/><path class="cls-2" d="M249.67,44.61a.68.68,0,0,0-.17-.71,11.33,11.33,0,0,0-1.93-1.54c-.16-.12-.74.34-1.28.2s-.74-.78-.89-.64a1.22,1.22,0,0,0-.35,1.11c0,.19.06.47.26.53Z"/><path class="cls-1" d="M251.08,10.82l2,1.38a1.45,1.45,0,0,1,1.64-.77c.48-.82,0-1.62-1.23-1.77A2.31,2.31,0,0,0,251.08,10.82Z"/><path class="cls-1" d="M253,12.19a1.4,1.4,0,0,1-.13,1.53,1.47,1.47,0,0,0,.24,1.81c-.48,0-2.67-.17-2.91-1.37s.32-3,1-3.42C251.4,10.61,252.82,11.74,253,12.19Z"/><path class="cls-1" d="M260.26,8.75c-.27.09.42,4.5,1.09,6.17C261.35,13.11,260.53,8.66,260.26,8.75Z"/><path class="cls-1" d="M260.18,6.16a1.57,1.57,0,0,0-.57,1.12c0,.73.23,1.47.65,1.47s.75-.71.3-1.17A2.09,2.09,0,0,1,260.18,6.16Z"/><path class="cls-1" d="M270.92,25l1-1a6,6,0,0,0,1.66-1.18c.74-.76,1.48-1.61,1.48-1.61s2-.24,1.62-1-1.62-.59-2.09.16a13.33,13.33,0,0,0-3.43,2.74,9.35,9.35,0,0,0-1.88,1.63"/><path class="cls-1" d="M268.94,27.17c-1.19-.19-1.24-1.13-.69-2a4.4,4.4,0,0,1,1.59-1.39L271.38,25S270.16,27.36,268.94,27.17Z"/><path class="cls-1" d="M267.3,38.81c-.19.32-1.13.45-1.13.45l-5.63,2.82.5-1.67a16.38,16.38,0,0,0,2-1.6,3,3,0,0,1,2.64-1l.51-.8"/><path class="cls-2" d="M259.83,39.68s-.63,2.82-.73,3.5c-.17,1.1.27,1.07.27,1.07a.75.75,0,0,0,.95-.55,3.93,3.93,0,0,1,1-1.73A2.07,2.07,0,0,1,261,40.9c0-.69.28-.81.28-.81A1.77,1.77,0,0,0,259.83,39.68Z"/><polyline class="cls-2" points="266.5 33.75 265.46 36.88 267.3 38.81 269.07 36.28"/><path class="cls-1" d="M270.69,37.35a7.3,7.3,0,0,0,.1,2.55c.3,1.17,1.5,2.74,1.75,3.62a3,3,0,0,0,.75.07l.15-.64a22,22,0,0,0-1.27-4.44c0-.88,0-1.48-.14-1.66"/><path class="cls-2" d="M272.91,44.94s2.62-1.23,3.22-1.57c1-.54.68-.86.68-.86a.75.75,0,0,0-1-.42,4,4,0,0,1-2,.29,2.07,2.07,0,0,1-.7.85c-.54.42-.81.27-.81.27A1.81,1.81,0,0,0,272.91,44.94Z"/><path class="cls-2" d="M269.89,31.6l0,1.37,2.26,3.88-2.7,1.32a30.64,30.64,0,0,1-3.3-3.88,3,3,0,0,1,.28-2.85"/><path class="cls-3" d="M268.34,23.78,270,24a17.81,17.81,0,0,1,.66,4.89c-.2,1.72-.5,3.45-.5,3.45l-3.7-.87s-.15-4.2.46-5.89S268.34,23.78,268.34,23.78Z"/><path class="cls-1" d="M269.2,28.08l0,1.38a6.09,6.09,0,0,1,.34,2c0,1.06-.08,1.87-.08,1.87s1.06,1.56.27,1.81-1.38-.7-1.18-1.56a11.54,11.54,0,0,1-.5-4.06,8.89,8.89,0,0,1-.18-2.48"/><path class="cls-3" d="M267.42,26a4.45,4.45,0,0,0,.08,2.11l1.95.28a7.59,7.59,0,0,0,.35-1.69"/><path class="cls-1" d="M271.24,21.24a1.62,1.62,0,0,0-3.24.22c0,.3,0,.8.05,1.09a1.62,1.62,0,0,0,3.24-.22C271.27,22,271.26,21.54,271.24,21.24Z"/><path class="cls-1" d="M276.18,16.38c-.28,0-.72,4.47-.48,6.25C276.16,20.87,276.47,16.36,276.18,16.38Z"/><path class="cls-1" d="M276.75,13.85a1.56,1.56,0,0,0-.82.94c-.22.7-.15,1.49.25,1.59s.91-.5.58-1.06A2.17,2.17,0,0,1,276.75,13.85Z"/><path class="cls-1" d="M240.73,24.8A21,21,0,0,0,245.15,23a6.84,6.84,0,0,0,1.9-3.19c.93-.13,1.32-1.88.3-1.88s-1.13,1.57-1.13,1.57l-2.12,2.68s-3.76.76-3.86,1.62"/><path class="cls-2" d="M241.22,23.26a1.94,1.94,0,0,1,.88,2c-.16,1.44-.28,4.75-.88,6.3-.14.08-3.45-1.08-3.45-1.08s.34-4.25.45-5.2a4.07,4.07,0,0,1,.86-2.47"/><path class="cls-1" d="M240.91,21.75l.08,1.37s.34.26.18.53-1.5.15-2.09-.86c0,.06.49-1.35.49-1.35"/><path class="cls-1" d="M242.32,19.64a1.62,1.62,0,1,0-3.24.22c0,.29,0,.79,0,1.09a1.63,1.63,0,0,0,3.25-.22C242.36,20.43,242.34,19.93,242.32,19.64Z"/><path class="cls-1" d="M239.3,19.47a1.54,1.54,0,0,0-1,1.39,13.84,13.84,0,0,0,.11,3,4.87,4.87,0,0,0,.8-2.67"/><path class="cls-1" d="M242.08,19.15a2.35,2.35,0,0,0-1.57,1.14c-.15-.4-1.12-.19-.86.6l-.28.79a3,3,0,0,1-.42-2,1.73,1.73,0,0,1,2.12-1.7C241.94,18.15,242.17,18.71,242.08,19.15Z"/><path class="cls-1" d="M239.44,23.68c.57.45-.52,2.15-1.11,3.17a7.94,7.94,0,0,1-1,1.41,13.08,13.08,0,0,1-1.27,3c.14.92-.39,1.77-1.18,1.68s.08-1.55.41-1.74a8.56,8.56,0,0,1,1.24-3.77C236.72,26.6,237.8,22.4,239.44,23.68Z"/><path class="cls-1" d="M239.3,34.19s-.69,2.87-1.47,3c-.57.88-3.54,5.17-3.54,5.17l-.89-.51a15,15,0,0,1,1.79-4.11c1-1.29,1.25-1.33,1.25-1.33l1.07-2.33"/><polyline class="cls-3" points="238.32 31.95 237.21 34.36 239.61 35.45"/><path class="cls-1" d="M241.69,34.15s.75,1.39,1,2.08a.87.87,0,0,1,0,.69s.15,3.81.3,4.9.27,1,.27,1L242.38,44a15.85,15.85,0,0,1-1.46-4.76,9.46,9.46,0,0,1,.15-2.33L239.3,34.3"/><path class="cls-3" d="M237.77,30.46a3.18,3.18,0,0,0,0,2.13,13.59,13.59,0,0,0,1.53,2.95L242,34.3l-.73-2.76Z"/><path class="cls-3" d="M242,43.37a2.2,2.2,0,0,0,.76-.16,1.11,1.11,0,0,0,.53-.54,16.24,16.24,0,0,0,1.86.57c.38,0,1,.24.45.64a18.37,18.37,0,0,1-3.35,1.06A1.79,1.79,0,0,1,242,43.37Z"/><path class="cls-3" d="M233.38,41.53A2.15,2.15,0,0,0,234,42a1.08,1.08,0,0,0,.75.07,16.29,16.29,0,0,0,.75,1.79c.21.33.43.88-.2.75a18,18,0,0,1-3-1.9A1.76,1.76,0,0,1,233.38,41.53Z"/><path class="cls-1" d="M247,15.5c-.27.07.11,4.52.67,6.23C247.78,19.92,247.26,15.43,247,15.5Z"/><path class="cls-1" d="M247.08,12.91a1.56,1.56,0,0,0-.64,1.07c-.09.73.13,1.49.54,1.52s.8-.66.38-1.15A2.13,2.13,0,0,1,247.08,12.91Z"/><path class="cls-3" d="M184.94,43.25s-.45.82-.14,1.13a16.28,16.28,0,0,0,5.93-.1c0-.28.1-.86-1-1a3.06,3.06,0,0,1-2.26-1.2"/><path class="cls-1" d="M188.28,11.54s.58-.52.52-1a16.93,16.93,0,0,0,1.83-2.66c.46-1,.84-2.09.84-2.09s2-1.09,1.9-1.76-1.7-2.09-2.58,1a20.06,20.06,0,0,0-3.42,3.69l-1.13.81"/><polyline class="cls-3" points="187.24 14.62 188.73 11.45 185.66 9.14 183.42 11.15"/><path class="cls-2" d="M184.08,34.82a68.34,68.34,0,0,0,.86,8.43l2.57-1.2s.44-4.83.44-9.32a35.32,35.32,0,0,0-.54-6.92l-1.14-2.1h-7.35"/><path class="cls-3" d="M179.76,43.73s-.22.63,0,.86a36.47,36.47,0,0,0,6.14.27c.38-1.61-2.5-1.13-3.12-2.06"/><path class="cls-2" d="M177.4,25.91a15.52,15.52,0,0,0,1.68,2.43c1.06,1.27,1.3,2.74,1.3,5.49s-.79,8.6-.62,9.9l3-.93s1.23-5.48,1.92-8.39,1.44-6.83,1.44-6.83"/><polyline class="cls-1" points="185.04 10.25 185.15 12.31 182.34 11 182.9 8.88"/><path class="cls-3" d="M182.68,10.91a5.11,5.11,0,0,0-2.44,1.4c-1.16,1.16-1.16,3-.82,5.24a3.62,3.62,0,0,1-.61,2.95,7.28,7.28,0,0,0-1.41,5.41,26.94,26.94,0,0,0,10-.1c.85-.86,2.09-7.78,2.09-9.63s-2-2.31-2.75-3-1.6-1.47-1.6-1.47v.62Z"/><path class="cls-1" d="M187.13,7.62a1.89,1.89,0,1,0-3.73-.55c-.05.34-.17,1.23-.22,1.57a1.89,1.89,0,0,0,3.73.55C187,8.85,187.08,8,187.13,7.62Z"/><path class="cls-1" d="M185.36,6.16a1.54,1.54,0,0,1-.77,1.27c-.78.45-1.17.33-1.17.33s.58,2-.73,2.83a20.85,20.85,0,0,1-1.78,1.12c-.36-.47-.11-1.66.2-2.4a7,7,0,0,1,1.11-2c-.28-2.2,2.4-3,3.5-2.44s1.1,1.3,1.1,1.3A3.35,3.35,0,0,1,185.36,6.16Z"/><path class="cls-1" d="M180.79,18.27s-.15.77.17,1.09a16.47,16.47,0,0,0,.14,3.23c.24,1.09.58,2.18.58,2.18s-.93,2.07-.46,2.54,2.62.66,1.46-2.36a20.61,20.61,0,0,0,.51-5l.41-1.33"/><polyline class="cls-3" points="179.76 15.18 180.48 18.62 184.32 18.62 184.91 15.66"/><path class="cls-1" d="M220.49,16.68l.9-2.58a1.41,1.41,0,0,1-.11-.54c0-.29,0-1.32,0-1.61a1.61,1.61,0,0,1,3.22,0c0,.3,0,1.32,0,1.61a1.62,1.62,0,0,1-1.36,1.61L223,16.91Z"/><path class="cls-1" d="M224.37,11.12a9.76,9.76,0,0,1-2.88,2.67s-1.81,4.35-1.51,6.63c-.3.3-1.8.84-1.8-.57s0-5.13,2.06-6.83c-.21-2.29.77-3.48,2.25-3.32C224.58,9.93,224.37,11.12,224.37,11.12Z"/><path class="cls-2" d="M218.44,44.62l4.51.3c0-.43,0-.7-.21-.91-.64-.53-2.91-.6-3-1.32l-1.47-.1s-.12,1.29-.14,1.75c0,.17.14.26.33.28"/><path class="cls-2" d="M225.19,44.93l4.24-.66c-.06-.43-.11-.69-.4-.84-.75-.37-2.75,0-3-.66l-1.46.22s.17,1.29.26,1.74c0,.17.18.23.38.2"/><polyline class="cls-1" points="229.31 27.65 230.58 20.05 234.02 20.57 233.56 23.13 230.17 22.53"/><path class="cls-2" d="M224.17,27.62l-.76,7.08c-.08.72-3.11,8.3-3.11,8.3l-2.19-.47L220.18,34a39.36,39.36,0,0,1-.47-7"/><path class="cls-2" d="M224.58,27.24s1.37,5.83,1.53,7.63.33,8,.33,8l-2.23.25-1.37-8.48s-2.86-3.55-3.34-5.75"/><path class="cls-1" d="M230.21,13.19s.3-2,1.61-1.83.87,2.09-.89,2.43Z"/><path class="cls-3" d="M221.1,16.3c.4-.91,2-.49,3-.22a7,7,0,0,0,2.65.45A44.4,44.4,0,0,0,230,13l1.28.87s-2.39,3.78-2.89,4.44-2.1.82-3.3.78S220.27,18.19,221.1,16.3Z"/><path class="cls-3" d="M221.29,19.32A25.27,25.27,0,0,0,223.34,24c.78.95,4.84,2.1,4.84,2.1l.71-1.43s-3.48-1.88-3.71-2.18a20.74,20.74,0,0,1-.63-3.54c-.22-1.71-2-4.74-3.78-3.71s-1.41,5-1.18,7.56A20.25,20.25,0,0,1,219,29c2.15.89,6.08.38,6.08.38s0-2.1-.31-4.49"/><path class="cls-1" d="M228.78,24.84s1.95-.27,1.95.62-1.36,1.63-2.49.5Z"/><polyline class="cls-1" points="232.36 14.72 229.33 7.63 232.51 6.22 233.5 8.62 230.32 9.95"/><rect class="cls-1" x="53.53" y="31.47" width="2.58" height="3.43" transform="translate(109.65 66.37) rotate(180)"/><path class="cls-1" d="M53.06,30a1.76,1.76,0,1,1,3.52.06c0,.32,0,.44,0,.76a1.76,1.76,0,0,1-3.51-.05Z"/><path class="cls-1" d="M51.17,32.82a7.79,7.79,0,0,1-.88-1.66c-.11-.49-.62-3.85-.62-3.85l1.19-.17.77,3.15,1.1,2.12"/><path class="cls-1" d="M58.56,32.82a7.71,7.71,0,0,0,.89-1.66c.1-.49.61-3.85.61-3.85l-1.19-.17-.76,3.15L57,32.41"/><path class="cls-3" d="M51.61,38.31l.18-4.17-1.5-1.69,1.82-1.64,1.38,1.79a1.17,1.17,0,0,0,1.27.85c1.11,0,1.18-.83,1.18-.83l1.39-1.35L58.71,33l-1.48,1.35.19,4.12"/><path class="cls-1" d="M52,39.1a36.17,36.17,0,0,1,5.34-1.75A1.21,1.21,0,0,1,58,39.63a32.76,32.76,0,0,1-5.41,1.22Z"/><path class="cls-1" d="M56.72,39.09c.66,0,2,.4,2,1.27s-1.72,1.37-2.58.37"/><path class="cls-1" d="M52,39.09c-.66,0-2,.4-2,1.27s1.71,1.37,2.57.37"/><path class="cls-1" d="M56.72,39.1a36.59,36.59,0,0,0-5.34-1.75,1.21,1.21,0,0,0-.72,2.28,33,33,0,0,0,5.42,1.22Z"/><rect class="cls-9" x="50.43" y="19.48" width="8.63" height="8.17" transform="translate(110.81 43.76) rotate(176.53)"/><path class="cls-1" d="M50.47,25.25c-.63-.33-1.79,1.43-.73,2.2C50.16,27.88,51.73,25.92,50.47,25.25Z"/><path class="cls-1" d="M59.26,25.25c.63-.33,1.79,1.43.73,2.2C59.57,27.88,58,25.92,59.26,25.25Z"/><rect class="cls-1" x="64.1" y="31.04" width="2.58" height="3.43"/><path class="cls-1" d="M67.16,29.59a1.76,1.76,0,1,0-3.51.05v.77a1.76,1.76,0,1,0,3.51-.06Z"/><path class="cls-1" d="M69.05,32.39a7.71,7.71,0,0,0,.89-1.66c.1-.49.61-3.86.61-3.86l-1.19-.17-.76,3.16L67.49,32"/><path class="cls-1" d="M61.66,32.39a8.19,8.19,0,0,1-.89-1.66c-.1-.49-.61-3.86-.61-3.86l1.19-.17.76,3.16L63.22,32"/><path class="cls-3" d="M68.61,37.87l-.18-4.16L69.94,32l-1.82-1.64-1.38,1.79a1.18,1.18,0,0,1-1.28.84c-1.11,0-1.18-.82-1.18-.82L62.9,30.84l-1.39,1.77L63,34l-.19,4.11"/><path class="cls-3" d="M68.27,38.66a36.45,36.45,0,0,0-5.34-1.74,1.2,1.2,0,0,0-.71,2.28,33,33,0,0,0,5.42,1.22Z"/><path class="cls-1" d="M63.51,38.65c-.67,0-2,.4-2,1.28s1.72,1.37,2.57.36"/><path class="cls-1" d="M68.27,38.65c.67,0,2,.4,2,1.28s-1.72,1.37-2.58.36"/><path class="cls-3" d="M63.51,38.66a36.64,36.64,0,0,1,5.33-1.74,1.21,1.21,0,0,1,.72,2.28,33,33,0,0,1-5.42,1.22Z"/><rect class="cls-9" x="61.17" y="19.04" width="8.63" height="8.17" transform="matrix(1, 0.08, -0.08, 1, 1.99, -5.01)"/><path class="cls-1" d="M69.75,24.82c.63-.34,1.79,1.42.73,2.2C70.06,27.45,68.49,25.49,69.75,24.82Z"/><path class="cls-1" d="M61,24.82c-.63-.34-1.79,1.42-.73,2.2C60.65,27.45,62.22,25.49,61,24.82Z"/><polyline class="cls-10" points="66.43 40.2 71.29 40.2 78.26 23.13"/><circle class="cls-3" cx="66.74" cy="43.36" r="1.57"/><circle class="cls-3" cx="51.94" cy="43.36" r="1.57"/><path class="cls-2" d="M49.31,38.57v1.52A1.7,1.7,0,0,0,51,41.79H68.58a1.7,1.7,0,0,0,1.69-1.7V38.57"/><line class="cls-1" x1="70.68" y1="38.57" x2="48.69" y2="38.57"/><polygon class="cls-11" points="65.5 26 62.8 20.91 68.95 21.39 65.5 26"/><polygon class="cls-11" points="54.92 26.2 51.55 21.53 57.7 21.15 54.92 26.2"/><path class="cls-12" d="M67.13,29.28A5.43,5.43,0,0,1,64.9,29a8.38,8.38,0,0,1-1.22.27,1.49,1.49,0,0,1,1.5-1.44A1.7,1.7,0,0,1,67.13,29.28Z"/><ellipse class="cls-12" cx="55.13" cy="28.02" rx="0.81" ry="0.71"/><path class="cls-12" d="M56.57,30a2.53,2.53,0,0,1-1.75-1,2.6,2.6,0,0,1-1.76,1s.19-1.91,1.86-1.81A1.74,1.74,0,0,1,56.57,30Z"/><path class="cls-1" d="M78.53,22l-.41,2.7A3.2,3.2,0,0,1,78,26.55c-.39.61-1.64,0-1.55-.64a3.52,3.52,0,0,1,.79-1.41s-.3-3.67.07-4.29"/><path class="cls-2" d="M80.55,15.55c-1.28-.58-2.68,3.39-3.25,4.66a19.7,19.7,0,0,0-.79,4.65l2,.47a17.92,17.92,0,0,1,.5-4.2C79.45,20.17,82.61,16.49,80.55,15.55Z"/><path class="cls-1" d="M86,41.28a2.35,2.35,0,0,0,.43.72,16.46,16.46,0,0,0,1.49,1l-.34.8-3-.4-.28-2.44"/><path class="cls-1" d="M76.31,40.35a2.46,2.46,0,0,0,0,.85,15.13,15.13,0,0,0,.76,1.61l-.71.5L74,41.4l1-2.23"/><path class="cls-3" d="M78,44.27s-.4.17-1.5-.48a16.77,16.77,0,0,1-2.94-2.12l.79-1,2.28,2.18.29-.31a9.89,9.89,0,0,1,.9,1.09A1.56,1.56,0,0,1,78,44.27Z"/><path class="cls-3" d="M80.51,29.21s.82,2,2.39,5.06a24,24,0,0,0,1,7.29l2.4-.28s-.38-5.25-.4-6.23a9.38,9.38,0,0,0,0-2.65c-.26-.92-1.76-5.56-1.76-5.56L84,23l-4.57-.12a8,8,0,0,0-.82,3.52c0,1.93.52,4.43.53,5.16s-.85,2.08-1.62,3.17-3,5-3,5l2,1.44s3.32-5.23,4.36-6.3A4.2,4.2,0,0,0,82,32.5"/><path class="cls-3" d="M89.46,43.75s-.26.36-1.53.38a17.1,17.1,0,0,1-3.61-.29l.13-1.3,3.08.68.08-.42a10.14,10.14,0,0,1,1.34.47A1.5,1.5,0,0,1,89.46,43.75Z"/><path class="cls-1" d="M82.53,12.47l-.19-1.42a1.43,1.43,0,0,0-2.83.38l.19,1.42a1.45,1.45,0,0,0,.2.55l-.23,1.91,1.91.25.1-1.6A1.41,1.41,0,0,0,82.53,12.47Z"/><path class="cls-2" d="M84.32,26.39l-5.69-.72A27.11,27.11,0,0,0,79,21.19c-.33-3.31-.2-6.09,1-6.39,2.18-.54,2.19.56,2.19.56l1.09,1.74s.7.7.71,1.17a6.33,6.33,0,0,1-.44,1.59A52.79,52.79,0,0,1,84.32,26.39Z"/><polyline class="cls-3" points="87.39 9.46 86.63 9.83 87.01 11.02 87.86 10.88"/><path class="cls-3" d="M88,10.43l1.4,3.23,1.26-.83s-1.44-1.2-1.39-2.43"/><path class="cls-3" d="M93.68,8.23a8.4,8.4,0,0,0-1-2.13A3.65,3.65,0,0,1,90.6,8.21c-1,.32-3.33,1.14-3.33,1.14l.28.86.28.86s2.37-.7,3.37-1a3.6,3.6,0,0,1,3,.46A8.65,8.65,0,0,0,93.68,8.23Z"/><path class="cls-1" d="M86.05,13.62,88.25,12s.69-1.08,1.4-1.23,1.17,1.16.64,1.55a3.52,3.52,0,0,1-1.54.43s-2.39,2.82-3.09,3"/><path class="cls-2" d="M81.47,17.18a22.93,22.93,0,0,0,4.19-1.42A14.46,14.46,0,0,0,89,13.42l-1.09-1.75a12.36,12.36,0,0,1-2.76,2.21c-.73.28-3.53.55-4.65,1.52"/><path class="cls-1" d="M82.81,9.64a1,1,0,0,1-.94,1.15c-.18.21-.26.74-.82.85a1,1,0,0,1-1,.61c0,.26.07,1.15-.34,1.15,0,.41,0,.9-.31.9s-1-.51-.73-1A1.75,1.75,0,0,1,79,11.85c-.14-.73,0-1.12.24-1.25,0-.65.07-1.45,1-1.36.43-.31.9-.27,1.1.13C81.61,9,82.69,9,82.81,9.64Z"/><path class="cls-1" d="M202.63,15.26a9,9,0,0,1,2.43-1.86,30.82,30.82,0,0,1,2.88-5.21l-.51-1c-.18-.37,1.19-1.74,1.92-1S209,8.68,209,8.68s-1,3.75-2.14,5.19a4.86,4.86,0,0,1-2.41,2.46"/><path class="cls-2" d="M204.43,17.09c.79-.9,1.63-1.88,1.63-1.88l-1.7-1.67a14.5,14.5,0,0,0-2.92,2.55"/><path class="cls-1" d="M197.06,36.84l-1.6,3.67-.93,1a3.69,3.69,0,0,0,2.68,1.86s-.65-2-.65-2l2.51-3.53"/><path class="cls-1" d="M206.61,33.58a12.25,12.25,0,0,0,0,4.85,18.65,18.65,0,0,0,.82,3.67,5.7,5.7,0,0,0-.15,1.62l.1.32s3.36.08,4.56-1.08a3.21,3.21,0,0,1-1.21,0,11.94,11.94,0,0,1-1.92-1.07l-.18-4.74"/><path class="cls-13" d="M204.61,12l0-1.69a1.68,1.68,0,0,0-3.36.06c0,.3,0,1.37,0,1.68a1.69,1.69,0,0,0,.51,1.18l-.26,1.61,2.38.39-.09-1.77A1.66,1.66,0,0,0,204.61,12Z"/><path class="cls-2" d="M201.2,26.74s3.61,5.79,4.17,7.58S207.15,43,207.15,43l2.47-.32s-.19-7.95-.69-9.48-3.16-6.43-3.16-6.43"/><path class="cls-2" d="M204.58,26.5s-2.44,7.13-3.2,8.59c-.86,1.64-4.75,6.82-4.75,6.82l-2-.77s2.54-5.43,3.16-7.16c.39-1.11,1.15-3.16,1.64-4.94,0,0-.1-2,.48-2.55"/><path class="cls-3" d="M193.78,42.37s3.89,2.41,4.2,2.43.59-.52.39-.71-1.57-2-1.57-2l-1.94-.91a1.91,1.91,0,0,0-.68.43A5.08,5.08,0,0,0,193.78,42.37Z"/><path class="cls-3" d="M207.42,44.94s4.49-.93,4.73-1.12,0-1-.22-1-2.31-.44-2.31-.44l-2.47.54a9.26,9.26,0,0,0,0,.94A9.67,9.67,0,0,0,207.42,44.94Z"/><path class="cls-3" d="M199.71,11.53l4.95-1.66s-.6-1.64-2-1.32C200.76,9,201,11.11,201,11.11"/><path class="cls-2" d="M199.45,26.74s.14-7.26.45-8.83c.54-2.78,1.5-3.89,3-3.89a2.23,2.23,0,0,1,1.4.63,11.87,11.87,0,0,1,1.23,2.82,25.32,25.32,0,0,1,.09,9Z"/><path class="cls-1" d="M203.53,17.31a7.86,7.86,0,0,1-.17,2.83c1.31,1.39,1.82,5.66,1.82,5.66l1.08.32c.39.12.45,2.06-.62,2.06s-1.57-1.91-1.57-1.91S202,23,201.76,21.15a8.41,8.41,0,0,1-.28-3.23"/><path class="cls-2" d="M200.88,16.88A10.11,10.11,0,0,0,201,19.4l2.66-.25a9.22,9.22,0,0,0,0-2"/><path class="cls-2" d="M93.57,43.14a1.92,1.92,0,0,0,0,1.71c-.06,0,3.82.06,4.39.09s1.36-1,.74-1.23-1.89-.67-2.78-1.1C95.82,42.63,93.89,42.55,93.57,43.14Z"/><path class="cls-2" d="M105,43.08a1.93,1.93,0,0,0,.21,1.71c-.06,0,3.81-.5,4.37-.55s1.22-1.18.56-1.33-2-.39-2.93-.69C107.18,42.25,105.24,42.45,105,43.08Z"/><path class="cls-3" d="M98.73,32A67.79,67.79,0,0,0,105,43.3l2.4-1.08s-1-4.06-1.69-6.79-1.54-6.94-1.54-6.94l-7.35.92S94.63,37,93.6,43l2.35.18s3.28-6.62,3.85-8.83"/><path class="cls-1" d="M101.48,17s3.92,1.09,4.61.53,2.29-6.87,2.29-6.87.83-1.18.1-1.84-2.47.3-2.4,1.09a1.24,1.24,0,0,0,.75,1,27,27,0,0,0-2.07,4.72,4,4,0,0,0-1.84-.65"/><path class="cls-2" d="M106.49,11.61l1.88.3s-.87,4.83-2.33,6-7.12-1.34-7.12-1.34l-.11-3,5.75,1.58Z"/><path class="cls-1" d="M103.09,11.76c0-.3,0-1.34,0-1.64a1.77,1.77,0,0,0-1.86-1.63,1.74,1.74,0,0,0-1.8,1.67c0,.23,0,.91,0,1.34l-.37,1.58,2.31,1.59.28-1.28A1.68,1.68,0,0,0,103.09,11.76Z"/><path class="cls-1" d="M103,9.61l-1.89.39s-.89,1.46-1.48,1.48a3.4,3.4,0,0,1-.54-2.14,2.89,2.89,0,0,1,2.12-1.48C102.22,7.86,103.11,7.94,103,9.61Z"/><path class="cls-2" d="M101.68,14.38a31.46,31.46,0,0,1,2.69,7.47,31.3,31.3,0,0,1,.6,7.28s-6.49,2-9.43,0c0,0-.6-7.51,0-11.55s3.51-4.5,3.51-4.5Z"/><path class="cls-1" d="M99.38,21.94l.5,4.73a4.09,4.09,0,0,1,.75,2.23c-.14.92-1.82.9-2,.1a4.82,4.82,0,0,1,.2-2.06s-2.1-4.09-2-5"/><path class="cls-2" d="M96.55,18.16A22.57,22.57,0,0,0,96.24,22c0,1.59,2,5.15,2,5.15l2.31-.46s-.57-3.91-.57-5.11a13.7,13.7,0,0,0-.21-4.3"/><path class="cls-1" d="M36.61,10.78a1.61,1.61,0,0,0-1.38,1.79c0,.29.17,1.3.2,1.59a1.72,1.72,0,0,0,.2.59l-.06,2.34,1.89-.36.08-1.26a1.61,1.61,0,0,0,1.07-1.72c0-.29-.17-1.3-.21-1.58A1.6,1.6,0,0,0,36.61,10.78Z"/><path class="cls-1" d="M38.69,15.91a25.65,25.65,0,0,1,2.41-2.16A16.08,16.08,0,0,1,45,10.48s.62-1.56,1.45-1.29.73.91.37,1.48-1.52.59-1.52.59S43.9,14,42.21,14.94A12.24,12.24,0,0,1,40.47,17"/><polyline class="cls-3" points="38.4 19.51 42.51 15.05 41.18 13.48 36.03 17.06"/><polyline class="cls-1" points="36 41.91 35.65 43.81 34.05 43.52 34.77 41.26"/><polyline class="cls-1" points="29.43 39.34 27.67 40.14 27 38.66 29.27 37.96"/><path class="cls-2" d="M28.76,40.6s.06,2.7-.89,2.9c-.18,0-1.39-5.15-1.39-5.15A2.13,2.13,0,0,1,28.2,38Z"/><path class="cls-2" d="M36.33,43.25s2.63.64,2.57,1.61c-.07.16-5.33,0-5.33,0a2.18,2.18,0,0,1,.09-1.76Z"/><polyline class="cls-3" points="37.59 33.81 36.3 43.25 33.86 43.25 34.54 34.73"/><path class="cls-3" d="M37.66,35.42a11.05,11.05,0,0,1-4,2.64c-1.52.65-4.93,2.54-4.93,2.54L28,38s5.54-2.67,6.29-3.76-1.09-4.56-.22-6.3l4.64.5S38.63,34.34,37.66,35.42Z"/><path class="cls-3" d="M38.51,16.26c1.89,1.89.75,12.21.75,12.21l-5.72-.25s.45-5.44.58-7.53.73-5,2.93-4.92A1.9,1.9,0,0,1,38.51,16.26Z"/><path class="cls-1" d="M38.17,20a26.73,26.73,0,0,1,.42,3.2,16.2,16.2,0,0,1,.5,5.07s.93,1.39.24,1.93-1.16.09-1.43-.53.37-1.59.37-1.59-1.5-2.72-1.29-4.63a12.42,12.42,0,0,1-.74-2.61"/><polyline class="cls-3" points="35.58 18.86 36.88 23.82 39.1 23.23 38.52 18.85"/><path class="cls-14" d="M37.56,11.05c.48,0,.77-1.29.7-1.62s-1,.94-1,.74.21-1.2-.15-1.31,0,1.08-.51,1.19-.11-1.32-.41-1.25,0,1.28-.24,1.33-.44-1.24-.68-1.19.4,1.1.21,1.27-.76-1.08-1-1,.69,1.54.55,1.57-.89-.88-1.2-.72,1,1.08,1,1.24-1.23-.23-1.3,0,1.19.26,1.22.39-1.16.27-1.13.39.93,0,1,.1-.34.23-.3.43.71-.2.73-.08-.61.74-.46.94,1-.8.92-1.06A2.24,2.24,0,0,1,37.56,11.05Z"/><path class="cls-15" d="M37.56,11.05c.48,0,.77-1.29.7-1.62s-1,.94-1,.74.21-1.2-.15-1.31,0,1.08-.51,1.19-.11-1.32-.41-1.25,0,1.28-.24,1.33-.44-1.24-.68-1.19.4,1.1.21,1.27-.76-1.08-1-1,.69,1.54.55,1.57-.89-.88-1.2-.72,1,1.08,1,1.24-1.23-.23-1.3,0,1.19.26,1.22.39-1.16.27-1.13.39.93,0,1,.1-.34.23-.3.43.71-.2.73-.08-.61.74-.46.94,1-.8.92-1.06A2.24,2.24,0,0,1,37.56,11.05Z"/><path class="cls-1" d="M15.05,20c.28.48.77.28,1.54-.12s2.91-2.12,3.23-2.27.43-.18.89-.84,1-4.87,1-4.87,1.37-.69,1.12-1.35-1.64-.9-1.94.84a11.16,11.16,0,0,0-1.72,4.75,40.94,40.94,0,0,0-3.44,2.24C14.88,19,14.77,19.47,15.05,20Z"/><path class="cls-1" d="M18.28,37.59l.62,4.07L17.81,42a9.24,9.24,0,0,1-1.77-4"/><path class="cls-1" d="M12.91,38.48,10,42l-.93-.54s1-3.23,2.18-4"/><path class="cls-2" d="M17.81,42a9,9,0,0,0,.07,3h4.29s.18-.87-.3-.87a3.78,3.78,0,0,1-2.32-1,5.91,5.91,0,0,1-.48-1.63A1.78,1.78,0,0,0,17.81,42Z"/><path class="cls-2" d="M8.92,41.5A18.39,18.39,0,0,0,7.4,44.16a2.09,2.09,0,0,0,1.92.77h1.87s.29-.82-.39-.82c-1.45,0-1.16-1.27-.82-2.16Z"/><path class="cls-1" d="M18.62,15.71l-.19-1.56a1.57,1.57,0,0,0-3.11.38l.19,1.55a.5.5,0,0,0,0,.13l-.81,2.25h1.71l.35-1a1.76,1.76,0,0,0,.46,0A1.58,1.58,0,0,0,18.62,15.71Z"/><path class="cls-1" d="M18.4,12.67c-2-.66-3.26-.48-3.71,1-.29.93.61,3.62,0,4a4,4,0,0,0,2-3.27C17.52,14.32,18.46,13.35,18.4,12.67Z"/><path class="cls-2" d="M15.8,17.91c.91.33,1.41,2.58,1.83,3.31a2.08,2.08,0,0,1-.3,2.43c0,.12-.48,3.06-.48,4s.86,3.15,1.37,5.1A32.49,32.49,0,0,1,18.63,39H10.36a22.3,22.3,0,0,1,1.11-6c-.77-5.44,1.27-7.35,1.27-9.86S13.46,17.06,15.8,17.91Z"/><polyline class="cls-1" points="7.03 24.44 6.72 26.26 4.88 25.66 5.56 23.37"/><path class="cls-1" d="M5.74,36.87a3.21,3.21,0,0,1-.39,1.39C5,38.82,3,42.65,2.71,43c-.15.35,1.19,1.42,1.4,1.54s.26.42-.09.42a7.62,7.62,0,0,1-2-.83c-.43-.25-1-.72-.21-1.25.42-1.19.27-3.8,2.23-5,0-.44,0-1.3,0-1.3"/><path class="cls-1" d="M6.81,36.24l1.51,2.38a9.82,9.82,0,0,0,.39,2.13c.36,1.26.86,2.36.86,2.63s.32,1.11.8,1.11,3-.79,3-1.11-2.07-.12-2.41-.31-.68-3.21-.68-3.65-.46-2.9-1-3.41"/><path class="cls-3" d="M5.6,25.27a2.5,2.5,0,0,1,2,1.87,46.18,46.18,0,0,0,.75,5.09c.26,1,1.64,4.64,1.64,4.64H2.83s.3-2.2.63-3.54c.21-2.8.53-5.06.74-6.45S5,25.27,5.6,25.27Z"/><path class="cls-1" d="M5.45,26c-.86.15-.74,1.52-.56,2.17S5.69,31,6,31a5.33,5.33,0,0,0,3.34-1.55s.76.05.94-.35.09-1.73-1.25-.39a15.37,15.37,0,0,0-2.41.74C6.64,28.75,6.13,25.87,5.45,26Z"/><path class="cls-1" d="M5.11,22.51a1.53,1.53,0,1,1,3-.36c0,.27,0,.86.09,1.13a1.53,1.53,0,1,1-3,.37C5.16,23.37,5.14,22.79,5.11,22.51Z"/><path class="cls-1" d="M7.84,21.07s-.65,2.14-2.61,2.14A6.41,6.41,0,0,1,4.1,26.07c.12.07-1.5-1.43.79-3.09C4.89,21.17,6,20,7.84,21.07Z"/><path class="cls-1" d="M14.54,19.53A44.37,44.37,0,0,0,11.3,22.6c-.45.63-.63,3.7-.77,4.51-.28.5-.91,2.14-.26,2.14a1.51,1.51,0,0,0,1.18-1.76c.3-.86.83-3,1.1-3.92.08-.07,2.6-1.78,3.13-2.76S15.21,18.88,14.54,19.53Z"/></svg>