<svg id="Layer_1" data-name="Layer 1" xmlns="http://www.w3.org/2000/svg" viewBox="0 0 93.76 99"><defs><style>.cls-1,.cls-7{fill:none;}.cls-1,.cls-2,.cls-3,.cls-4,.cls-5,.cls-6,.cls-7{stroke:#3e0443;stroke-linecap:round;stroke-linejoin:round;}.cls-2,.cls-4{fill:#793399;}.cls-2{stroke-width:0.85px;}.cls-3{fill:#f30;}.cls-3,.cls-4,.cls-5,.cls-6,.cls-7{stroke-width:0.5px;}.cls-5{fill:#fff;}.cls-6{fill:#e6e6e7;}</style></defs><title>single-payer</title><line class="cls-1" x1="71.8" y1="15.63" x2="74.01" y2="12.94"/><polyline class="cls-1" points="72.42 14.88 81.44 23.07 83.26 23.63 88.56 28.62 83.26 23.63 82.3 21.67 73.61 13.54"/><polygon class="cls-2" points="87.98 28.61 89.46 30.36 90.32 29.23 88.39 28.03 87.98 28.61"/><path class="cls-3" d="M73.24,43.54l.32,3.14.12,1.58a13,13,0,0,0-.27,2.27,40.72,40.72,0,0,1,.15,4.58c-.19.75-.25,1.32.12,1.72a4,4,0,0,0,1.93.31,3.86,3.86,0,0,0,1.44-.06s.48.4.85.17a.52.52,0,0,0-.28-.92,4.75,4.75,0,0,1-2.14-.95c-.34-.37-.28-1.59-.16-2.31,0,0,.8-4.91,1-5.76A11.93,11.93,0,0,0,76,44.4"/><path class="cls-4" d="M75.48,37.4l.66,7.26-3.4.57-.58-3.5-1.08,3.66-3.36,0s.29-8.14.84-9.1"/><path class="cls-3" d="M66.58,29.83a24.86,24.86,0,0,0-.86,3.49v5.19s-.91,1.6-.15,1.85a1.36,1.36,0,0,0,1.54-1.9,34,34,0,0,0,.32-5l1.34-2.87"/><polyline class="cls-3" points="71.92 23.44 71.92 25.3 73.05 26.06 74.23 25.27 74.23 23.58"/><path class="cls-3" d="M74.59,20.91a1.7,1.7,0,1,0-3.4.24l.13,1.7a1.7,1.7,0,0,0,3.4-.24Z"/><path class="cls-3" d="M79.18,29.5H82c.85,0,.17-4.64-.51-6,.55-1.54,0-2.6-.85-2.77s-1.22,1.92-.38,2.76a18.53,18.53,0,0,0,.42,3.8l-2-.26"/><path class="cls-4" d="M66.28,29.5l2.16,2.35L69.07,30l-.51,6.28,7.19,1.11.17-4.61.67-3.32,2.42.09.47-2.43a17.9,17.9,0,0,0-3.37-1.37c-1.15-.21-2-.43-2-.43l-1.17.7-1-.76s-1.73.11-2.88.32S66.28,29.5,66.28,29.5Z"/><path class="cls-5" d="M71.68,44.69s-.16,7.2-.51,10.07c-.33,2.67-3.51,2.3-3.75-.19s-.19-9.79-.19-9.79Z"/><path class="cls-3" d="M68.43,57.47c1.1.19,2.69-.93,1.62-1.58C68.31,54.82,67.34,57.27,68.43,57.47Z"/><path class="cls-4" d="M73.19,55.5a3.53,3.53,0,0,0-.08,1.64s4,.72,5.54.09c.29-.82-1.32-1-1.77-1.28a13,13,0,0,1-1.29-1s-.41.92-1,.92A4.54,4.54,0,0,1,73.19,55.5Z"/><path class="cls-3" d="M21.88,34a1.33,1.33,0,0,1-.56,2l-.47-2.43"/><path class="cls-4" d="M19.11,53.54l4.51.3c0-.43,0-.7-.21-.91-.64-.53-2.91-.6-3-1.32l-1.47-.1s-.13,1.29-.14,1.76c0,.16.13.26.33.27"/><path class="cls-3" d="M6.9,16.29l.33-1.85s-.52-1.33.62-1.68,2.7,1.52.64,2.33c0,.06-.27,1-.27,1"/><polyline class="cls-3" points="13.34 22.36 13.63 20.79 15.66 20.95 15.85 22.9"/><polyline class="cls-6" points="16.41 22.74 15.98 22.26 14.8 22.74 13.21 21.97 12.89 22.52 13.7 35.12 19.7 34.91 18.37 24.76"/><path class="cls-4" d="M18.14,32.69a56.21,56.21,0,0,1-5.76.25,21,21,0,0,0-.55,4.32,42.29,42.29,0,0,0,.65,5.41l.84,9.58h2.33s.2-7,.35-8.64.15-5.06.15-5.06l2.68,5.06L18.58,52,21,51.82s.59-6.52.79-7.91a12,12,0,0,0-.84-4.61C20.52,38.1,18.14,32.69,18.14,32.69Z"/><path class="cls-6" d="M12.56,22.52a9.39,9.39,0,0,1,1.57,4.93c.12,2.28.4,12.94.4,12.94L9.32,40l1.54-12.93a13.31,13.31,0,0,1-3.18-4.54,21.57,21.57,0,0,1-.94-6.2l1.48-.25L9.61,21l1.49,1.52Z"/><path class="cls-6" d="M19.7,26.79l2.11,12L19.37,39s-2.27-10.89-3-13.44a14.31,14.31,0,0,1-.39-3h2.53c.94,0,1.39.79,2,2.68S21.9,34,21.9,34l-.88.32"/><path class="cls-4" d="M13.08,53.6a1.43,1.43,0,0,1,1.41-1.41A1.5,1.5,0,0,1,16,53.6Z"/><path class="cls-3" d="M16.61,18.62a1.64,1.64,0,1,0-3.27-.26L13.21,20a1.64,1.64,0,0,0,3.27.26Z"/><polyline class="cls-4" points="14.86 23.52 15.23 31.49 16.18 32.12 16.8 31.2 15.12 23.49"/><path class="cls-4" d="M14.65,22.9s-.56.77.26.77-.11-.93-.11-.93"/><path class="cls-7" d="M9.32,14.5s2,.74,2,2.48A5.15,5.15,0,0,1,11,19.3"/><circle class="cls-6" cx="10.92" cy="19.46" r="0.79"/><path class="cls-7" d="M2.21,13.13v-.41S7,12.32,7.12,14s-4.91,1.53-4.91,1.53l0-.49"/><path class="cls-6" d="M51.56,7.75c-.09-.33-.58-3-.58-3l.65-2.31-1.24-.35-.65,2.31s-1.83,2-2.08,2.23-.19.68.07.75l1.43.4.52.15,1.43.4C51.37,8.43,51.64,8.09,51.56,7.75Z"/><path class="cls-6" d="M49.49,6.11a1.48,1.48,0,0,0-.87-.46l-1,1c-.25.24-.19.68.07.75l1.43.4.52.15,1.43.4c.26.07.53-.27.45-.61,0-.11-.11-.5-.2-1A1.79,1.79,0,0,1,49.49,6.11Z"/><polyline class="cls-3" points="45.6 14.11 44.84 17.3 47.16 17.3 46.65 14.11"/><path class="cls-6" d="M44.81,44.11v1.1l-5,0s-.16-1.3,1-1.29a8.23,8.23,0,0,0,2.06-.27"/><path class="cls-3" d="M53.46,7.54,53,5.68a1.88,1.88,0,0,0-.15-1.36c-.37-.64-.87-.69-1.76-.26s-.94,1.42-.18,1.75c.42.18.94.34.94.34l.31,2.08"/><path class="cls-3" d="M42.73,31s-1.06.1-1.41-.66a1,1,0,0,1,.23-1.22l1.3-.12"/><path class="cls-4" d="M50,26.37,43,26.78,42.47,43.7l2.59.22.87-8.32,1.14-3.89.25,5.1L47.59,44h2.22l.35-7.63S51,29.55,50,26.37Z"/><path class="cls-4" d="M43,26.78l0-10.16,1.94-.71,1,1.12,1-1.25,3.34-1.13,1,1.78-1.15.94s1,7.2,0,9Z"/><path class="cls-6" d="M44.28,16s-1.52.06-1.78.94-.91,6.19-.91,6.19l0,5.87h1.3L43,21.69l-.39,11.36s1.85-.93,2-2C45.15,25.35,44.28,16,44.28,16Z"/><path class="cls-6" d="M47.46,15.07l-.18,1s-.25,8.08,1,12.36a15.39,15.39,0,0,0,2.31,4.87l1.95-.81L51.22,16.87s2.33-3.18,2.93-3.77-.35-5.94-.35-5.94l-2.21.24.3,4L50,14.28A2.9,2.9,0,0,0,47.46,15.07Z"/><path class="cls-6" d="M50.11,45.21s.4-1.43-1.45-1.44-1.32,1.42-1.32,1.42Z"/><path class="cls-3" d="M47.92,12.58a1.58,1.58,0,0,0-3.14-.43l-.21,1.57a1.58,1.58,0,1,0,3.13.42Z"/><circle class="cls-3" cx="46.67" cy="10.36" r="1.12"/><path class="cls-3" d="M46.45,11.61a3.89,3.89,0,0,1-1.9,1.11s-.14-2.44,1.91-2.25,2.06,1.85,1.36,2.84A3.15,3.15,0,0,1,46.45,11.61Z"/><rect class="cls-3" x="23.74" y="66.99" width="4.62" height="10.48"/><path class="cls-3" d="M23.29,85.82s1.59,5.84,1.59,6.52-.94,1.9-.94,2.31,1.88-.08,2.4-1,.15-8.32.15-8.32"/><path class="cls-4" d="M25.87,93.61a2.13,2.13,0,0,1,.21,1.27,7.85,7.85,0,0,1-2.16.77c-.51,0-.86-.32-.41-.94s.74-.93.74-.93a2.36,2.36,0,0,0,.84.17A1.21,1.21,0,0,0,25.87,93.61Z"/><path class="cls-3" d="M26.34,86.06a16.85,16.85,0,0,0-.41,4.48c0,1.8-.3,2.77-.3,3.79a5,5,0,0,0,.71.32h1.15a4.85,4.85,0,0,1-.27-2.11c.14-1.05,1.29-4.42,1.29-5.77"/><path class="cls-4" d="M24.54,73.83l3.73.26a19.86,19.86,0,0,1,1.62,7,12.44,12.44,0,0,1-1.22,5.64l-5.36-.45-.22-7.76"/><polyline class="cls-3" points="24.94 64.42 24.72 66.63 25.93 68.09 27.31 66.82 27.69 65.5 26.48 63.25"/><path class="cls-6" d="M29.64,69.17l2.55,15.64-3.53.64c-.94-4.73-2.55-14.73-2.29-16.42a12.16,12.16,0,0,1,1.32-3.53A1.39,1.39,0,0,1,29,65a6.89,6.89,0,0,0,2.39-1.91,14.61,14.61,0,0,0,1.34-4.58l1.74.58s-.81,5.37-1.25,6.58S29.64,69.17,29.64,69.17Z"/><path class="cls-6" d="M24.49,65.5s.79.6,1,3.12,0,16.83,0,16.83l-5-.83s1.28-7.77,1.54-9.8.56-3.27.56-3.27"/><path class="cls-6" d="M23.55,70.14V72.3l3.42.47-.46,2.11s-3.05-.38-3.76-.55-1.37-.71-1.37-2.28a23.42,23.42,0,0,1,.56-4.92,10.86,10.86,0,0,1,2.55-1.4"/><path class="cls-3" d="M23.76,62.32a1.7,1.7,0,1,1,3.36-.46c0,.3.13,1.1.18,1.41a1.7,1.7,0,1,1-3.36.46C23.9,63.43,23.8,62.63,23.76,62.32Z"/><path class="cls-3" d="M24.72,61.18a1.44,1.44,0,0,0-.66,1.28c0,1,.65,2.19.58,3a6.7,6.7,0,0,1-1.37.78,20.29,20.29,0,0,1,0-4.61,2.27,2.27,0,0,1,1.63-1.75,1.79,1.79,0,0,1,2.07.82c.62.93,2.47,3.56.54,5.71a2.12,2.12,0,0,1-.37-2.34c.25-.65-.23-1.61-.4-2.16a1.6,1.6,0,0,0-1.21-1A1.16,1.16,0,0,0,24.72,61.18Z"/><path class="cls-3" d="M26.84,73.38s2.14-.24,2.14.4.24,1.1-.83,1.1a2,2,0,0,1-1.53-.53Z"/><path class="cls-3" d="M33.09,58.63s.74-1.87.93-2.21,1.24-1.56,1.59-.81-.16,2-1,2a4.43,4.43,0,0,1-.47,1.27Z"/><path class="cls-4" d="M25.54,93.71a2.24,2.24,0,0,0-.11,1.35,27.49,27.49,0,0,0,3.49.94c.51,0,.59-.72.11-.94S27.25,94,27.25,94a2.16,2.16,0,0,1-.83.18A1.51,1.51,0,0,1,25.54,93.71Z"/><path class="cls-7" d="M65.89,76.8s-1.22-.12-1.86-.21-1,.61-1.15,2-1.1,10.48-1.1,10.48l-10-.77.3-2.24"/><ellipse class="cls-1" cx="53.94" cy="87.35" rx="6.51" ry="5.51" transform="matrix(0.02, -1, 1, 0.02, -34.67, 139.18)"/><path class="cls-3" d="M54.58,73.24a14.61,14.61,0,0,1-2.83-2.5c-.45-1.23.31-5.69.31-5.69s-.31-1.83.18-2.23,1.23.37,1.24.87A3.94,3.94,0,0,1,53,65.07s.54,3.45.56,4.71a27.23,27.23,0,0,1,4.9,3.14c.42.49.07,1.21-.83,1.33A5.07,5.07,0,0,1,54.58,73.24Z"/><polyline class="cls-4" points="52.83 85.87 62.02 86.78 63.05 77.24 57.78 76.69"/><path class="cls-3" d="M47.25,92.13l-1.72.79a2.57,2.57,0,0,0,1.36.65,3.31,3.31,0,0,0,2.39-.65"/><path class="cls-4" d="M49.36,93a3.86,3.86,0,0,1-.25,1.34,18.6,18.6,0,0,1-4.62-.48c-.43-.17-.63-.75-.06-.89a3.69,3.69,0,0,1,1.1-.07s.21.43,1.09.65A6.45,6.45,0,0,0,49.36,93Z"/><path class="cls-3" d="M48.67,93l-1.63,1a2.62,2.62,0,0,0,1.42.52c.79,0,2.14-.48,2.31-.9"/><path class="cls-4" d="M50.86,93.58a3.91,3.91,0,0,1-.11,1.36,18.47,18.47,0,0,1-4.66,0c-.44-.13-.69-.69-.14-.88A3.43,3.43,0,0,1,47,93.87s.24.41,1.14.54A6.48,6.48,0,0,0,50.86,93.58Z"/><path class="cls-6" d="M54.58,81.74s-4.3.12-5,.21-1.38,1-1.66,3.47c-.23,2.13-.68,6.76-.68,6.76l1.24.31"/><polyline class="cls-3" points="57.45 70.91 57.31 72.56 56.6 73.07 56.08 75.77 59.91 75.93 59.97 72.02 59.57 70.3"/><path class="cls-3" d="M60.1,68.64a1.63,1.63,0,1,0-3.26-.2l-.1,1.64a1.64,1.64,0,1,0,3.27.19Z"/><path class="cls-4" d="M57.5,72.05s-1.08,2.56-.2,2.65c1.16.11,1.73-.34,2.43-1.88a4.37,4.37,0,0,0,.24-1l1.36.29s.55,7.62,0,9.89l-6.18-.56a21.17,21.17,0,0,0,.91-3c0-.55-.87-.58-.39-2.81a20.6,20.6,0,0,1,1.25-3.88Z"/><path class="cls-6" d="M61,82s0,3.68-1.67,3.56-5.73-.32-5.73-.32a40.09,40.09,0,0,1-2.76,8.32c-.1-.1-2.43-.68-2.43-.68s1.81-6.65,2.22-8.23c.58-2.23,1.44-2.38,2.32-2.52l3.47-.57Z"/><ellipse class="cls-7" cx="52.46" cy="94.14" rx="1.88" ry="1.59" transform="matrix(0.02, -1, 1, 0.02, -42.52, 145.07)"/><path class="cls-3" d="M62.72,76a15.22,15.22,0,0,1-1,3.88c-.88,1-5.06,2.26-5.06,2.26s-1.48,1.13-2.07.88-.24-1.26.2-1.51a3.86,3.86,0,0,1,1.43-.22s2.8-2.09,3.9-2.7a28,28,0,0,1,.49-5.8.87.87,0,0,1,1.58-.19A5.7,5.7,0,0,1,62.72,76Z"/><ellipse class="cls-1" cx="61.57" cy="89.25" rx="6.51" ry="5.51" transform="translate(-28.68 149.36) rotate(-89.07)"/><path class="cls-3" d="M57,67.86c-.15-.32-.11-1.74-.4-2.65-.12-.36.76.13,1-.08s.24-.74.77-.51.2.74.61.75.41-.65.69-.48-.08.94.27,1.13.9,0,1,.4-.44.68-.35,1,.43.5.11.81-.34,2.19-.61,1.91-.22-1.62-1.15-2.06A3.19,3.19,0,0,0,57,67.86Z"/><path class="cls-3" d="M13,19.94l.8-.21a4.57,4.57,0,0,1,.32-1.65,5.48,5.48,0,0,1,2.29-.49c.27-.92-.74-1.39-1.71-1.39a2,2,0,0,0-2,1.29A5.34,5.34,0,0,0,13,19.94Z"/></svg>