<svg id="Layer_1" data-name="Layer 1" xmlns="http://www.w3.org/2000/svg" viewBox="0 0 97 48"><defs><style>.cls-1{fill:#f30;}.cls-1,.cls-2,.cls-3{stroke:#3e0443;stroke-linecap:round;stroke-linejoin:round;stroke-width:0.5px;}.cls-2{fill:#793399;}.cls-3{fill:#e6e6e7;}</style></defs><title>solidarity-in-action</title><path class="cls-1" d="M81,31.25a18.22,18.22,0,0,1-.48,2.63,13,13,0,0,1-1.07,6c-.36,1.09-.68,2.3-.35,3a7,7,0,0,1-2.42-.38,3.22,3.22,0,0,0,1-1.93c.21-1,.47-6.4.59-7a4.18,4.18,0,0,1,0-1.37V30.7"/><path class="cls-2" d="M76.58,42.6c-.63.45-2.11.49-2.16.85s0,.81.54.81H79s.32-2.53-.14-3L77.54,41A3.59,3.59,0,0,1,76.58,42.6Z"/><path class="cls-1" d="M82,30a35,35,0,0,1,1.06,3.85,13.81,13.81,0,0,0,.53,6.05c.3,1.11.56,2.33.19,3a7.07,7.07,0,0,0,2.45-.26,3.21,3.21,0,0,1-.88-2c-.16-1,.1-6.42,0-7,.16-.48-.93-1.36-.93-1.36l.07-1.5"/><path class="cls-2" d="M86.4,42.62c.63.45,2.11.49,2.16.85s0,.81-.54.81H84s-.32-2.53.14-3L85.44,41A3.59,3.59,0,0,0,86.4,42.62Z"/><polyline class="cls-1" points="83.21 18.29 80.97 18.54 80.69 14.9 81 13.04 82.92 13.24 82.95 14.9"/><path class="cls-1" d="M87.1,17.68l.92.73,4-.68a4.84,4.84,0,0,1,1.37-1.17c.63-.3,1.22,0,1.2.58s-.15,1.41-2.1,1.52a36.33,36.33,0,0,1-4.08,1.56c-.7.12-2.35-1.12-2.35-1.12"/><path class="cls-3" d="M78.91,24.5l-.38-5.44-1.28.09L76,17a15.5,15.5,0,0,1,2.14-1.55,11.36,11.36,0,0,1,2.29-.82l1.4,1.48,1.41-1.51s.84.15,2.2.55c.54.16,1.89,2.42,1.89,2.42L86,19.47l-1-.67-.35,8.13a7.33,7.33,0,0,1-3.67.74c-2.3-.15-2.5-.87-2.5-.87"/><path class="cls-1" d="M80.54,11.1a1.57,1.57,0,0,1,3.11.41l-.21,1.55a1.56,1.56,0,0,1-3.1-.4Z"/><polygon class="cls-3" points="80.18 20.22 79.4 14.77 79.67 14.73 80.45 20.18 80.18 20.22"/><rect class="cls-3" x="80.64" y="17.26" width="5.67" height="0.27" transform="translate(112.1 -62.92) rotate(97.85)"/><path class="cls-2" d="M78.42,23.61a23.5,23.5,0,0,0,1.44-5.31h3.63s-.17,3.42,1.43,5.09a54,54,0,0,1,.41,11.68H82.68L81.85,30l-1.3,5.08H77.76l.67-10.28Z"/><path class="cls-1" d="M82.27,11a1,1,0,0,0,1,.53c.36-.05.33-.25.33-.25s.43.11.49-.44a.74.74,0,0,0-.47-.75s0-.67-.85-.57a.78.78,0,0,0-1.15-.07c-.32-.13-1-.1-1.09.51-.33.15-.32.72-.14.81,0,.18.47.45.64.32a1.39,1.39,0,0,0,.27-.55A1.7,1.7,0,0,0,82.27,11Z"/><path class="cls-1" d="M68.84,12.72a14.66,14.66,0,0,0-3.52,1.86c-.15.25.73,1.7.73,1.7L69.4,15"/><polyline class="cls-1" points="56.39 41.25 56.28 42.85 54.55 43.01 54.55 41.01"/><polyline class="cls-1" points="63.17 41.25 63.27 42.85 65.02 43.01 65.02 41.01"/><path class="cls-2" d="M65.17,42.49s2.72.62,2.78.92,0,.66-.6.66H62.86S62.51,43,63,42.56A3,3,0,0,0,65.17,42.49Z"/><path class="cls-2" d="M54.41,42.47s-2.64.88-2.68,1.17.09.66.66.61l4.47-.41s.25-1.12-.3-1.49A3,3,0,0,1,54.41,42.47Z"/><path class="cls-3" d="M56.49,21.51s-.68,4.92-1,7.38-.81,9-1.08,12.66l2.18.12s1.43-8.05,1.74-9.56,1.6-5.59,1.6-5.59c.21,1.6,1.07,4.33,1.7,8.17C62,36.88,63,41.74,63,41.74l2.16-.13a105.26,105.26,0,0,0-.73-10.72c-.57-3.46-1-9.38-1-9.38Z"/><path class="cls-2" d="M45.36,44.06l-4.51.29c0-.43,0-.7.21-.9.64-.53,2.91-.6,3-1.32l1.47-.1s.13,1.29.14,1.75c0,.17-.13.26-.33.28"/><path class="cls-2" d="M50.17,44.06l4.51.29c0-.43,0-.7-.21-.9-.64-.53-2.91-.6-3-1.32L50,42s-.13,1.29-.14,1.75c0,.17.13.26.33.28"/><path class="cls-2" d="M50.62,23.21s-3.79.34-7.36.34a32.12,32.12,0,0,0-.55,4.33c-.19,4.14.82,14.88.82,14.88h2.33s.2-7,.35-8.63a42.46,42.46,0,0,1,1.09-5.06l1.9,5.06.44,8.39L52,42.33s.06-6.5.11-7.9A38.48,38.48,0,0,0,50.62,23.21Z"/><polyline class="cls-1" points="44.63 10.93 44.07 13.57 47.23 13.75 46.67 9.34"/><path class="cls-1" d="M47.53,8.53a1.71,1.71,0,0,0-3.41-.19L44,10a1.7,1.7,0,1,0,3.4.19Z"/><polyline class="cls-1" points="58.75 8.68 58.19 11.31 61.35 11.49 60.79 7.08"/><path class="cls-1" d="M61.65,5.78a1.7,1.7,0,1,0-3.4-.19l-.1,1.7a1.7,1.7,0,1,0,3.4.19Z"/><path class="cls-3" d="M42.64,24.74s5.21,1.35,8.32-.45a4.05,4.05,0,0,0,.23-1.85,24.25,24.25,0,0,0-1.34-6.68s1.48,2,2.11,2a5.25,5.25,0,0,0,2.91-1l-1.6-1.53s-2.5-2.39-2.85-2.74-3.14-.45-3.14-.45L45.75,13l-1.61-.67A23.76,23.76,0,0,0,39.4,15a2.75,2.75,0,0,0-.25,3.69c.8.8,3.51-.7,3.51-.7s-.18,4.32-.18,5.12A9.74,9.74,0,0,0,42.64,24.74Z"/><path class="cls-1" d="M19.88,36.8s.14,4,0,4.73a3.46,3.46,0,0,1-1.78,1.88c-.54.2-.58.54.11.54s2.65,0,3.24-.62a9.7,9.7,0,0,0-.14-1.84c0-.63.92-3.1.52-5"/><path class="cls-2" d="M18.85,42.79s.13.32.69.32a16,16,0,0,0,2.05-.32.51.51,0,0,1,0,.59,8.21,8.21,0,0,1-2.05.61c-1.17.19-2,.25-2-.19S18.85,42.79,18.85,42.79Z"/><path class="cls-1" d="M29.53,36.74s.27,4,.49,4.71a3.43,3.43,0,0,0,2,1.69c.56.14.63.47-.06.54s-2.64.24-3.29-.29a9.63,9.63,0,0,1,0-1.83c-.07-.64-1.23-3-1-4.88"/><polyline class="cls-1" points="24.17 10.27 23.53 14.54 26.59 14.54 26.09 9.24"/><path class="cls-2" d="M31.17,42.6s-.1.32-.66.38a15.93,15.93,0,0,1-2.07-.1.51.51,0,0,0,0,.59,8.52,8.52,0,0,0,2.1.39c1.19.07,2.07,0,2-.39S31.17,42.6,31.17,42.6Z"/><path class="cls-1" d="M26.77,8.38a1.7,1.7,0,1,0-3.4,0v1.7a1.71,1.71,0,0,0,3.41,0Z"/><path class="cls-3" d="M23.59,12.07l1.48,1.58,1.59-1.58a8.68,8.68,0,0,1,2.25.95c.41.42,3.37,2.62,3.37,2.62l-.89,1.53-3.2-1.45,0,5.79H22.08l-.56-5.75-2.93,3L17.6,17s2.58-3.5,3.73-4.17A5.54,5.54,0,0,1,23.59,12.07Z"/><path class="cls-2" d="M22.08,21.51s-1,4.92-1.31,7.38-1.25,9.16-1.5,12.77l2.42.4s1.34-8.44,1.62-10a55.75,55.75,0,0,1,1.81-5.59c.18,1.6,1.21,4.17,1.77,8,.32,2.19,1.32,7.37,1.32,7.37l2.34-.47s-.6-7.25-1.12-10.7-1.2-9.21-1.2-9.21Z"/><path class="cls-2" d="M9.42,41.57a3.81,3.81,0,0,1,.29,1.22A15.26,15.26,0,0,1,4.92,44C4.46,43.51,5.3,43,6,42.56a4.73,4.73,0,0,0,1.23-1.14Z"/><polyline class="cls-3" points="10.2 10.18 11.74 9.78 14.24 10.01 12.81 17.7 10.36 17.96"/><path class="cls-2" d="M14.59,41.47a5.24,5.24,0,0,0-.2,1.22,15.56,15.56,0,0,0,4.79,1.25c.46-.53-.37-1.09-1.06-1.48a4.93,4.93,0,0,1-1.23-1.14Z"/><path class="cls-2" d="M8.08,23.35v8.57a69.07,69.07,0,0,1-.9,9.64l2.21.14s.95-4.33,1.43-6.91,1.89-7.22,1.89-7.22.89,3.91,1.18,6.39.79,7.74.79,7.74l2.43,0s-.43-17.55-.84-19.41"/><polyline class="cls-1" points="11.32 8.52 11.16 9.82 12.22 10.79 13.58 9.95 13.31 7.4"/><path class="cls-1" d="M14,6.2a1.71,1.71,0,0,0-3.41,0V7.91A1.71,1.71,0,0,0,14,7.9Z"/><path class="cls-3" d="M12.23,10.79l-.47.53s.11.29.29.35-.38,2.41-.38,2.41l-.23,2.39,1.57.11-.17-2.68-.49-2.25a.63.63,0,0,0,.27-.39Z"/><path class="cls-2" d="M7.49,11l3.42-1.25,1,6.5,1.9-6.46,3.26,1.54-1.25,7.53s.83,4,1.25,7.82c-.21-.2-4.27,1.07-4.77-2.66-.45,2.37-3.41,3.08-4.77,3.08L8,17.71,7.56,16"/><line class="cls-2" x1="11.94" y1="16.28" x2="12.33" y2="24.05"/><path class="cls-2" d="M7.49,11c-.53.18-3.13,5.43-3.13,5.91a2.55,2.55,0,0,0,.71,1.71,32.79,32.79,0,0,0,3.26,2.14l1.06-2.43L7.18,16.7l.68-1.19"/><path class="cls-2" d="M16.83,11.24a3.72,3.72,0,0,1,1.75,2.08,19.09,19.09,0,0,1,.53,5.45c-.23.77-2.72,2-4.8,2.67a9.42,9.42,0,0,1-.94-1.84l3.73-2.15-1-2.06"/><path class="cls-1" d="M9.26,18.67s2.19-.54,2.19.31a1.73,1.73,0,0,1-1.53,1.75,1.7,1.7,0,0,1-1.29-.62Z"/><path class="cls-1" d="M13.46,19.82s-1.93,0-1.93.72.32,1.79,1.27,1.79,1.28-1.19,1.28-1.19Z"/><path class="cls-1" d="M16.23,16.59c-.87.19-1.11,2-.52,2.14s1-.41,1.24-1.07S16.84,16.47,16.23,16.59Z"/><path class="cls-1" d="M35.11,31.85a8.9,8.9,0,0,0-.69,2,11.94,11.94,0,0,1-1.18,6c-.4,1.09-.75,2.3-.38,3a8.6,8.6,0,0,1-2.69-.38,3.11,3.11,0,0,0,1.08-1.93c.23-1,.52-6.4.66-7a3.66,3.66,0,0,1,0-1.37V30.7"/><path class="cls-2" d="M30.18,42.5s-2.43.59-2.5,1,0,.81.6.81h4.5s.35-1.33-.16-1.84C32.21,42.89,30.18,42.5,30.18,42.5Z"/><path class="cls-1" d="M36.93,31.85a8.9,8.9,0,0,1,.69,2,13.52,13.52,0,0,0,.52,6c.39,1.09.74,2.3.38,3a6.64,6.64,0,0,0,2.41-.35c-.59-.51-.7-.86-.81-2s.15-6.4,0-7a3.66,3.66,0,0,0,0-1.37V30.7"/><path class="cls-2" d="M40.93,42.5s2.43.59,2.5,1,0,.81-.6.81H38.34s-.35-1.33.15-1.84C38.9,42.89,40.93,42.5,40.93,42.5Z"/><polyline class="cls-1" points="34.37 9.86 33.96 12.52 37.12 12.52 36.31 8.15"/><path class="cls-1" d="M37.12,7.3a1.71,1.71,0,1,0-3.41,0V9a1.7,1.7,0,1,0,3.4,0Z"/><path class="cls-3" d="M32.28,24.29c-.49.85-.65,6.07-.55,7.1,0-.07,3.7.85,3.7.85l.67-3.35.6,3.31,3.95-.59s-.36-5.06-1.27-7.24"/><path class="cls-2" d="M33.9,11.49a2.59,2.59,0,0,0,1.67.71,2.15,2.15,0,0,0,1.58-.93,13.07,13.07,0,0,1,3.22,1.51,8.41,8.41,0,0,1,1.14,2.31l-2.09,1.28L39,15.74s.53,8.24.53,8.57c-1.15.71-6.65.5-7.25-.32.2-3.06.49-8.19.49-8.19l-.3,1L30,16.09a16.91,16.91,0,0,1,1.26-3.28C31.81,12.07,33.9,11.49,33.9,11.49Z"/><path class="cls-1" d="M39.59,16.27A12.75,12.75,0,0,0,40.92,18c-1.39-.09-3.28.58-3.93.58-.67-.42-2.19-.43-2.39.4s1.65,2.14,2.41.82c2.11.4,5.25.09,5.8-.57s-1.08-3.68-1.58-4Z"/><path class="cls-1" d="M30.3,16.19c-.5.95-1,3-.66,3.6.47.71,3.25,1.25,5.38,1.1.61,1.4,2.6.3,2.49-.54s-1.62-1-2.32-.68c-.65-.07-2.36-1-3.75-1a10.52,10.52,0,0,0,.83-1.89Z"/><path class="cls-1" d="M32.17,17.55c-.59.34-1,2-.29,2s1.88-1.48,1.72-2S32.76,17.21,32.17,17.55Z"/><path class="cls-3" d="M40.28,17.24l3,3.34S42,22.24,42,22.14a10.26,10.26,0,0,1-2.46-2.66,3.51,3.51,0,0,1-.38-1.33l0-.73"/><path class="cls-3" d="M59.82,11a1.3,1.3,0,0,1-1.36-1.39,9.75,9.75,0,0,0-3.29,1.51,11.23,11.23,0,0,0-2.64,3.06l2.74,1.59.84-.63s-.22,7.51-.48,8.54c3,.73,7,1.49,8.27,0,0,0,0-8.58,0-8.58l.23.52,2.75-.69s-1.57-3.11-2-3.78A2.84,2.84,0,0,0,63.09,10c-.62-.15-1.92-.41-1.92-.41A1.37,1.37,0,0,1,59.82,11Z"/><path class="cls-1" d="M66.53,15.14s.51,2.3-.45,2.89a19.51,19.51,0,0,1-3.88,1.23,2.78,2.78,0,0,1-1.21.27,1.23,1.23,0,0,1-1-1.34,1.22,1.22,0,0,1,1-.85c.5-.11,1.12.6,1.12.6a7.72,7.72,0,0,1,2.76-1.16l-.18-1.22Z"/><path class="cls-1" d="M52.61,14.2a6.33,6.33,0,0,0-.89,1.54A1.4,1.4,0,0,0,52.77,17a27.33,27.33,0,0,0,3.67-.11,12.24,12.24,0,0,0,2.07.35c.68,0,.42-1.83,0-2a2.54,2.54,0,0,0-1.93.49A20.44,20.44,0,0,0,54,15Z"/><path class="cls-1" d="M53.52,14.35c-.52.52.24,1.81.84,1.81s1.48-.32,1.23-1.43S53.67,14.19,53.52,14.35Z"/><path class="cls-1" d="M25.85,7.67c-.07.46-.79-.15-1.05,0s.28.44-.11.67-.89-.08-1.06.15,0,.84-.47.93-1-.59-1-.59S23.1,8.6,23,8s.08-.76.51-.76.11-.81.6-.81.55.48.91.28,1-.67,1.17-.47a4.6,4.6,0,0,1,.43,1.19S25.93,7.21,25.85,7.67Z"/><path class="cls-1" d="M42.35,21.76s0,1.95,1.43,1.3c1.63-.75-.3-2.25-.69-2.25C43.21,20.81,42.35,21.76,42.35,21.76Z"/><path class="cls-1" d="M63.22,16.26C63,17.09,64.44,19.52,66,21c-.65,1.38,1.5,2.14,2.06,1.5s-.32-1.88-1-2.19a37.49,37.49,0,0,0-2-3.75C65.19,15.29,63.39,15.61,63.22,16.26Z"/><path class="cls-1" d="M37.3,7s.09,1.05-.1,1-.35-.93-.45-1.06c-.5-.63-2.39-.52-2.79-.1a5.13,5.13,0,0,0-.4,1c-.42-2.24.56-2.68,1.77-2.69A1.77,1.77,0,0,1,37.3,7Z"/><path class="cls-1" d="M70.92,31.85a10.2,10.2,0,0,0-.62,2,12.89,12.89,0,0,1-1.07,6c-.36,1.09-.67,2.3-.34,3a7.09,7.09,0,0,1-2.43-.38,3.18,3.18,0,0,0,1-1.93c.2-1,.46-6.4.59-7a4.18,4.18,0,0,1,0-1.37V30.7"/><path class="cls-3" d="M66.47,42.5s-2.2.59-2.26,1,0,.81.54.81h4.07s.31-1.33-.15-1.84C68.31,42.89,66.47,42.5,66.47,42.5Z"/><path class="cls-1" d="M72.75,31.85a10,10,0,0,1,.61,2,15.3,15.3,0,0,0,.46,6c.36,1.09.67,2.3.34,3a5.33,5.33,0,0,0,2.15-.35c-.52-.51-.62-.86-.72-2s.14-6.4,0-7a4.18,4.18,0,0,0,0-1.37V30.7"/><polyline class="cls-1" points="70.06 10.86 69.61 16.28 73.11 16.28 72.21 9.15"/><path class="cls-1" d="M73.05,8.92a1.7,1.7,0,1,0-3.36-.54l-.27,1.68a1.7,1.7,0,1,0,3.36.54Z"/><path class="cls-2" d="M68.69,22.3a53.13,53.13,0,0,0-1.14,10.09,8.88,8.88,0,0,0,4.34.48,11.16,11.16,0,0,0,4.58-1.26s-1.27-8-2.18-10.14"/><path class="cls-2" d="M69.72,12.49s.7,2.38,1.66,2.38S73,12.27,73,12.27l.77.19.66,3.35a38.65,38.65,0,0,1,0,6.16c-1.15.71-5.08.91-5.68.09a25.76,25.76,0,0,0-.14-5.26l.34-4.18Z"/><path class="cls-1" d="M75.82,13.52a2.21,2.21,0,0,0-2.08-1.06l.69,3.43A27.19,27.19,0,0,0,76.84,19,27.48,27.48,0,0,0,73,20.13c-.71-.32-2.23-.13-2.31.72s1.92,1.9,2.5.49c2.14.11,5.24-.76,5.42-1.6C78.93,18.42,76.15,14.21,75.82,13.52Z"/><path class="cls-1" d="M71.31,6.87a5.83,5.83,0,0,1-1.54,2.28s.67,2.54-1.22,3c.3-.58-.71-1.15-.74-2.83S69.32,6,70.57,6.1c.69-.68,2.37-.09,2.75.85s1.93,2.72,1.1,3.53a1.26,1.26,0,0,0,.1,2.12s.36,1.18-.7,1.29a2.1,2.1,0,0,1,.63,2.44,1.76,1.76,0,0,1-1.82,1.23s.65-2,.17-2.84a2.71,2.71,0,0,1-.4-2.54,2.88,2.88,0,0,0,.13-2.51C72.14,9.2,73.58,7.29,71.31,6.87Z"/><path class="cls-1" d="M75.92,19.69c.68.22,3,2.94,2.94,2.9,1.74.89,1.77,1.68,1.4,2.07a.91.91,0,0,1-1.21.14,2,2,0,0,1-1-1.53,29.1,29.1,0,0,1-3.16-2c-.37-.43-.64-.87-.11-2.22A2.1,2.1,0,0,1,76,18s.66.8.89,1Z"/><path class="cls-3" d="M76.31,42.5s2.87.59,2.94,1,0,.81-.6.81h-4.5s-.35-1.33.16-1.84C74.72,42.89,76.31,42.5,76.31,42.5Z"/><path class="cls-1" d="M43.84,9.1c-.6.14-.69-1.14-.09-1.28-.2-.19,0-.69.34-.74,0-.75.76-.45.79-.48,0-.43.69-.64,1.12-.32.18-.25,1-.21,1,.26a.63.63,0,0,1,.54.89c.33,0,.55.61.22.77,0,0,.23.51,0,.62s-.68-.26-.8-.55c-.16,0-.41-.23-.52-.41,0,0-.91.1-1-.24,0,.15-.6.09-.76.25a1.56,1.56,0,0,0-.2.7l-.66.53"/><path class="cls-1" d="M10.59,5.65a6.66,6.66,0,0,0,3.55.9,1.87,1.87,0,0,0-1.78-2.19C11,4.36,10.3,5.36,10.59,5.65Z"/></svg>