<svg id="Layer_1" data-name="Layer 1" xmlns="http://www.w3.org/2000/svg" viewBox="0 0 173.39 88"><defs><style>.cls-1{fill:#ddcce5;stroke:#c2a3d1;}.cls-1,.cls-2,.cls-3,.cls-4,.cls-5{stroke-linecap:round;stroke-linejoin:round;stroke-width:0.5px;}.cls-2{fill:#f30;}.cls-2,.cls-3,.cls-4{stroke:#3e0443;}.cls-3{fill:#793399;}.cls-4{fill:#e6e6e7;}.cls-5{fill:none;stroke:#57007f;}</style></defs><title>the-long-haul</title><path class="cls-1" d="M86.78,79.72c-3.58,3.59-8.08,4.93-10,3s-.63-6.45,3-10,8.09-4.94,10-3S90.37,76.12,86.78,79.72Z"/><path class="cls-1" d="M86,72.75s0,0,0,0L35,27.34l-2.44,2.52L79.8,79c1,.85,3,.21,4.74-1.47S86.89,73.68,86,72.75Z"/><path class="cls-2" d="M129.58,55l-5.76.75-.11,1.13a30.93,30.93,0,0,0,6,.31,10.67,10.67,0,0,0,3.47-1.36"/><polyline class="cls-2" points="134.68 51.07 134.03 53.49 135.05 54.08 136.84 53.74 136.43 49.9"/><path class="cls-2" d="M132.17,62.53a31.86,31.86,0,0,0-4.23,2.93,2,2,0,0,0-.39,1,12.8,12.8,0,0,0-1.62,3.37c-.53,1.81-1.15,5.44-1.15,5.44l1.23.27c.68-1.72,1.76-3.36,2.51-4.91a7.76,7.76,0,0,0,.81-2.71,42.14,42.14,0,0,0,6-2"/><path class="cls-3" d="M134,52.52s.45.83,1.1.89S137,52.25,137,52.25a2.88,2.88,0,0,1,2.21.64c.68.81.06,2.73.06,2.73s.18,5.06,0,6.92c-.07-.09-5.76-1.41-5.76-1.41a22.09,22.09,0,0,1-.94-2.81,12.93,12.93,0,0,1,0-2.35l-2.13.55-1-1.83A7.2,7.2,0,0,1,132,52.85,7.87,7.87,0,0,1,134,52.52Z"/><path class="cls-2" d="M135.54,62.84s-3.21,3.58-3.91,5.23a1.84,1.84,0,0,0,.09,2.23c.17.94,1.05,2.08,2.38,3.69s2.16,2.5,2.16,2.5l1.1-.07a31.57,31.57,0,0,0-1.81-4.52,7.35,7.35,0,0,0-1.34-2.11,20.3,20.3,0,0,0,3.22-2.9"/><path class="cls-4" d="M131.25,63.05s.5.54,1.2,1.15a4.4,4.4,0,0,0,1.23.81l.42-.61a8.07,8.07,0,0,1,2,.93A4.4,4.4,0,0,1,137.35,67a5.23,5.23,0,0,0,1.5-2.25,5.76,5.76,0,0,0,.34-2.67,29.88,29.88,0,0,1-3.24-.36l-2.55-.59Z"/><path class="cls-2" d="M137.27,48.46a1.7,1.7,0,1,0-3.39-.3l-.15,1.69a1.7,1.7,0,0,0,3.39.31Z"/><path class="cls-3" d="M136.11,54.39l-1.71,1.35.27,1.88A7.41,7.41,0,0,0,137.9,56"/><line class="cls-2" x1="134.58" y1="63.83" x2="133.7" y2="64.81"/><path class="cls-4" d="M126.15,75.34a3.58,3.58,0,0,1,0,1.69L122,76.66s-.43-1,.82-1a5.86,5.86,0,0,0,2-.59Z"/><path class="cls-4" d="M136.26,76.49s-.92.78-.95,1.15.1.51.1.51l1.87.17c.53.05.79-1.3.08-1.9Z"/><polyline class="cls-5" points="34.91 28.8 117.35 54.39 156.93 65.01"/><path class="cls-2" d="M134.41,55.86l.26,1.76a26,26,0,0,1-5.16-.16,1.52,1.52,0,0,1-2.56.37c-.29-.48.94-1.4,2.4-1.39A22.22,22.22,0,0,1,134.41,55.86Z"/><path class="cls-2" d="M122.89,55.32c-.7.07-1,2,.33,2S124.85,55.13,122.89,55.32Z"/><polyline class="cls-2" points="166.58 55.33 167.64 56.77 167.65 59.27 162.05 59.31 164.57 54.53"/><path class="cls-4" d="M167.64,56.77s-.75,1.82-2.08,1.67-1.37-2.65-1.37-2.65a33.8,33.8,0,0,0-3.8,0,10.87,10.87,0,0,0-3.48,1.71l-4.46,1.32.86,2.16s2.57-.69,3.65-1,3.15-1.22,3.15-1.22S159,62,158,65.48c.06.1,8.2,2.29,8.2,2.29L166,65.88l3.21-2.11.29-.7s.55-1.52.85-2.43a3,3,0,0,0-1-2.69A8.2,8.2,0,0,0,167.64,56.77Z"/><path class="cls-2" d="M166.46,74.77a2.44,2.44,0,0,1-.4,1.07,7,7,0,0,1-2,3.83c-1.17,1.18-2.74,2.83-2.74,2.83l-.69.66-.71-.69a23.52,23.52,0,0,0,1.24-3.7,5.64,5.64,0,0,1,2.2-3.29l-.13-1.56"/><path class="cls-2" d="M156.41,72.91a3.35,3.35,0,0,1-1.62.9,11,11,0,0,1-3.18,4.06,11.35,11.35,0,0,0-2.27,2.65l-1.22-.46a1.52,1.52,0,0,1,.53-1.2c.63-1.21,2-5,3.59-6,.16-.44,1.2-1.47,1.81-1.47"/><path class="cls-4" d="M161.28,82.5s1.54.75,2.05.9.39.93.24,1.08a13.76,13.76,0,0,1-4.22-.64,1.55,1.55,0,0,1,.65-1.65,1.17,1.17,0,0,0,.64.41A1.29,1.29,0,0,0,161.28,82.5Z"/><path class="cls-4" d="M149,82a7.27,7.27,0,0,1-2.15-.19c-.39-.23.68-2.12,2.06-1.78S149.35,82,149,82Z"/><path class="cls-3" d="M166.15,66.28l.55,8.38a6.59,6.59,0,0,0-3.52-.13,33.6,33.6,0,0,1-2.56-3.86l-4.38,3a5.66,5.66,0,0,0-3.36-1.72c.79-1.6,3.14-5.39,6-7Z"/><path class="cls-4" d="M167.08,62.67l-1.4,1.89-2.26-.31-.3,2.18A5.05,5.05,0,0,0,166,67a6.58,6.58,0,0,0,3.5-3.88"/><path class="cls-2" d="M163.14,66.34A16.3,16.3,0,0,1,159,65.19s-.91.92-1.54.75-.72-1.84,0-2.16,2.36.3,2.36.3l3.62.35Z"/><path class="cls-2" d="M153.25,60.85A24.4,24.4,0,0,1,149,62.1c-.16,1.36-2.14,1.34-2.46.85s.72-1.81,2.23-1.87c.95-1,3.84-1.93,3.84-1.93Z"/><path class="cls-2" d="M163.61,53.47A1.81,1.81,0,0,1,167.2,53l.24,1.8a1.81,1.81,0,1,1-3.59.48Z"/><path class="cls-1" d="M29.74,63.39a1.56,1.56,0,1,1-3.08-.5l3.76-28A2.25,2.25,0,0,1,33,33a2.27,2.27,0,0,1,1.88,2.59Z"/><path class="cls-1" d="M6,8A1.56,1.56,0,0,1,8,5.56L30.36,22.81a2.26,2.26,0,1,1-2.85,3.51Z"/><path class="cls-1" d="M65.37,15a1.56,1.56,0,1,1,1.12,2.91L40.37,28.65a2.26,2.26,0,1,1-1.61-4.22Z"/><circle class="cls-1" cx="33.66" cy="28.89" r="4.2"/><path class="cls-2" d="M136.85,51.16c1.67.85,2.19-.51,1.87-1.26a3.37,3.37,0,0,0-.13-2.91c-.49-.62-1.42.1-1.42.1a.92.92,0,0,0-.45,1.35,3.32,3.32,0,0,1,.4,1.37Z"/><path class="cls-2" d="M137.89,46.9c.14.74.18,1.15-.45,1.24a3.81,3.81,0,0,1-1.82-.4,1.53,1.53,0,0,0-1.82.3c-.41-1,.24-1.59.73-1.53a1.09,1.09,0,0,1,1.78-.63A1.28,1.28,0,0,1,137.89,46.9Z"/></svg>